/* XPM */
static char * document_plus_xpm[] = {
"16 16 67 1",
" 	c None",
".	c #F5FCFC",
"+	c #EFF9F9",
"@	c #EAF6F6",
"#	c #E5F4F4",
"$	c #E2F3F3",
"%	c #E1F2F2",
"&	c #B1C2C2",
"*	c #F3FAFA",
"=	c #ECF4F4",
"-	c #E7F1F1",
";	c #DFECEC",
">	c #D9E8E8",
",	c #D5E6E6",
"'	c #D4E5E5",
")	c #A5B6B6",
"!	c #FFFFFF",
"~	c #F4FAFA",
"{	c #EEF5F5",
"]	c #93A4A4",
"^	c #F6FBFB",
"/	c #F0F6F6",
"(	c #F7FCFC",
"_	c #F2F7F7",
":	c #F8FCFC",
"<	c #F4F8F8",
"[	c #FAFDFD",
"}	c #F6FAFA",
"|	c #FBFDFD",
"1	c #F8FBFB",
"2	c #EAF7F7",
"3	c #FCFEFE",
"4	c #F9FCFC",
"5	c #5EC76E",
"6	c #30B943",
"7	c #14922E",
"8	c #FDFEFE",
"9	c #30B441",
"0	c #64EE75",
"a	c #069D1B",
"b	c #FEFFFF",
"c	c #FCFDFD",
"d	c #62C26E",
"e	c #30AF40",
"f	c #30AF3F",
"g	c #55EB66",
"h	c #059619",
"i	c #009D12",
"j	c #009C12",
"k	c #FEFEFE",
"l	c #31AA3F",
"m	c #41E752",
"n	c #009510",
"o	c #63B96D",
"p	c #31A23D",
"q	c #2CE23D",
"r	c #048514",
"s	c #008C0E",
"t	c #008D0E",
"u	c #173838",
"v	c #329B3C",
"w	c #1ADF2B",
"x	c #037A11",
"y	c #0B2A2A",
"z	c #045511",
"A	c #026109",
"B	c #02650A",
"                ",
"   .+@#$%%&     ",
"   *=-;>,')!    ",
"   ~{=-;>,]]]   ",
"   ^/{=-;>,'%   ",
"   (_/{=-;>,%   ",
"   :<_/{=-;>$   ",
"   [}<_/{=-;#   ",
"   |1}<_/{=-2   ",
"   341}<_/{567  ",
"   8|41}<_/90a  ",
"   bc|41}defghij",
"   !kc|41lmmmmmn",
"   !!kc|4oppqrst",
"  u!!!b83|[vwx  ",
"   yyyyyyyyzAB  "};
