/* XPM */
static char * document_xpm[] = {
"16 16 42 1",
" 	c None",
".	c #F5FCFC",
"+	c #EFF9F9",
"@	c #EAF6F6",
"#	c #E5F4F4",
"$	c #E2F3F3",
"%	c #E1F2F2",
"&	c #B1C2C2",
"*	c #F3FAFA",
"=	c #ECF4F4",
"-	c #E7F1F1",
";	c #DFECEC",
">	c #D9E8E8",
",	c #D5E6E6",
"'	c #D4E5E5",
")	c #A5B6B6",
"!	c #FFFFFF",
"~	c #F4FAFA",
"{	c #EEF5F5",
"]	c #93A4A4",
"^	c #F6FBFB",
"/	c #F0F6F6",
"(	c #F7FCFC",
"_	c #F2F7F7",
":	c #F8FCFC",
"<	c #F4F8F8",
"[	c #FAFDFD",
"}	c #F6FAFA",
"|	c #FBFDFD",
"1	c #F8FBFB",
"2	c #EAF7F7",
"3	c #FCFEFE",
"4	c #F9FCFC",
"5	c #FDFEFE",
"6	c #F2FAFA",
"7	c #FEFFFF",
"8	c #FCFDFD",
"9	c #FEFEFE",
"0	c #F5FBFB",
"a	c #173838",
"b	c #F9FEFE",
"c	c #0B2A2A",
"                ",
"   .+@#$%%&     ",
"   *=-;>,')!    ",
"   ~{=-;>,]]]   ",
"   ^/{=-;>,'%   ",
"   (_/{=-;>,%   ",
"   :<_/{=-;>$   ",
"   [}<_/{=-;#   ",
"   |1}<_/{=-2   ",
"   341}<_/{=+   ",
"   5|41}<_/{6   ",
"   78|41}<_/*   ",
"   !98|41}<_0   ",
"   !!98|41}<^   ",
"  a!!!753|[:ba  ",
"   cccccccccc   "};
