/* XPM */
static char * grid_xpm[] = {
"16 16 3 1",
" 	c None",
".	c #FFFFFF",
"+	c #CCCCCC",
"........++++++++",
"........++++++++",
"........++++++++",
"........++++++++",
"........++++++++",
"........++++++++",
"........++++++++",
"........++++++++",
"++++++++........",
"++++++++........",
"++++++++........",
"++++++++........",
"++++++++........",
"++++++++........",
"++++++++........",
"++++++++........"};
