/* XPM */
static char * shape_aling_center_xpm[] = {
"16 16 24 1",
" 	c None",
".	c #4C4C4C",
"+	c #A1A1A1",
"@	c #9E9E9E",
"#	c #F9F9F9",
"$	c #F7F7F7",
"%	c #9A9A9A",
"&	c #ECECEC",
"*	c #E6E6E6",
"=	c #959595",
"-	c #E2E2E2",
";	c #D8D8D8",
">	c #909090",
",	c #848484",
"'	c #7E7E7E",
")	c #F3F3F3",
"!	c #EEEEEE",
"~	c #797979",
"{	c #D6D6D6",
"]	c #C8C8C8",
"^	c #747474",
"/	c #C5C5C5",
"(	c #B1B1B1",
"_	c #707070",
"                ",
"                ",
"        .       ",
"    +++++++++   ",
"    @#$$$$$#@   ",
"    %&*****&%   ",
"    =-;;;;;-=   ",
"    >>>>>>>>>   ",
"        .       ",
"  ,,,,,,,,,,,,, ",
"  ')!!!!!!!!!)' ",
"  ~{]]]]]]]]]{~ ",
"  ^/(((((((((/^ ",
"  _____________ ",
"        .       ",
"                "};
