/* XPM */
static char * ico_open_32x32_xpm[] = {
"32 32 274 2",
"  	c None",
". 	c #8AA0C3",
"+ 	c #BFCDE2",
"@ 	c #E6EEF8",
"# 	c #F1F7FE",
"$ 	c #C4D1E4",
"% 	c #F0F6FD",
"& 	c #EDF4FD",
"* 	c #ECF4FD",
"= 	c #C5D2E4",
"- 	c #E9F0F9",
"; 	c #ECF3FC",
"> 	c #EBF3FC",
", 	c #EAF1F9",
"' 	c #EDF4FC",
") 	c #E9F1FB",
"! 	c #ECF3FB",
"~ 	c #E7F0FA",
"{ 	c #EAF1FA",
"] 	c #E5EEF9",
"^ 	c #E7EFF9",
"/ 	c #EBF2FA",
"( 	c #ECF2FA",
"_ 	c #E9F0F8",
": 	c #E3ECF7",
"< 	c #E5EEF8",
"[ 	c #B2C7D9",
"} 	c #336D98",
"| 	c #004C84",
"1 	c #004E88",
"2 	c #3372A0",
"3 	c #B2C9DC",
"4 	c #E7EEF7",
"5 	c #E1EAF6",
"6 	c #185A8B",
"7 	c #025390",
"8 	c #035DA1",
"9 	c #0361A9",
"0 	c #0363AB",
"a 	c #196BA9",
"b 	c #E5EDF6",
"c 	c #DEE8F5",
"d 	c #DFE8F5",
"e 	c #CDDCE9",
"f 	c #045089",
"g 	c #0561A5",
"h 	c #066CB8",
"i 	c #066FBD",
"j 	c #066FBE",
"k 	c #1F7ABF",
"l 	c #E3EBF5",
"m 	c #DCE6F3",
"n 	c #DDE6F3",
"o 	c #DFE8F4",
"p 	c #E2EAF5",
"q 	c #E4ECF5",
"r 	c #E5ECF5",
"s 	c #E7EEF6",
"t 	c #EAF0F7",
"u 	c #ECF1F7",
"v 	c #EBF0F7",
"w 	c #EAEFF6",
"x 	c #E6EDF6",
"y 	c #B3CFE6",
"z 	c #096CB6",
"A 	c #0A70BE",
"B 	c #0A72C1",
"C 	c #589DD2",
"D 	c #E2EAF4",
"E 	c #E1E9F3",
"F 	c #D9E4F1",
"G 	c #DCE6F2",
"H 	c #ADC3D6",
"I 	c #326C97",
"J 	c #32719F",
"K 	c #ADC5D8",
"L 	c #DDE6F2",
"M 	c #E4ECF4",
"N 	c #0C61A2",
"O 	c #0E6FB9",
"P 	c #0F75C4",
"Q 	c #8EBADE",
"R 	c #DDE7F2",
"S 	c #DFE7F2",
"T 	c #D7E1F0",
"U 	c #0F5B96",
"V 	c #126FB8",
"W 	c #1479C8",
"X 	c #BBD4E9",
"Y 	c #D9E3F1",
"Z 	c #DDE5F1",
"` 	c #D4DFEE",
" .	c #DEE6F1",
"..	c #0D568C",
"+.	c #0660A5",
"@.	c #076CB8",
"#.	c #076FBD",
"$.	c #076FBE",
"%.	c #D8E3EF",
"&.	c #E0E7F1",
"*.	c #125C96",
"=.	c #1772BA",
"-.	c #197DCC",
";.	c #2382CE",
">.	c #DDE6F0",
",.	c #D5E0EE",
"'.	c #DAE4EF",
").	c #D1DDEC",
"!.	c #DBE4EF",
"~.	c #286A9C",
"{.	c #0B67AE",
"].	c #0C72C0",
"^.	c #0C73C2",
"/.	c #0C73C1",
"(.	c #C2D6E7",
"_.	c #DEE7F0",
":.	c #165F99",
"<.	c #1B76BE",
"[.	c #1E81D0",
"}.	c #559ED8",
"|.	c #D9E3EF",
"1.	c #D9E1EE",
"2.	c #CFDAEB",
"3.	c #D8E1EE",
"4.	c #3D78A6",
"5.	c #0F6AB0",
"6.	c #1176C4",
"7.	c #1177C6",
"8.	c #B2CCE3",
"9.	c #DDE5F0",
"0.	c #1B629C",
"a.	c #217AC2",
"b.	c #2485D4",
"c.	c #84B7E1",
"d.	c #D5DFED",
"e.	c #D6E0EC",
"f.	c #CCD8E9",
"g.	c #D5DFEC",
"h.	c #5587AF",
"i.	c #146CB1",
"j.	c #1779C6",
"k.	c #177BCA",
"l.	c #A0C3E0",
"m.	c #DCE4EE",
"n.	c #1F65A0",
"o.	c #267DC6",
"p.	c #2A89D9",
"q.	c #AECCE7",
"r.	c #D0DBEA",
"s.	c #D4DEEB",
"t.	c #C9D6E7",
"u.	c #D1DCEA",
"v.	c #6A96B9",
"w.	c #196EB2",
"x.	c #1C7CC9",
"y.	c #1D80CF",
"z.	c #90BADD",
"A.	c #DBE3ED",
"B.	c #2368A3",
"C.	c #2C81CA",
"D.	c #328EDD",
"E.	c #D0DEEB",
"F.	c #CAD7E7",
"G.	c #C6D3E6",
"H.	c #CDD9E8",
"I.	c #7FA4C3",
"J.	c #1E70B3",
"K.	c #2380CD",
"L.	c #81B3DC",
"M.	c #D9E2ED",
"N.	c #276BA6",
"O.	c #3084CE",
"P.	c #56A1E3",
"Q.	c #D2DCEA",
"R.	c #D0DAE8",
"S.	c #CAD6E6",
"T.	c #8FAECA",
"U.	c #2371B3",
"V.	c #2883D0",
"W.	c #75ADDC",
"X.	c #DAE2EB",
"Y.	c #2B6EA9",
"Z.	c #3588D1",
"`.	c #81B6E7",
" +	c #CDD8E7",
".+	c #CDD9E6",
"++	c #C1CFE2",
"@+	c #C6D3E4",
"#+	c #A0BAD1",
"$+	c #2873B3",
"%+	c #2F87D3",
"&+	c #318EDE",
"*+	c #67A7DD",
"=+	c #D9E1EB",
"-+	c #2E71AC",
";+	c #3A8CD5",
">+	c #A5C8E8",
",+	c #CBD6E5",
"'+	c #BECCE1",
")+	c #C2CFE2",
"!+	c #AEC4D7",
"~+	c #2C74B4",
"{+	c #348AD6",
"]+	c #3793E3",
"^+	c #5BA2E0",
"/+	c #D7E0EA",
"(+	c #3273AE",
"_+	c #3E8FD8",
":+	c #C1D3E7",
"<+	c #C0CEE2",
"[+	c #C9D5E4",
"}+	c #BCCADF",
"|+	c #BECCE0",
"1+	c #B9CADC",
"2+	c #2F75B3",
"3+	c #398DD8",
"4+	c #3D97E7",
"5+	c #539FE3",
"6+	c #D7E0E9",
"7+	c #3575B0",
"8+	c #539ADB",
"9+	c #CAD5E4",
"0+	c #BDCADF",
"a+	c #C7D3E2",
"b+	c #B9C8DD",
"c+	c #BAC9DD",
"d+	c #C6D3E1",
"e+	c #3276B3",
"f+	c #3D8FD9",
"g+	c #429BEB",
"h+	c #469CE8",
"i+	c #D2DCE6",
"j+	c #4681B7",
"k+	c #A9C7E1",
"l+	c #BFCDDF",
"m+	c #C5D1E1",
"n+	c #B7C6DC",
"o+	c #4782B8",
"p+	c #4191DA",
"q+	c #479EEE",
"r+	c #479FEF",
"s+	c #56A5ED",
"t+	c #C8D3E3",
"u+	c #C0CDDF",
"v+	c #BECBDE",
"w+	c #B8C7DD",
"x+	c #C4D0E0",
"y+	c #B5C4DB",
"z+	c #BCC9DD",
"A+	c #A4BCD5",
"B+	c #4F95D5",
"C+	c #499EEC",
"D+	c #4BA1F1",
"E+	c #4BA2F2",
"F+	c #58A7F0",
"G+	c #A9C8E7",
"H+	c #C2CEDF",
"I+	c #B3C2D9",
"J+	c #B4C3DA",
"K+	c #BAC8DC",
"L+	c #C2CEDE",
"M+	c #C5D1E0",
"N+	c #C6D1E0",
"O+	c #C1CDDE",
"P+	c #B1C0D8",
"Q+	c #BCC9DB",
"R+	c #B2C1D8",
"S+	c #AFBFD7",
"T+	c #BDCADC",
"U+	c #A7B8D1",
"V+	c #B1C0D7",
"W+	c #ADBDD6",
"X+	c #A4B5CF",
"Y+	c #B7C5D9",
"    . . . . . . . . . . . . . . . . . . . . . . . . . . . .     ",
"  . + @ # # # # # # # # # # # # # # # # # # # # # # # # @ + .   ",
". $ % & * * * * * * * * * * * * * * * * * * * * * * * * & % = . ",
". - ; > > > > > > > > > > > > > > > > > > > > > > > > > > ; , . ",
". ' ) ) ) ) ) ) ) ) ) ) ) ) ) ) ) ) ) ) ) ) ) ) ) ) ) ) ) ) ' . ",
". ! ~ ~ ~ ~ ~ ~ ~ ~ ~ ~ ~ ~ ~ ~ ~ ~ ~ ~ ~ ~ ~ ~ ~ ~ ~ ~ ~ ~ ! . ",
". { ] ] ] ] ] ] ] ^ { / ( ( ( ( ( ( ( ( ( ( ( ( ( ( / { ^ ] { . ",
". _ : : : : : : < [ } | 1 1 1 1 1 1 1 1 1 1 1 1 1 1 1 2 3 < _ . ",
". 4 5 5 5 5 5 5 4 6 7 8 9 0 0 0 0 0 0 0 0 0 0 0 0 0 0 9 a 4 4 . ",
". b c c c c c d e f g h i j j j j j j j j j j j j j j i k b b . ",
". l m n o p q r s t u u u u u u u u u v w s x y z A B B C D l . ",
". E F G H I | 1 1 1 1 1 1 1 1 1 1 1 1 1 J K L M N O P P Q R E . ",
". S T S 6 7 8 9 0 0 0 0 0 0 0 0 0 0 0 0 9 a S E U V W W X Y S . ",
". Z `  ...+.@.#.$.$.$.$.$.$.$.$.$.$.$.$.#.@.%.&.*.=.-.;.>.,.Z . ",
". '.).!.~.{.].^.^.^.^.^.^.^.^.^.^.^.^.^.^./.(._.:.<.[.}.|.).'.. ",
". 1.2.3.4.5.6.7.7.7.7.7.7.7.7.7.7.7.7.7.7.7.8.9.0.a.b.c.d.2.1.. ",
". e.f.g.h.i.j.k.k.k.k.k.k.k.k.k.k.k.k.k.k.k.l.m.n.o.p.q.r.f.e.. ",
". s.t.u.v.w.x.y.y.y.y.y.y.y.y.y.y.y.y.y.y.y.z.A.B.C.D.E.F.t.s.. ",
". u.G.H.I.J.K.b.b.b.b.b.b.b.b.b.b.b.b.b.b.b.L.M.N.O.P.Q.G.G.u.. ",
". R.$ S.T.U.V.p.p.p.p.p.p.p.p.p.p.p.p.p.p.p.W.X.Y.Z.`. +$ $ R.. ",
". .+++@+#+$+%+&+&+&+&+&+&+&+&+&+&+&+&+&+&+&+*+=+-+;+>+@+++++.+. ",
". ,+'+)+!+~+{+]+]+]+]+]+]+]+]+]+]+]+]+]+]+]+^+/+(+_+:+<+'+'+,+. ",
". [+}+|+1+2+3+4+4+4+4+4+4+4+4+4+4+4+4+4+4+4+5+6+7+8+9+0+}+}+[+. ",
". a+b+c+d+e+f+g+g+g+g+g+g+g+g+g+g+g+g+g+g+g+h+i+j+k+l+b+b+b+a+. ",
". m+n+n+m+o+p+q+r+r+r+r+r+r+r+r+r+r+r+r+r+r+s+t+u+v+w+n+n+n+m+. ",
". x+y+y+z+A+B+C+D+E+E+E+E+E+E+E+E+E+E+E+E+F+G+z+y+y+y+y+y+y+x+. ",
". H+I+I+J+K+L+M+N+N+N+N+N+N+N+N+N+N+N+N+M+L+K+J+I+I+I+I+I+I+H+. ",
". O+P+P+P+P+P+P+P+P+P+P+P+P+P+P+P+P+P+P+P+P+P+P+P+P+P+P+P+P+O+. ",
". Q+R+S+S+S+S+S+S+S+S+S+S+S+S+S+S+S+S+S+S+S+S+S+S+S+S+S+S+R+T+. ",
". U+T+V+W+W+W+W+W+W+W+W+W+W+W+W+W+W+W+W+W+W+W+W+W+W+W+W+V+T+U+. ",
"  . X+Y+Q+Q+Q+Q+Q+Q+Q+Q+Q+Q+Q+Q+Q+Q+Q+Q+Q+Q+Q+Q+Q+Q+Q+Q+Y+X+.   ",
"    . . . . . . . . . . . . . . . . . . . . . . . . . . . .     "};
