/* XPM */
static char * ico_clip_32x32_xpm[] = {
"32 32 239 2",
"  	c None",
". 	c #8AA0C3",
"+ 	c #BFCDE2",
"@ 	c #E6EEF8",
"# 	c #F1F7FE",
"$ 	c #C4D1E4",
"% 	c #F0F6FD",
"& 	c #EDF4FD",
"* 	c #ECF4FD",
"= 	c #C5D2E4",
"- 	c #E9F0F9",
"; 	c #ECF3FC",
"> 	c #EBF3FC",
", 	c #ECF4FC",
"' 	c #EFF5FC",
") 	c #EAF1F9",
"! 	c #EDF4FC",
"~ 	c #E9F1FB",
"{ 	c #00477D",
"] 	c #004C85",
"^ 	c #004E88",
"/ 	c #EAF2FB",
"( 	c #ECF3FB",
"_ 	c #E7F0FA",
": 	c #EDF4FB",
"< 	c #014D85",
"[ 	c #025B9E",
"} 	c #0262AA",
"| 	c #01487D",
"1 	c #EAF1FA",
"2 	c #E5EEF9",
"3 	c #ECF2FA",
"4 	c #03508B",
"5 	c #0464AC",
"6 	c #046DBC",
"7 	c #E7EFF9",
"8 	c #EFF4FB",
"9 	c #034E87",
"0 	c #035C9F",
"a 	c #E9F0F8",
"b 	c #E3ECF7",
"c 	c #E5EDF7",
"d 	c #E8F0F8",
"e 	c #EFF4FA",
"f 	c #05528C",
"g 	c #0665AE",
"h 	c #076FBE",
"i 	c #EEF3F9",
"j 	c #054B80",
"k 	c #055088",
"l 	c #E7EEF7",
"m 	c #E1EAF6",
"n 	c #074C82",
"o 	c #07518A",
"p 	c #07538E",
"q 	c #085B9A",
"r 	c #0969B3",
"s 	c #0A71C0",
"t 	c #085997",
"u 	c #0962A6",
"v 	c #E5EDF6",
"w 	c #DEE8F5",
"x 	c #E6EEF7",
"y 	c #09538C",
"z 	c #0B62A5",
"A 	c #0C6AB2",
"B 	c #0C6CB6",
"C 	c #0D71BE",
"D 	c #0D74C3",
"E 	c #EAF1F8",
"F 	c #E0E9F5",
"G 	c #E3EBF5",
"H 	c #DCE6F3",
"I 	c #0D5792",
"J 	c #106CB5",
"K 	c #1176C6",
"L 	c #E5ECF5",
"M 	c #E1E9F3",
"N 	c #D9E4F1",
"O 	c #DBE6F2",
"P 	c #E0E9F3",
"Q 	c #E3EBF4",
"R 	c #EAF0F5",
"S 	c #1471BC",
"T 	c #1576C4",
"U 	c #1579C9",
"V 	c #E5ECF4",
"W 	c #ECF2F6",
"X 	c #DFE7F2",
"Y 	c #D7E1F0",
"Z 	c #1364A3",
"` 	c #1674BD",
" .	c #187CCB",
"..	c #125E9A",
"+.	c #EBF0F6",
"@.	c #1671B9",
"#.	c #1779C6",
"$.	c #DDE5F1",
"%.	c #D4DFEE",
"&.	c #DFE7F1",
"*.	c #155E99",
"=.	c #1A74BD",
"-.	c #1D7FCF",
";.	c #D7E1EF",
">.	c #DCE5F0",
",.	c #E4EBF3",
"'.	c #155B95",
").	c #196CAF",
"!.	c #E7EDF4",
"~.	c #1B77C1",
"{.	c #DAE4EF",
"].	c #D1DDEC",
"^.	c #DDE6F0",
"/.	c #18609B",
"(.	c #1E77C0",
"_.	c #2182D2",
":.	c #DAE3EF",
"<.	c #16588E",
"[.	c #185D97",
"}.	c #E2EAF1",
"|.	c #DFE8F0",
"1.	c #1B69A9",
"2.	c #D9E1EE",
"3.	c #CFDAEB",
"4.	c #DBE3EF",
"5.	c #1B629D",
"6.	c #227AC3",
"7.	c #2585D5",
"8.	c #D2DCEC",
"9.	c #D8E1EE",
"0.	c #E1E8F1",
"a.	c #1B5F99",
"b.	c #1F71B4",
"c.	c #1C65A2",
"d.	c #D6E0EC",
"e.	c #CCD8E9",
"f.	c #D9E2ED",
"g.	c #1E659F",
"h.	c #257DC5",
"i.	c #2989D8",
"j.	c #D6DFEC",
"k.	c #1C5C92",
"l.	c #1D629B",
"m.	c #DFE7EF",
"n.	c #CFDAEA",
"o.	c #D4DEEB",
"p.	c #C9D6E7",
"q.	c #D7E0EC",
"r.	c #2167A1",
"s.	c #2980C8",
"t.	c #2D8CDB",
"u.	c #E1E8EF",
"v.	c #DDE5EE",
"w.	c #20649D",
"x.	c #2677BA",
"y.	c #D3DEEA",
"z.	c #D1DCEA",
"A.	c #C6D3E6",
"B.	c #2469A4",
"C.	c #2D83CB",
"D.	c #318FDE",
"E.	c #2E85CF",
"F.	c #2773B2",
"G.	c #DBE4ED",
"H.	c #D1DBEA",
"I.	c #CAD6E7",
"J.	c #D0DAE8",
"K.	c #D3DDE9",
"L.	c #286CA7",
"M.	c #3185CF",
"N.	c #3692E2",
"O.	c #358FDD",
"P.	c #3288D3",
"Q.	c #DEE5ED",
"R.	c #CFDAE8",
"S.	c #C8D4E5",
"T.	c #CDD9E6",
"U.	c #C1CFE2",
"V.	c #D1DBE8",
"W.	c #2A6EA8",
"X.	c #3488D0",
"Y.	c #3995E4",
"Z.	c #358BD5",
"`.	c #2E78B7",
" +	c #CDD8E6",
".+	c #CBD6E5",
"++	c #BECCE1",
"@+	c #CED9E7",
"#+	c #2D70AA",
"$+	c #388BD3",
"%+	c #3D98E7",
"&+	c #3C94E2",
"*+	c #398ED8",
"=+	c #C9D5E4",
"-+	c #BCCADF",
";+	c #C9D4E4",
">+	c #3072AD",
",+	c #3B8DD6",
"'+	c #419AEA",
")+	c #C7D3E2",
"!+	c #B9C8DD",
"~+	c #BDCBDF",
"{+	c #C6D2E2",
"]+	c #CBD6E3",
"^+	c #D7E0E8",
"/+	c #3F93DD",
"(+	c #4299E7",
"_+	c #449DED",
":+	c #C5D1E1",
"<+	c #B7C6DC",
"[+	c #C9D4E3",
"}+	c #3980C0",
"|+	c #4294DF",
"1+	c #479FEF",
"2+	c #C4D0E0",
"3+	c #B5C4DB",
"4+	c #C8D3E2",
"5+	c #3777B2",
"6+	c #4493DC",
"7+	c #4AA1F1",
"8+	c #C2CEDF",
"9+	c #B3C2D9",
"0+	c #C1CDDE",
"a+	c #3878B3",
"b+	c #4595DE",
"c+	c #4CA3F3",
"d+	c #B1C0D8",
"e+	c #B6C4DA",
"f+	c #C0CCDD",
"g+	c #C5D0DF",
"h+	c #BCC9DB",
"i+	c #B2C1D8",
"j+	c #AFBFD7",
"k+	c #BDCADC",
"l+	c #A7B8D1",
"m+	c #B1C0D7",
"n+	c #ADBDD6",
"o+	c #A4B5CF",
"p+	c #B7C5D9",
"    . . . . . . . . . . . . . . . . . . . . . . . . . . . .     ",
"  . + @ # # # # # # # # # # # # # # # # # # # # # # # # @ + .   ",
". $ % & * * * * * * * * * * * * * * * * * * * * * * * * & % = . ",
". - ; > > > > , ' % ' , > > > > > > > > > > > > > > > > > ; ) . ",
". ! ~ ~ ~ ~ ~ ! { ] ^ ! ~ ~ ~ ~ ~ ~ ~ ~ ~ ~ ~ / ! ! / ~ ~ ~ ! . ",
". ( _ _ _ _ _ : < [ } : _ _ _ _ _ _ _ _ _ _ _ ( | < ( _ _ _ ( . ",
". 1 2 2 2 2 2 3 4 5 6 3 2 2 2 2 2 2 2 2 2 7 1 8 9 0 1 2 2 2 1 . ",
". a b c d ) ) e f g h e ) ) ) ) ) ) ) ) ) i j k i d c b b b a . ",
". l m l n o p p q r s r q p p p p p p p p p t u l m m m m m l . ",
". v w x y z A A B C D C B A A A A A A A A A B E F w w w w w v . ",
". G H G I J K K K K K K K K K K K K K K K K K L H H H H H H G . ",
". M N O P Q Q R S T U R Q Q Q Q V R W S T U U Q N N N N N N M . ",
". X Y Y Y Y Y M Z `  .M Y Y Y Y X ..Z +.@.#. .M Y Y Y Y Y Y X . ",
". $.%.%.%.%.%.&.*.=.-.&.%.%.;.>.,.'.).!.).~.-.&.%.%.%.%.%.%.$.. ",
". {.].].].].].^./.(._.^.].].:.<.[.}.:.|.1.(._.^.].].].].].].{.. ",
". 2.3.3.3.3.3.4.5.6.7.4.8.9.0.a.b.9.3.4.c.6.7.4.3.3.3.3.3.3.2.. ",
". d.e.e.e.e.e.f.g.h.i.f.j.k.l.m.j.n.e.f.g.h.i.f.e.e.e.e.e.e.d.. ",
". o.p.p.p.p.p.q.r.s.t.u.v.w.x.y.p.p.p.q.r.s.t.q.p.p.p.p.p.p.o.. ",
". z.A.A.A.A.A.o.B.C.D.E.F.G.H.I.A.A.A.o.B.C.D.o.A.A.A.A.A.A.z.. ",
". J.$ $ $ $ $ K.L.M.N.O.P.Q.K.K.K.K.K.Q.L.M.N.Q.K.K.R.S.$ $ J.. ",
". T.U.U.U.U.U.V.W.X.Y.Y.Y.Z.`.W.W.W.W.W.`.Z.Y.Z.`.W.W. +U.U.T.. ",
". .+++++++++++@+#+$+%+%+%+&+*+$+$+$+$+$+*+&+%+&+*+$+$+@+++++.+. ",
". =+-+-+-+-+-+;+>+,+'+'+'+'+'+'+'+'+'+'+'+'+'+'+'+'+'+;+-+-+=+. ",
". )+!+!+!+!+!+~+{+]+]+]+]+]+]+]+]+]+]+^+/+(+_+^+]+]+{+~+!+!+)+. ",
". :+<+<+<+<+<+<+<+<+<+<+<+<+<+<+<+<+<+[+}+|+1+[+<+<+<+<+<+<+:+. ",
". 2+3+3+3+3+3+3+3+3+3+3+3+3+3+3+3+3+3+4+5+6+7+4+3+3+3+3+3+3+2+. ",
". 8+9+9+9+9+9+9+9+9+9+9+9+9+9+9+9+9+9+0+a+b+c+0+9+9+9+9+9+9+8+. ",
". 0+d+d+d+d+d+d+d+d+d+d+d+d+d+d+d+d+d+e+f+g+f+e+d+d+d+d+d+d+0+. ",
". h+i+j+j+j+j+j+j+j+j+j+j+j+j+j+j+j+j+j+j+j+j+j+j+j+j+j+j+i+k+. ",
". l+k+m+n+n+n+n+n+n+n+n+n+n+n+n+n+n+n+n+n+n+n+n+n+n+n+n+m+k+l+. ",
"  . o+p+h+h+h+h+h+h+h+h+h+h+h+h+h+h+h+h+h+h+h+h+h+h+h+h+p+o+.   ",
"    . . . . . . . . . . . . . . . . . . . . . . . . . . . .     "};
