/* XPM */
static char * ico_image_32x32_xpm[] = {
"32 32 246 2",
"  	c None",
". 	c #8AA0C3",
"+ 	c #BFCDE2",
"@ 	c #E6EEF8",
"# 	c #F1F7FE",
"$ 	c #C4D1E4",
"% 	c #F0F6FD",
"& 	c #EDF4FD",
"* 	c #ECF4FD",
"= 	c #C5D2E4",
"- 	c #E9F0F9",
"; 	c #ECF3FC",
"> 	c #EBF3FC",
", 	c #EAF1F9",
"' 	c #EDF4FC",
") 	c #E9F1FB",
"! 	c #ECF3FB",
"~ 	c #E7F0FA",
"{ 	c #EAF1FA",
"] 	c #E5EEF9",
"^ 	c #E9F0F8",
"/ 	c #E3ECF7",
"( 	c #E7EEF7",
"_ 	c #E1EAF6",
": 	c #E2EBF6",
"< 	c #E5EDF7",
"[ 	c #E6EEF7",
"} 	c #E4ECF7",
"| 	c #E2EAF6",
"1 	c #E5EDF6",
"2 	c #DEE8F5",
"3 	c #E3EBF6",
"4 	c #769CB9",
"5 	c #004A80",
"6 	c #A1BDD4",
"7 	c #E3EBF5",
"8 	c #DCE6F3",
"9 	c #DEE7F3",
"0 	c #CAD9E6",
"a 	c #11568A",
"b 	c #025796",
"c 	c #1266A6",
"d 	c #D9E4F0",
"e 	c #E1E9F3",
"f 	c #D9E4F1",
"g 	c #DAE4F1",
"h 	c #E0E9F3",
"i 	c #5C89AC",
"j 	c #055591",
"k 	c #0665AC",
"l 	c #076CB8",
"m 	c #4E90C2",
"n 	c #DAE5F1",
"o 	c #DFE7F2",
"p 	c #D7E1F0",
"q 	c #DAE3F1",
"r 	c #AEC4D7",
"s 	c #09528A",
"t 	c #0A61A4",
"u 	c #0C6EBA",
"v 	c #0C73C1",
"w 	c #0C6FBB",
"x 	c #A2C2DC",
"y 	c #DBE4F1",
"z 	c #DDE5F1",
"A 	c #D4DFEE",
"B 	c #D5E0EE",
"C 	c #DDE6F1",
"D 	c #4479A2",
"E 	c #0D5D9B",
"F 	c #106EB6",
"G 	c #1176C4",
"H 	c #1177C6",
"I 	c #1E77BD",
"J 	c #D4E0ED",
"K 	c #D6E1EF",
"L 	c #D8E2EF",
"M 	c #D9E3EF",
"N 	c #DAE4EF",
"O 	c #D1DDEC",
"P 	c #D5E0ED",
"Q 	c #A1BBD0",
"R 	c #115993",
"S 	c #146AAE",
"T 	c #1678C4",
"U 	c #177BCA",
"V 	c #1779C6",
"W 	c #5796C8",
"X 	c #D2DEEC",
"Y 	c #D2DDEC",
"Z 	c #D7E2EE",
"` 	c #93B0C8",
" .	c #5384AB",
"..	c #CFDCE9",
"+.	c #D3DEED",
"@.	c #D9E1EE",
"#.	c #CFDAEB",
"$.	c #D1DBEB",
"%.	c #DBE3EF",
"&.	c #2E6A9A",
"*.	c #1766A6",
"=.	c #1B77C1",
"-.	c #1D7FCE",
";.	c #1D80CF",
">.	c #1C7BC8",
",.	c #A4C3DD",
"'.	c #D4DEED",
").	c #D3DDEC",
"!.	c #BACBDC",
"~.	c #145990",
"{.	c #1764A2",
"].	c #72A2C8",
"^.	c #D7E0ED",
"/.	c #D0DAEB",
"(.	c #D6E0EC",
"_.	c #CCD8E9",
":.	c #D3DDEB",
"<.	c #7EA1BF",
"[.	c #1B639D",
"}.	c #2075BB",
"|.	c #2382D0",
"1.	c #2485D4",
"2.	c #2484D2",
"3.	c #2E83C9",
"4.	c #CCDAE9",
"5.	c #CEDBE7",
"6.	c #4076A3",
"7.	c #1C67A5",
"8.	c #2178C0",
"9.	c #227CC6",
"0.	c #BBD0E3",
"a.	c #D0DBEA",
"b.	c #D4DEEB",
"c.	c #C9D6E7",
"d.	c #CCD8E8",
"e.	c #CEDAE7",
"f.	c #29699D",
"g.	c #2371B3",
"h.	c #2882CE",
"i.	c #2A88D8",
"j.	c #2A89D9",
"k.	c #589FDB",
"l.	c #DCE4ED",
"m.	c #76A0C3",
"n.	c #1F66A2",
"o.	c #2578BE",
"p.	c #2985D3",
"q.	c #2A88D7",
"r.	c #5699D1",
"s.	c #D5DFEB",
"t.	c #CAD7E7",
"u.	c #D1DCEA",
"v.	c #C6D3E6",
"w.	c #CFDAE9",
"x.	c #6A93B7",
"y.	c #256BA8",
"z.	c #2C80C8",
"A.	c #308CDB",
"B.	c #318EDE",
"C.	c #B6D1EA",
"D.	c #B5CDE4",
"E.	c #266EAC",
"F.	c #2977B9",
"G.	c #2F87D4",
"H.	c #318DDD",
"I.	c #308AD8",
"J.	c #9BBEDD",
"K.	c #D0DAE8",
"L.	c #C8D4E5",
"M.	c #C2D1E0",
"N.	c #2768A0",
"O.	c #2E7BBF",
"P.	c #358DDA",
"Q.	c #3793E3",
"R.	c #4093DB",
"S.	c #3A86C7",
"T.	c #3388D2",
"U.	c #3792E1",
"V.	c #3792E2",
"W.	c #3F90D7",
"X.	c #CAD8E7",
"Y.	c #C7D3E5",
"Z.	c #CDD9E6",
"`.	c #C1CFE2",
" +	c #C2D0E2",
".+	c #CDD8E6",
"++	c #5786B0",
"@+	c #2F75B2",
"#+	c #388BD4",
"$+	c #3D96E5",
"%+	c #3D97E7",
"&+	c #3C94E2",
"*+	c #398ED9",
"=+	c #3C95E3",
"-+	c #81B1DC",
";+	c #CBD7E6",
">+	c #CBD6E5",
",+	c #BECCE1",
"'+	c #C4D0E3",
")+	c #ADC2D6",
"!+	c #2F6FA9",
"~+	c #3985CA",
"{+	c #4096E4",
"]+	c #429BEB",
"^+	c #429AEA",
"/+	c #3F94E1",
"(+	c #B8CDE2",
"_+	c #C3D0E3",
":+	c #C9D5E4",
"<+	c #BCCADF",
"[+	c #C9D4E4",
"}+	c #467BAC",
"|+	c #387EBD",
"1+	c #4294DF",
"2+	c #479EEE",
"3+	c #479FEF",
"4+	c #469EED",
"5+	c #68A7DF",
"6+	c #C7D3E3",
"7+	c #C7D3E2",
"8+	c #B9C8DD",
"9+	c #C6D2E2",
"0+	c #3674AE",
"a+	c #418CD2",
"b+	c #499EEC",
"c+	c #4BA2F2",
"d+	c #499EEB",
"e+	c #C5D1E1",
"f+	c #B7C6DC",
"g+	c #BCCADE",
"h+	c #C9D4E3",
"i+	c #C4D0E0",
"j+	c #B5C4DB",
"k+	c #C2CEDF",
"l+	c #B3C2D9",
"m+	c #C1CDDE",
"n+	c #B1C0D8",
"o+	c #BCC9DB",
"p+	c #B2C1D8",
"q+	c #AFBFD7",
"r+	c #BDCADC",
"s+	c #A7B8D1",
"t+	c #B1C0D7",
"u+	c #ADBDD6",
"v+	c #A4B5CF",
"w+	c #B7C5D9",
"    . . . . . . . . . . . . . . . . . . . . . . . . . . . .     ",
"  . + @ # # # # # # # # # # # # # # # # # # # # # # # # @ + .   ",
". $ % & * * * * * * * * * * * * * * * * * * * * * * * * & % = . ",
". - ; > > > > > > > > > > > > > > > > > > > > > > > > > > ; , . ",
". ' ) ) ) ) ) ) ) ) ) ) ) ) ) ) ) ) ) ) ) ) ) ) ) ) ) ) ) ) ' . ",
". ! ~ ~ ~ ~ ~ ~ ~ ~ ~ ~ ~ ~ ~ ~ ~ ~ ~ ~ ~ ~ ~ ~ ~ ~ ~ ~ ~ ~ ! . ",
". { ] ] ] ] ] ] ] ] ] ] ] ] ] ] ] ] ] ] ] ] ] ] ] ] ] ] ] ] { . ",
". ^ / / / / / / / / / / / / / / / / / / / / / / / / / / / / ^ . ",
". ( _ _ _ _ _ _ _ _ : < [ } | _ _ _ _ _ _ _ _ _ _ _ _ _ _ _ ( . ",
". 1 2 2 2 2 2 2 2 2 3 4 5 6 _ 2 2 2 2 2 2 2 2 2 2 2 2 2 2 2 1 . ",
". 7 8 8 8 8 8 8 8 9 0 a b c d 9 8 8 8 8 8 8 8 8 8 8 8 8 8 8 7 . ",
". e f f f f f f g h i j k l m h n f f f f f f f f f f f f f e . ",
". o p p p p p p q r s t u v w x y p p p p p p p p p p p p p o . ",
". z A A A A A B C D E F G H G I J K A A B L M K A A A A A A z . ",
". N O O O O O P Q R S T U U U V W N X Y Z `  ...+.O O O O O N . ",
". @.#.#.#.#.$.%.&.*.=.-.;.;.;.;.>.,.'.).!.~.{.].^./.#.#.#.#.@.. ",
". (._._._._.:.<.[.}.|.1.1.1.1.1.2.3.4.5.6.7.8.9.0.a._._._._.(.. ",
". b.c.c.c.d.e.f.g.h.i.j.j.j.j.j.j.k.l.m.n.o.p.q.r.s.t.c.c.c.b.. ",
". u.v.v.v.w.x.y.z.A.B.B.B.B.B.B.B.C.D.E.F.G.H.B.I.J.d.v.v.v.u.. ",
". K.$ $ L.M.N.O.P.Q.Q.Q.Q.Q.Q.Q.Q.R.S.O.T.U.Q.Q.V.W.X.Y.$ $ K.. ",
". Z.`. +.+++@+#+$+%+%+%+%+%+%+%+%+&+*+*+&+%+%+%+%+=+-+;+ +`.Z.. ",
". >+,+'+)+!+~+{+]+]+]+]+]+]+]+]+]+]+^+^+]+]+]+]+]+]+/+(+_+,+>+. ",
". :+<+[+}+|+1+2+3+3+3+3+3+3+3+3+3+3+3+3+3+3+3+3+3+3+4+5+6+<+:+. ",
". 7+8+9+0+a+b+c+c+c+c+c+c+c+c+c+c+c+c+c+c+c+c+c+c+c+c+d+e+8+7+. ",
". e+f+g+e+h+h+h+h+h+h+h+h+h+h+h+h+h+h+h+h+h+h+h+h+h+h+e+g+f+e+. ",
". i+j+j+j+j+j+j+j+j+j+j+j+j+j+j+j+j+j+j+j+j+j+j+j+j+j+j+j+j+i+. ",
". k+l+l+l+l+l+l+l+l+l+l+l+l+l+l+l+l+l+l+l+l+l+l+l+l+l+l+l+l+k+. ",
". m+n+n+n+n+n+n+n+n+n+n+n+n+n+n+n+n+n+n+n+n+n+n+n+n+n+n+n+n+m+. ",
". o+p+q+q+q+q+q+q+q+q+q+q+q+q+q+q+q+q+q+q+q+q+q+q+q+q+q+q+p+r+. ",
". s+r+t+u+u+u+u+u+u+u+u+u+u+u+u+u+u+u+u+u+u+u+u+u+u+u+u+t+r+s+. ",
"  . v+w+o+o+o+o+o+o+o+o+o+o+o+o+o+o+o+o+o+o+o+o+o+o+o+o+w+v+.   ",
"    . . . . . . . . . . . . . . . . . . . . . . . . . . . .     "};
