/* XPM */
static char * ico_clip_16x16_xpm[] = {
"16 16 118 2",
"  	c None",
". 	c #AEB7C5",
"+ 	c #DAE1EA",
"@ 	c #F1F6FD",
"# 	c #F2F7FD",
"$ 	c #F4F8FD",
"% 	c #F3F7FD",
"& 	c #DCE3EB",
"* 	c #EEF5FC",
"= 	c #EAF2FB",
"- 	c #EEF4FC",
"; 	c #00477D",
"> 	c #004C85",
", 	c #EBF3FB",
"' 	c #EFF5FC",
") 	c #F0F6FC",
"! 	c #EDF3F9",
"~ 	c #ECF2F9",
"{ 	c #F1F6FA",
"] 	c #034E87",
"^ 	c #035C9F",
"/ 	c #EFF4FA",
"( 	c #034A7F",
"_ 	c #EDF3F7",
": 	c #064C82",
"< 	c #06518A",
"[ 	c #075B9A",
"} 	c #0869B3",
"| 	c #07538E",
"1 	c #ECF2F7",
"2 	c #E6EDF5",
"3 	c #E9F0F6",
"4 	c #EBF0F6",
"5 	c #0B558D",
"6 	c #0E64A7",
"7 	c #0F6EB8",
"8 	c #1073C0",
"9 	c #0F6CB4",
"0 	c #E8EEF5",
"a 	c #E0E8F2",
"b 	c #E6EDF4",
"c 	c #E5EAF2",
"d 	c #E3E9F1",
"e 	c #EBF0F4",
"f 	c #1573BD",
"g 	c #1678C5",
"h 	c #E7ECF3",
"i 	c #EDF1F5",
"j 	c #177BCA",
"k 	c #E5EBF2",
"l 	c #DCE4EF",
"m 	c #DFE6EE",
"n 	c #D7E0EB",
"o 	c #E1E8EF",
"p 	c #1968A7",
"q 	c #1D78C2",
"r 	c #E4EAF0",
"s 	c #18629E",
"t 	c #EBEFF2",
"u 	c #1C76BE",
"v 	c #1E7ECB",
"w 	c #D3DCE7",
"x 	c #DEE5EC",
"y 	c #1D649E",
"z 	c #247BC4",
"A 	c #E9EDF0",
"B 	c #1E67A3",
"C 	c #E1E7ED",
"D 	c #206FB0",
"E 	c #247EC8",
"F 	c #D8DFE8",
"G 	c #CED7E4",
"H 	c #DAE1E9",
"I 	c #2368A3",
"J 	c #2B81CA",
"K 	c #2C84CE",
"L 	c #E6EBEE",
"M 	c #DDE4EA",
"N 	c #E3E8ED",
"O 	c #246BA8",
"P 	c #D7DFE8",
"Q 	c #D5DCE5",
"R 	c #CAD3E0",
"S 	c #D7DEE6",
"T 	c #296CA7",
"U 	c #3286CF",
"V 	c #3690DE",
"W 	c #2D79BB",
"X 	c #2A70AD",
"Y 	c #2C76B6",
"Z 	c #3389D4",
"` 	c #DDE3E9",
" .	c #D1D9E2",
"..	c #C6CFDD",
"+.	c #D1D8E2",
"@.	c #2E70AB",
"#.	c #398BD4",
"$.	c #3E98E8",
"%.	c #3D94E3",
"&.	c #3A8ED9",
"*.	c #DAE0E6",
"=.	c #CED6E0",
"-.	c #C2CCDA",
";.	c #C6CFDC",
">.	c #CDD6DF",
",.	c #D1D9E1",
"'.	c #DDE2E6",
").	c #4093DD",
"!.	c #4399E7",
"~.	c #CCD3DD",
"{.	c #BFC8D7",
"].	c #CBD2DD",
"^.	c #3B81C2",
"/.	c #4596E1",
"(.	c #C1C9D4",
"_.	c #C9D1DA",
":.	c #CCD4DC",
"<.	c #D3DADF",
"  . . . . . . . . . . . . . .   ",
". + @ # $ $ # @ @ @ @ @ # % & . ",
". * = - ; > - = = = = , ' ; ) . ",
". ! ~ { ] ^ { ! ! ! ! / ( ! ! . ",
". _ : < [ } } [ | | | | 1 2 3 . ",
". 4 5 6 7 8 8 7 9 9 9 9 0 a b . ",
". c d e f g e h i f g j k l d . ",
". m n o p q r o s t u v o n m . ",
". & w x y z A B x C D E x w & . ",
". F G H I J K L M N O J N P H . ",
". Q R S T U V U W X Y Z Z Y ` . ",
".  ...+.@.#.$.%.&.#.&.%.%.&.*.. ",
". =.-.;.>.,.,.,.,.'.).!.'.>.,.. ",
". ~.{.{.{.{.{.{.{.].^./.].{.~.. ",
". (._._._._._._._.:.<.<.:._.(.. ",
"  . . . . . . . . . . . . . .   "};
