/* XPM */
static char * ico_replace_16x16_xpm[] = {
"16 16 135 2",
"  	c None",
". 	c #AEB7C5",
"+ 	c #DAE1EA",
"@ 	c #F1F6FD",
"# 	c #EEF5FC",
"$ 	c #EAF2FB",
"% 	c #EBF2FB",
"& 	c #ECF4FB",
"* 	c #EFF5FC",
"= 	c #EEF4FC",
"- 	c #EFF6FC",
"; 	c #ECF2F9",
"> 	c #E7EFF8",
", 	c #E8F0F8",
"' 	c #83A6C0",
") 	c #004980",
"! 	c #004D86",
"~ 	c #004E88",
"{ 	c #F0F4FA",
"] 	c #E9F0F6",
"^ 	c #E4ECF5",
"/ 	c #E6EEF6",
"( 	c #CFDCE8",
"_ 	c #DDE6EE",
": 	c #77A2C2",
"< 	c #065EA1",
"[ 	c #0664AB",
"} 	c #0665AE",
"| 	c #EFF4F8",
"1 	c #E6EDF4",
"2 	c #E0E8F2",
"3 	c #E2EAF3",
"4 	c #CDDAE7",
"5 	c #42779D",
"6 	c #B7CBD9",
"7 	c #24689D",
"8 	c #136BAF",
"9 	c #1073C0",
"0 	c #1076C5",
"a 	c #ECF2F6",
"b 	c #E4EAF1",
"c 	c #DEE5F0",
"d 	c #DDE5EF",
"e 	c #DFE6F0",
"f 	c #CEDAE6",
"g 	c #457AA0",
"h 	c #B6CAD9",
"i 	c #2A6797",
"j 	c #15629F",
"k 	c #1872BA",
"l 	c #1C7DCA",
"m 	c #1B7ECD",
"n 	c #EAEFF4",
"o 	c #E3E9EF",
"p 	c #8BAAC3",
"q 	c #E1E7EF",
"r 	c #CCD9E4",
"s 	c #497CA3",
"t 	c #B8CCDA",
"u 	c #346E9E",
"v 	c #1E68A4",
"w 	c #2378BE",
"x 	c #2683D0",
"y 	c #3C91D7",
"z 	c #80B6E2",
"A 	c #2684D1",
"B 	c #E6EBF1",
"C 	c #E3E9EE",
"D 	c #175A91",
"E 	c #85AAC7",
"F 	c #467FAC",
"G 	c #B3C7D8",
"H 	c #3B73A3",
"I 	c #276EAB",
"J 	c #2D80C7",
"K 	c #328CDA",
"L 	c #4699E1",
"M 	c #CADCEB",
"N 	c #DFE5EC",
"O 	c #8BB6DA",
"P 	c #E0E6ED",
"Q 	c #E2E7EC",
"R 	c #20659F",
"S 	c #73A4CD",
"T 	c #B6CCDF",
"U 	c #C7D4E0",
"V 	c #437DB0",
"W 	c #3583C8",
"X 	c #3C93E1",
"Y 	c #50A0E8",
"Z 	c #C8D9EA",
"` 	c #D2DBE6",
" .	c #D0D9E5",
"..	c #D1D9E5",
"+.	c #D9E0E9",
"@.	c #E0E5EA",
"#.	c #296CA7",
"$.	c #DCE2E8",
"%.	c #CDD6E1",
"&.	c #CFD8E2",
"*.	c #C8D5E0",
"=.	c #5295D2",
"-.	c #55A2E8",
";.	c #C7D8E8",
">.	c #CFD7E2",
",.	c #CAD3E0",
"'.	c #D5DCE5",
").	c #DDE3E8",
"!.	c #2F72AD",
"~.	c #DFE4E8",
"{.	c #D4DBE3",
"].	c #D6DCE4",
"^.	c #C7D4E1",
"/.	c #C0D0E2",
"(.	c #CBD3DF",
"_.	c #C6CFDD",
":.	c #D1D9E2",
"<.	c #D7DEE4",
"[.	c #3576B1",
"}.	c #3D88CB",
"|.	c #3A81C1",
"1.	c #3777B1",
"2.	c #93B1CC",
"3.	c #C6D0DC",
"4.	c #C2CCDA",
"5.	c #CED6E0",
"6.	c #CFD6DF",
"7.	c #CBD2DD",
"8.	c #CDD4DD",
"9.	c #C6CEDA",
"0.	c #C1CAD8",
"a.	c #BFC8D7",
"b.	c #CCD3DD",
"c.	c #C1C9D4",
"d.	c #C9D1DA",
"  . . . . . . . . . . . . . .   ",
". + @ @ @ @ @ @ @ @ @ @ @ @ + . ",
". # $ $ $ $ $ % & * * * * = - . ",
". ; > > > > > , ' ) ! ~ ~ ~ { . ",
". ] ^ ^ ^ ^ / ( _ : < [ } } | . ",
". 1 2 2 2 3 4 5 6 7 8 9 0 0 a . ",
". b c d e f g h i j k l m m n . ",
". o p q r s t u v w x y z A B . ",
". C D E F G H I J K L M N O P . ",
". Q R S T U V W X Y Z `  ...+.. ",
". @.#.$.%.&.*.=.-.;.>.,.,.,.'.. ",
". ).!.~.{.{.].^./.(._._._._.:.. ",
". <.[.}.|.[.1.2.3.4.4.4.4.4.5.. ",
". 6.7.6.6.6.8.9.0.a.a.a.a.a.b.. ",
". c.d.d.d.d.d.d.d.d.d.d.d.d.c.. ",
"  . . . . . . . . . . . . . .   "};
