/* XPM */
static char * ico_nine_16x16_xpm[] = {
"16 16 106 2",
"  	c None",
". 	c #496E93",
"+ 	c #3E6993",
"@ 	c #406C97",
"# 	c #406C98",
"$ 	c #3B6BA0",
"% 	c #AEB7C5",
"& 	c #376597",
"* 	c #3E6994",
"= 	c #4D759C",
"- 	c #436990",
"; 	c #5481AC",
"> 	c #6799C8",
", 	c #6CA1D2",
"' 	c #6EA3D5",
") 	c #5B91CB",
"! 	c #F1F6FD",
"~ 	c #4A79AB",
"{ 	c #6697C5",
"] 	c #6298CA",
"^ 	c #4F81B2",
"/ 	c #679ACA",
"( 	c #71AAE1",
"_ 	c #75AFE7",
": 	c #75B0E8",
"< 	c #609BD8",
"[ 	c #EAF2FB",
"} 	c #4A7AAD",
"| 	c #6BA1D4",
"1 	c #77B1E8",
"2 	c #548EC8",
"3 	c #6BA0D2",
"4 	c #73AEE6",
"5 	c #73AFE7",
"6 	c #5E9AD7",
"7 	c #E7EFF8",
"8 	c #69A0D3",
"9 	c #76B0E7",
"0 	c #5792CD",
"a 	c #6AA0D2",
"b 	c #72ADE5",
"c 	c #5E98D6",
"d 	c #E4ECF5",
"e 	c #4979AC",
"f 	c #689ED1",
"g 	c #74AFE6",
"h 	c #5793CE",
"i 	c #578FC8",
"j 	c #5C97D5",
"k 	c #ABC2DF",
"l 	c #4878AB",
"m 	c #558DC7",
"n 	c #5E99D6",
"o 	c #4B86C6",
"p 	c #E3E9F1",
"q 	c #DCE4EF",
"r 	c #A8BFDD",
"s 	c #DFE6EE",
"t 	c #D7E0EB",
"u 	c #A4BCDA",
"v 	c #DCE3EB",
"w 	c #D3DCE7",
"x 	c #A1B9D7",
"y 	c #D8DFE8",
"z 	c #CED7E4",
"A 	c #9EB6D5",
"B 	c #4372A5",
"C 	c #4273A6",
"D 	c #9BB3D2",
"E 	c #3E6C9D",
"F 	c #4071A4",
"G 	c #4575A8",
"H 	c #588BBA",
"I 	c #5A91C6",
"J 	c #4D85C0",
"K 	c #C6CFDD",
"L 	c #406FA3",
"M 	c #5487B8",
"N 	c #5F96C9",
"O 	c #4F86BC",
"P 	c #5E94C8",
"Q 	c #619DD8",
"R 	c #528DCD",
"S 	c #C2CCDA",
"T 	c #4071A5",
"U 	c #598FC5",
"V 	c #67A2DB",
"W 	c #5D93C6",
"X 	c #5F9BD6",
"Y 	c #518CCB",
"Z 	c #BFC8D7",
"` 	c #3F6FA4",
" .	c #578EC4",
"..	c #66A1D9",
"+.	c #46729B",
"@.	c #578EC2",
"#.	c #649FD7",
"$.	c #64A0D8",
"%.	c #548FCD",
"&.	c #C9D1DA",
"*.	c #4272A5",
"=.	c #5B92C5",
"-.	c #609CD5",
";.	c #5B94CC",
">.	c #5082B4",
",.	c #5590C9",
"  . + @ # $ % % % % & * # # =   ",
"- ; > , ' ) ! ! ! ! ~ { ' ' ] ^ ",
"* / ( _ : < [ [ [ [ } | : : 1 2 ",
"# 3 4 5 5 6 7 7 7 7 } 8 5 5 9 0 ",
"# a b b b c d d d d e f b b g h ",
"$ i j j j j k k k k l m j j n o ",
"% p q q q r q q q q r q q q p % ",
"% s t t t u t t t t u t t t s % ",
"% v w w w x w w w w x w w w v % ",
"% y z z z A z z z z A z z z y % ",
"& B C C C C D D D D E F C C G $ ",
"* H I I I J K K K K L M I I N O ",
"# P Q Q Q R S S S S T U Q Q V h ",
"# W X X X Y Z Z Z Z `  .X X ..h ",
"+.@.#.$.$.%.&.&.&.&.*.=.$.$.-.;.",
"  >.,.0 h o % % % % $ O h h ;.  "};
