/* XPM */
static char * ico_slice_xpm[] = {
"16 16 146 2",
"  	c None",
". 	c #8AA0C3",
"+ 	c #CDD9E9",
"@ 	c #F0F6FD",
"# 	c #F1F6FD",
"$ 	c #F1F7FD",
"% 	c #CEDAE9",
"& 	c #EDF4FC",
"* 	c #E9F1FB",
"= 	c #EBF2FB",
"- 	c #D3E0EC",
"; 	c #618CAD",
"> 	c #AFC6D8",
", 	c #EFF5FC",
"' 	c #EAF1FA",
") 	c #E5EEF9",
"! 	c #E7EFF9",
"~ 	c #D1E0EB",
"{ 	c #1F5C8A",
"] 	c #03497E",
"^ 	c #0E5387",
"/ 	c #E4ECF5",
"( 	c #8CA1C4",
"_ 	c #E7EEF7",
": 	c #E1EAF6",
"< 	c #E2EBF6",
"[ 	c #E4ECF7",
"} 	c #E5ECF7",
"| 	c #E5EDF7",
"1 	c #D0DDEA",
"2 	c #225F8D",
"3 	c #074E84",
"4 	c #075591",
"5 	c #0B5E9C",
"6 	c #CFDEEB",
"7 	c #8CA2C4",
"8 	c #E3EBF5",
"9 	c #DCE6F3",
"0 	c #DEE8F4",
"a 	c #81A3C0",
"b 	c #5A87AB",
"c 	c #CFDDE8",
"d 	c #276190",
"e 	c #0C5187",
"f 	c #0E5B97",
"g 	c #136BAF",
"h 	c #A1C5E2",
"i 	c #E6EDF6",
"j 	c #8BA1C3",
"k 	c #DFE7F2",
"l 	c #D7E1F0",
"m 	c #D9E2F0",
"n 	c #CEDBE9",
"o 	c #336E9D",
"p 	c #1A5B91",
"q 	c #12578E",
"r 	c #14609D",
"s 	c #1971B7",
"t 	c #A2C6E5",
"u 	c #DDE5F2",
"v 	c #E0E8F2",
"w 	c #DAE4EF",
"x 	c #D1DDEC",
"y 	c #D3DFED",
"z 	c #DEE7F0",
"A 	c #6393BB",
"B 	c #1C69A7",
"C 	c #1D6CAC",
"D 	c #2176BC",
"E 	c #A1C7E5",
"F 	c #D8E2EE",
"G 	c #D2DEEC",
"H 	c #D6E0EC",
"I 	c #CCD8E9",
"J 	c #CEDAEA",
"K 	c #D7E1ED",
"L 	c #6892B5",
"M 	c #2067A2",
"N 	c #5091C8",
"O 	c #4591D1",
"P 	c #569EDB",
"Q 	c #DBE4EE",
"R 	c #CFDAEA",
"S 	c #D1DCEA",
"T 	c #C6D3E6",
"U 	c #C8D5E7",
"V 	c #D3DDEA",
"W 	c #6B92B5",
"X 	c #236195",
"Y 	c #276DA8",
"Z 	c #438DCC",
"` 	c #D2E0EE",
" .	c #4E9CDF",
"..	c #6FA9DC",
"+.	c #CCD7E8",
"@.	c #CDD9E6",
"#.	c #C3D1E3",
"$.	c #CFDAE7",
"%.	c #6D94B7",
"&.	c #286499",
"*.	c #2C6EA8",
"=.	c #337FC3",
"-.	c #388DD8",
";.	c #C6D6E7",
">.	c #C1D3E5",
",.	c #A0C0DF",
"'.	c #C6D3E4",
").	c #C1CFE2",
"!.	c #CBD7E5",
"~.	c #CAD5E4",
"{.	c #6F95B8",
"].	c #2D679C",
"^.	c #3272AC",
"/.	c #5092CC",
"(.	c #8EBCE5",
"_.	c #B9CFE6",
":.	c #C3CFE1",
"<.	c #BECCE0",
"[.	c #BFCCE0",
"}.	c #BDCBDF",
"|.	c #BCCADF",
"1.	c #C9D5E4",
"2.	c #CAD5E3",
"3.	c #7197BA",
"4.	c #4579A9",
"5.	c #85AACB",
"6.	c #B5CBE0",
"7.	c #C7D3E2",
"8.	c #C0CDDF",
"9.	c #BBC9DD",
"0.	c #B8C7DC",
"a.	c #B7C6DC",
"b.	c #C5D1E1",
"c.	c #C5D1E0",
"d.	c #ADC0D6",
"e.	c #C2CEDE",
"f.	c #BDCADD",
"g.	c #B7C5DB",
"h.	c #B4C3D9",
"i.	c #B3C2D9",
"j.	c #C2CEDF",
"k.	c #B0C0D5",
"l.	c #C0CDDD",
"m.	c #C0CCDD",
"n.	c #BFCCDD",
"o.	c #AFBFD5",
"  . . . . . . . . . . . . . .   ",
". + @ @ @ @ @ @ @ @ @ # $ $ % . ",
". & * * * * * * * * = - ; > , . ",
". ' ) ) ) ) ) ) ) ! ~ { ] ^ / ( ",
". _ : : : < [ } | 1 2 3 4 5 6 7 ",
". 8 9 9 9 0 a b c d e f g h i j ",
". k l l l m n o p q r s t u v . ",
". w x x x y z A B C D E F G w . ",
". H I I J K L M N O P Q R I H . ",
". S T U V W X Y Z `  ...+.T S . ",
". @.#.$.%.&.*.=.-.;.>.,.'.).@.. ",
". !.~.{.].^./.(._.:.<.[.}.|.1.. ",
". 2.3.4.5.6.7.8.9.0.a.a.a.a.b.. ",
". c.d.e.f.g.h.i.i.i.i.i.i.i.j.. ",
". k.l.m.n.n.n.n.n.n.n.n.n.n.o.. ",
"  . . . . . . . . . . . . . .   "};
