/* XPM */
static char * ico_open_16x16_xpm[] = {
"16 16 103 2",
"  	c None",
". 	c #AEB7C5",
"+ 	c #DAE1EA",
"@ 	c #F1F6FD",
"# 	c #EEF5FC",
"$ 	c #EAF2FB",
"% 	c #ECF3FB",
"& 	c #EFF5FC",
"* 	c #EDF4FB",
"= 	c #EFF6FC",
"- 	c #ECF2F9",
"; 	c #E7EFF8",
"> 	c #E8F0F8",
", 	c #B7D4EB",
"' 	c #1174C0",
") 	c #066EBD",
"! 	c #3B8DCB",
"~ 	c #EFF4FA",
"{ 	c #EAF1F6",
"] 	c #E8EFF6",
"^ 	c #EBF1F7",
"/ 	c #BDD8EC",
"( 	c #8EBEDF",
"_ 	c #8FBEE0",
": 	c #8EBDE0",
"< 	c #87B9DF",
"[ 	c #78B1DC",
"} 	c #61A4D7",
"| 	c #0E74C3",
"1 	c #197AC6",
"2 	c #EEF3F8",
"3 	c #EAF0F5",
"4 	c #4995CF",
"5 	c #0870BF",
"6 	c #1075C1",
"7 	c #ACCDE7",
"8 	c #E1EBF4",
"9 	c #177BCA",
"0 	c #4896D4",
"a 	c #EBF1F6",
"b 	c #E9EEF3",
"c 	c #2582CB",
"d 	c #1378C7",
"e 	c #75AFDC",
"f 	c #DFE9F1",
"g 	c #2283D2",
"h 	c #6FADDF",
"i 	c #E7ECF3",
"j 	c #E6EBF1",
"k 	c #4495D7",
"l 	c #2082D1",
"m 	c #68A9DD",
"n 	c #DEE8F0",
"o 	c #2C8BDB",
"p 	c #93C1E7",
"q 	c #E3E9EF",
"r 	c #E2E8EE",
"s 	c #63A8E2",
"t 	c #2E8CDC",
"u 	c #5CA4E1",
"v 	c #DDE7EE",
"w 	c #3793E3",
"x 	c #B1D0EB",
"y 	c #DFE5EC",
"z 	c #DEE4EB",
"A 	c #7EB7E9",
"B 	c #3B96E6",
"C 	c #53A2E7",
"D 	c #DCE5ED",
"E 	c #409AEA",
"F 	c #CADAEA",
"G 	c #D9E0E9",
"H 	c #DAE0E7",
"I 	c #94C3ED",
"J 	c #469EEE",
"K 	c #4CA1EE",
"L 	c #D9E1EA",
"M 	c #4DA2F0",
"N 	c #D4DCE5",
"O 	c #D5DCE5",
"P 	c #D4DBE3",
"Q 	c #B4CFE9",
"R 	c #59A9F3",
"S 	c #4EA4F4",
"T 	c #78B7F1",
"U 	c #D0D9E4",
"V 	c #AECAE7",
"W 	c #CCD4DF",
"X 	c #D1D9E2",
"Y 	c #CFD7E0",
"Z 	c #C8D1DD",
"` 	c #CED6DF",
" .	c #D1D9E1",
"..	c #D0D8E0",
"+.	c #CBD4DE",
"@.	c #C6CFDC",
"#.	c #C4CEDB",
"$.	c #C3CDDB",
"%.	c #CED6E0",
"&.	c #CCD3DD",
"*.	c #BFC8D7",
"=.	c #C1C9D4",
"-.	c #C9D1DA",
"  . . . . . . . . . . . . . .   ",
". + @ @ @ @ @ @ @ @ @ @ @ @ + . ",
". # $ $ % # & & & & & & & * = . ",
". - ; > , ' ) ) ) ) ) ) ) ! ~ . ",
". { ] ^ / ( _ _ : < [ } | 1 2 . ",
". 3 4 5 5 5 5 5 5 6 7 8 9 0 a . ",
". b c d d d d d d d e f g h i . ",
". j k l l l l l l l m n o p q . ",
". r s t t t t t t t u v w x y . ",
". z A B B B B B B B C D E F G . ",
". H I J J J J J J J K L M N O . ",
". P Q R S S S S S S T U V W X . ",
". Y Z `  . . . . ...+.@.#.$.%.. ",
". &.*.*.*.*.*.*.*.*.*.*.*.*.&.. ",
". =.-.-.-.-.-.-.-.-.-.-.-.-.=.. ",
"  . . . . . . . . . . . . . .   "};
