/* XPM */
static char * ico_nine_32x32_xpm[] = {
"32 32 216 2",
"  	c None",
". 	c #406893",
"+ 	c #366493",
"@ 	c #326295",
"# 	c #336497",
"$ 	c #32669F",
"% 	c #8AA0C3",
"& 	c #2F5F96",
"* 	c #326193",
"= 	c #38689A",
"- 	c #426D9C",
"; 	c #325F8E",
"> 	c #4878A7",
", 	c #6091C1",
"' 	c #6B9FD0",
") 	c #6DA3D5",
"! 	c #6EA4D6",
"~ 	c #5B92CB",
"{ 	c #F1F7FE",
"] 	c #4A79AB",
"^ 	c #6698C6",
"/ 	c #699ED2",
"( 	c #558DC4",
"_ 	c #3D73AC",
": 	c #3F6794",
"< 	c #4A79A7",
"[ 	c #6A9DCE",
"} 	c #71AAE0",
"| 	c #75AFE6",
"1 	c #76B0E8",
"2 	c #76B1E9",
"3 	c #619BD9",
"4 	c #ECF4FD",
"5 	c #4B7AAE",
"6 	c #6CA2D5",
"7 	c #77B0E6",
"8 	c #5E9AD4",
"9 	c #487EB7",
"0 	c #346293",
"a 	c #6294C3",
"b 	c #72ABE1",
"c 	c #75B1E9",
"d 	c #609BD9",
"e 	c #EBF3FC",
"f 	c #4A7AAE",
"g 	c #6BA2D5",
"h 	c #75B0E7",
"i 	c #4483C6",
"j 	c #326296",
"k 	c #6A9ED0",
"l 	c #73AFE6",
"m 	c #74B0E8",
"n 	c #5F9BD8",
"o 	c #E9F1FB",
"p 	c #4A7AAD",
"q 	c #6AA1D4",
"r 	c #4486CB",
"s 	c #6BA1D3",
"t 	c #73AFE8",
"u 	c #5E9AD8",
"v 	c #E7F0FA",
"w 	c #69A0D4",
"x 	c #76B1E8",
"y 	c #4587CD",
"z 	c #6BA1D4",
"A 	c #72AEE7",
"B 	c #5E99D7",
"C 	c #E5EEF9",
"D 	c #4979AD",
"E 	c #689FD3",
"F 	c #75B0E8",
"G 	c #6AA0D3",
"H 	c #71ADE6",
"I 	c #5D98D7",
"J 	c #E3ECF7",
"K 	c #4879AD",
"L 	c #679ED2",
"M 	c #74AFE7",
"N 	c #699FD2",
"O 	c #70ACE6",
"P 	c #5C98D7",
"Q 	c #E1EAF6",
"R 	c #4878AD",
"S 	c #669DD2",
"T 	c #73AEE6",
"U 	c #689FD2",
"V 	c #6FABE5",
"W 	c #5C97D6",
"X 	c #DEE8F5",
"Y 	c #4778AC",
"Z 	c #659CD1",
"` 	c #72AEE6",
" .	c #568EC8",
"..	c #5B96D5",
"+.	c #4E88CB",
"@.	c #A8C0E0",
"#.	c #4073AD",
"$.	c #558CC7",
"%.	c #5D98D6",
"&.	c #3E7EC5",
"*.	c #E1E9F3",
"=.	c #D9E4F1",
"-.	c #A6BFDE",
";.	c #DFE7F2",
">.	c #D7E1F0",
",.	c #A4BDDE",
"'.	c #DDE5F1",
").	c #D4DFEE",
"!.	c #A2BBDC",
"~.	c #DAE4EF",
"{.	c #D1DDEC",
"].	c #A0BADB",
"^.	c #D9E1EE",
"/.	c #CFDAEB",
"(.	c #9FB8DA",
"_.	c #D6E0EC",
":.	c #CCD8E9",
"<.	c #9DB6D9",
"[.	c #D4DEEB",
"}.	c #C9D6E7",
"|.	c #9AB5D7",
"1.	c #D1DCEA",
"2.	c #C6D3E6",
"3.	c #98B3D7",
"4.	c #D0DAE8",
"5.	c #C4D1E4",
"6.	c #97B2D5",
"7.	c #CDD9E6",
"8.	c #C1CFE2",
"9.	c #95B0D4",
"0.	c #4071A5",
"a.	c #3F71A6",
"b.	c #3A6FAA",
"c.	c #93AED3",
"d.	c #376AA4",
"e.	c #3E6FA4",
"f.	c #4273A8",
"g.	c #5589BB",
"h.	c #568FC7",
"i.	c #4A84C1",
"j.	c #BCCADF",
"k.	c #3D6EA3",
"l.	c #5084B9",
"m.	c #5B94CA",
"n.	c #3F7BBB",
"o.	c #5A93C9",
"p.	c #5C9BD9",
"q.	c #4E8CCE",
"r.	c #B9C8DD",
"s.	c #3E6FA6",
"t.	c #548EC6",
"u.	c #63A1DC",
"v.	c #5A92C8",
"w.	c #5B9AD9",
"x.	c #4E8BCE",
"y.	c #B7C6DC",
"z.	c #3D6FA6",
"A.	c #538DC6",
"B.	c #62A0DB",
"C.	c #5A91C8",
"D.	c #5A99D8",
"E.	c #4D8BCD",
"F.	c #B5C4DB",
"G.	c #3C6FA5",
"H.	c #528CC5",
"I.	c #629FDB",
"J.	c #5990C7",
"K.	c #5998D7",
"L.	c #4C8ACC",
"M.	c #B3C2D9",
"N.	c #3C6EA5",
"O.	c #518BC4",
"P.	c #619EDA",
"Q.	c #5890C7",
"R.	c #5897D7",
"S.	c #4C89CC",
"T.	c #B1C0D8",
"U.	c #3C6DA5",
"V.	c #508AC4",
"W.	c #609EDA",
"X.	c #366698",
"Y.	c #568EC5",
"Z.	c #5797D6",
"`.	c #4B89CB",
" +	c #AFBFD7",
".+	c #3B6DA4",
"++	c #4F8AC4",
"@+	c #5E9CD9",
"#+	c #4688CD",
"$+	c #416D9D",
"%+	c #4A83BE",
"&+	c #5D9BD7",
"*+	c #5897D6",
"=+	c #5696D6",
"-+	c #4A88CB",
";+	c #ADBDD6",
">+	c #3A6DA4",
",+	c #4F89C4",
"'+	c #5393D4",
")+	c #4E8ACA",
"!+	c #3E74AE",
"~+	c #4F8DCC",
"{+	c #5B9AD7",
"]+	c #5E9CD8",
"^+	c #508DCD",
"/+	c #BCC9DB",
"(+	c #3E70A5",
"_+	c #568FC5",
":+	c #5292D3",
"<+	c #4788CC",
"[+	c #497EB7",
"}+	c #4584C5",
"|+	c #4485CB",
"1+	c #4586CC",
"2+	c #4887CB",
"3+	c #4E8AC9",
"    . + @ # # # # # $ % % % % % % % % % % & * # # # # # = -     ",
"  ; > , ' ) ! ! ! ! ~ { { { { { { { { { { ] ^ ! ! ! ! ! / ( _   ",
": < [ } | 1 2 2 2 2 3 4 4 4 4 4 4 4 4 4 4 5 6 2 2 2 2 2 1 7 8 9 ",
"0 a b c c c c c c c d e e e e e e e e e e f g c c c c c c 2 h i ",
"j k l m m m m m m m n o o o o o o o o o o p q m m m m m m m 2 r ",
"# s t t t t t t t t u v v v v v v v v v v p w t t t t t t t x y ",
"# z A A A A A A A A B C C C C C C C C C C D E A A A A A A A F y ",
"# G H H H H H H H H I J J J J J J J J J J K L H H H H H H H M y ",
"# N O O O O O O O O P Q Q Q Q Q Q Q Q Q Q R S O O O O O O O T y ",
"# U V V V V V V V V W X X X X X X X X X X Y Z V V V V V V V ` y ",
"$  .................+.@.@.@.@.@.@.@.@.@.@.#.$...............%.&.",
"% *.=.=.=.=.=.=.=.=.-.=.=.=.=.=.=.=.=.=.=.-.=.=.=.=.=.=.=.=.*.% ",
"% ;.>.>.>.>.>.>.>.>.,.>.>.>.>.>.>.>.>.>.>.,.>.>.>.>.>.>.>.>.;.% ",
"% '.).).).).).).).).!.).).).).).).).).).).!.).).).).).).).).'.% ",
"% ~.{.{.{.{.{.{.{.{.].{.{.{.{.{.{.{.{.{.{.].{.{.{.{.{.{.{.{.~.% ",
"% ^././././././././.(././././././././././.(././././././././.^.% ",
"% _.:.:.:.:.:.:.:.:.<.:.:.:.:.:.:.:.:.:.:.<.:.:.:.:.:.:.:.:._.% ",
"% [.}.}.}.}.}.}.}.}.|.}.}.}.}.}.}.}.}.}.}.|.}.}.}.}.}.}.}.}.[.% ",
"% 1.2.2.2.2.2.2.2.2.3.2.2.2.2.2.2.2.2.2.2.3.2.2.2.2.2.2.2.2.1.% ",
"% 4.5.5.5.5.5.5.5.5.6.5.5.5.5.5.5.5.5.5.5.6.5.5.5.5.5.5.5.5.4.% ",
"% 7.8.8.8.8.8.8.8.8.9.8.8.8.8.8.8.8.8.8.8.9.8.8.8.8.8.8.8.8.7.% ",
"& 0.a.a.a.a.a.a.a.a.b.c.c.c.c.c.c.c.c.c.c.d.e.a.a.a.a.a.a.a.f.$ ",
"* g.h.h.h.h.h.h.h.h.i.j.j.j.j.j.j.j.j.j.j.k.l.h.h.h.h.h.h.h.m.n.",
"# o.p.p.p.p.p.p.p.p.q.r.r.r.r.r.r.r.r.r.r.s.t.p.p.p.p.p.p.p.u.y ",
"# v.w.w.w.w.w.w.w.w.x.y.y.y.y.y.y.y.y.y.y.z.A.w.w.w.w.w.w.w.B.y ",
"# C.D.D.D.D.D.D.D.D.E.F.F.F.F.F.F.F.F.F.F.G.H.D.D.D.D.D.D.D.I.y ",
"# J.K.K.K.K.K.K.K.K.L.M.M.M.M.M.M.M.M.M.M.N.O.K.K.K.K.K.K.K.P.y ",
"# Q.R.R.R.R.R.R.R.R.S.T.T.T.T.T.T.T.T.T.T.U.V.R.R.R.R.R.R.R.W.y ",
"X.Y.K.Z.Z.Z.Z.Z.Z.Z.`. + + + + + + + + + +.+++Z.Z.Z.Z.Z.Z.K.@+#+",
"$+%+&+*+=+=+=+=+=+=+-+;+;+;+;+;+;+;+;+;+;+>+,+=+=+=+=+=+*+@+'+)+",
"  !+~+{+]+]+]+]+]+]+^+/+/+/+/+/+/+/+/+/+/+(+_+]+]+]+]+]+{+:+<+  ",
"    [+}+|+1+y y y y &.% % % % % % % % % % $ n.y y y y y 2+3+    "};
