/* XPM */
static char * ico_save_32x32_xpm[] = {
"32 32 293 2",
"  	c None",
". 	c #8AA0C3",
"+ 	c #BFCDE2",
"@ 	c #E6EEF8",
"# 	c #F1F7FE",
"$ 	c #C4D1E4",
"% 	c #F0F6FD",
"& 	c #EDF4FD",
"* 	c #ECF4FD",
"= 	c #C5D2E4",
"- 	c #E9F0F9",
"; 	c #ECF3FC",
"> 	c #EBF3FC",
", 	c #EAF1F9",
"' 	c #EDF4FC",
") 	c #E9F1FB",
"! 	c #EBF2FB",
"~ 	c #EDF3FC",
"{ 	c #EEF4FC",
"] 	c #EFF5FC",
"^ 	c #ECF3FB",
"/ 	c #E7F0FA",
"( 	c #E9F1FA",
"_ 	c #B4CADB",
": 	c #336D99",
"< 	c #004C84",
"[ 	c #004E88",
"} 	c #3372A1",
"| 	c #B4CBDE",
"1 	c #EAF1FA",
"2 	c #E5EEF9",
"3 	c #18598C",
"4 	c #025290",
"5 	c #025CA1",
"6 	c #0261A9",
"7 	c #0262AB",
"8 	c #196BA9",
"9 	c #E9F0F8",
"0 	c #E3ECF7",
"a 	c #EAF1F8",
"b 	c #034E87",
"c 	c #035EA3",
"d 	c #046AB6",
"e 	c #046DBB",
"f 	c #046DBC",
"g 	c #EFF4FA",
"h 	c #E2ECF5",
"i 	c #0466B0",
"j 	c #046BB8",
"k 	c #E7EEF7",
"l 	c #E1EAF6",
"m 	c #E9EFF8",
"n 	c #05528D",
"o 	c #0665AE",
"p 	c #076FBE",
"q 	c #076FBF",
"r 	c #DCE7F2",
"s 	c #065A9B",
"t 	c #0768B3",
"u 	c #E5EDF6",
"v 	c #DEE8F5",
"w 	c #E6EEF7",
"x 	c #07548E",
"y 	c #0968B0",
"z 	c #0A72C1",
"A 	c #E4ECF6",
"B 	c #D8E3EF",
"C 	c #075591",
"D 	c #0969B1",
"E 	c #E3EBF5",
"F 	c #DCE6F3",
"G 	c #E5ECF5",
"H 	c #0A5691",
"I 	c #0D6AB3",
"J 	c #0E74C4",
"K 	c #7FB4DD",
"L 	c #EBF1F7",
"M 	c #E4EBF5",
"N 	c #DEE8F4",
"O 	c #7FB0D7",
"P 	c #0D6FBC",
"Q 	c #0E73C2",
"R 	c #E1E9F3",
"S 	c #D9E4F1",
"T 	c #E3EBF4",
"U 	c #0D5892",
"V 	c #106DB5",
"W 	c #1277C6",
"X 	c #1274C1",
"Y 	c #82B0D6",
"Z 	c #E0E9F3",
"` 	c #DAE5F1",
" .	c #83A9C6",
"..	c #0E5F9E",
"+.	c #106BB3",
"@.	c #DFE7F2",
"#.	c #D7E1F0",
"$.	c #105A94",
"%.	c #146FB8",
"&.	c #167AC9",
"*.	c #1679C7",
"=.	c #1572BC",
"-.	c #84AED0",
";.	c #DEE6F2",
">.	c #D8E2F0",
",.	c #82A5C0",
"'.	c #10578F",
").	c #1264A6",
"!.	c #DDE5F1",
"~.	c #D4DFEE",
"{.	c #DFE7F1",
"].	c #135C97",
"^.	c #1872BB",
"/.	c #1A7DCD",
"(.	c #1A7CCB",
"_.	c #1875BF",
":.	c #88B0D2",
"<.	c #DCE5F0",
"[.	c #D5E0EE",
"}.	c #86A6C2",
"|.	c #135992",
"1.	c #1566A8",
"2.	c #DAE4EF",
"3.	c #D1DDEC",
"4.	c #DDE6F0",
"5.	c #165E99",
"6.	c #1B75BE",
"7.	c #1E80D0",
"8.	c #1E7ECE",
"9.	c #1C77C2",
"0.	c #8BB2D2",
"a.	c #89A9C4",
"b.	c #155B94",
"c.	c #1969AA",
"d.	c #D9E1EE",
"e.	c #CFDAEB",
"f.	c #DBE3EF",
"g.	c #1A619C",
"h.	c #2079C1",
"i.	c #2384D3",
"j.	c #2382D1",
"k.	c #217BC4",
"l.	c #8FB5D5",
"m.	c #8DAFCB",
"n.	c #195F98",
"o.	c #1D6CAD",
"p.	c #D6E0EC",
"q.	c #CCD8E9",
"r.	c #D9E2ED",
"s.	c #1D649E",
"t.	c #247BC4",
"u.	c #2787D6",
"v.	c #2785D3",
"w.	c #247DC7",
"x.	c #2172B5",
"y.	c #D4DEEB",
"z.	c #C9D6E7",
"A.	c #D7E0EC",
"B.	c #2066A1",
"C.	c #277EC7",
"D.	c #2B8ADA",
"E.	c #2A88D7",
"F.	c #2985D2",
"G.	c #D1DCEA",
"H.	c #C6D3E6",
"I.	c #2369A3",
"J.	c #2C82CA",
"K.	c #308EDD",
"L.	c #D0DAE8",
"M.	c #D3DDE9",
"N.	c #266BA5",
"O.	c #3084CD",
"P.	c #3491E0",
"Q.	c #B5D1E9",
"R.	c #D5DEEA",
"S.	c #D6DFEA",
"T.	c #DCE4EC",
"U.	c #E0E7EE",
"V.	c #E1E8EE",
"W.	c #DEE5ED",
"X.	c #B4CEE6",
"Y.	c #3189D4",
"Z.	c #338FDC",
"`.	c #CDD9E6",
" +	c #C1CFE2",
".+	c #D1DBE8",
"++	c #296DA8",
"@+	c #3387D0",
"#+	c #3894E4",
"$+	c #D3DDE8",
"%+	c #C2D0E2",
"&+	c #CBD7E5",
"*+	c #598FBE",
"=+	c #2C75B5",
"-+	c #2E79BB",
";+	c #2E7ABC",
">+	c #5C95C8",
",+	c #2F7DC0",
"'+	c #358CD7",
")+	c #CBD6E5",
"!+	c #BECCE1",
"~+	c #CED9E7",
"{+	c #2C6FAA",
"]+	c #378AD3",
"^+	c #3C97E7",
"/+	c #CDD8E6",
"(+	c #2A6BA3",
"_+	c #317CBE",
":+	c #3688D0",
"<+	c #DDE5EC",
"[+	c #3079BA",
"}+	c #378BD4",
"|+	c #C9D5E4",
"1+	c #BCCADF",
"2+	c #CDD7E5",
"3+	c #2F72AC",
"4+	c #3A8DD5",
"5+	c #409AE9",
"6+	c #2F71AB",
"7+	c #3A8BD2",
"8+	c #4099E8",
"9+	c #DDE4EB",
"0+	c #347EBF",
"a+	c #C7D3E2",
"b+	c #B9C8DD",
"c+	c #CBD6E3",
"d+	c #3273AE",
"e+	c #3E8FD8",
"f+	c #449CEC",
"g+	c #DCE3E9",
"h+	c #3880C2",
"i+	c #C5D1E1",
"j+	c #B7C6DC",
"k+	c #C9D4E2",
"l+	c #3475AF",
"m+	c #4191D9",
"n+	c #479FEE",
"o+	c #C9D4E3",
"p+	c #DBE2E9",
"q+	c #3A83C4",
"r+	c #C4D0E0",
"s+	c #B5C4DB",
"t+	c #C3CFE0",
"u+	c #4882B8",
"v+	c #4392DB",
"w+	c #4AA0F0",
"x+	c #4AA1F1",
"y+	c #C8D3E2",
"z+	c #C6D2E1",
"A+	c #3777B2",
"B+	c #4493DC",
"C+	c #D9E0E8",
"D+	c #3D85C6",
"E+	c #59A7EF",
"F+	c #C2CEDF",
"G+	c #B3C2D9",
"H+	c #BAC8DC",
"I+	c #A3BCD4",
"J+	c #5096D5",
"K+	c #4A9FEC",
"L+	c #4CA2F1",
"M+	c #C1CDDE",
"N+	c #BFCBDD",
"O+	c #6595C0",
"P+	c #4593DA",
"Q+	c #4BA2F0",
"R+	c #4CA3F2",
"S+	c #73B4ED",
"T+	c #CDD7E3",
"U+	c #3E86C6",
"V+	c #4595DD",
"W+	c #59A8F0",
"X+	c #A9C8E6",
"Y+	c #B1C0D8",
"Z+	c #B3C1D9",
"`+	c #B8C6DB",
" @	c #C0CCDE",
".@	c #C4CFDF",
"+@	c #C0CCDD",
"@@	c #B6C4DA",
"#@	c #B5C3D9",
"$@	c #BDCADC",
"%@	c #C3CFDF",
"&@	c #C5D0DF",
"*@	c #BAC7DB",
"=@	c #BCC9DB",
"-@	c #B2C1D8",
";@	c #AFBFD7",
">@	c #A7B8D1",
",@	c #B1C0D7",
"'@	c #ADBDD6",
")@	c #A4B5CF",
"!@	c #B7C5D9",
"    . . . . . . . . . . . . . . . . . . . . . . . . . . . .     ",
"  . + @ # # # # # # # # # # # # # # # # # # # # # # # # @ + .   ",
". $ % & * * * * * * * * * * * * * * * * * * * * * * * * & % = . ",
". - ; > > > > > > > > > > > > > > > > > > > > > > > > > > ; , . ",
". ' ) ) ) ! ~ { ] ] ] ] ] ] ] ] ] ] ] ] ] ] ] ] { ~ ! ) ) ) ' . ",
". ^ / / ( _ : < [ [ [ [ [ [ [ [ [ [ [ [ [ [ [ [ [ } | ( / / ^ . ",
". 1 2 2 1 3 4 5 6 7 7 7 7 7 7 7 7 7 7 7 7 7 7 7 7 6 8 1 2 2 1 . ",
". 9 0 0 a b c d e f f f f g , , , , h i j f f f f e d a 0 0 9 . ",
". k l l m n o p q q q q q m l l l l r s t q q q q q p m l l k . ",
". u v v w x y z z z z z z A v v v v B C D z z z z z z w v v u . ",
". E F F G H I J J J K L M N F F F F N M L O P Q J J J G F F E . ",
". R S S T U V W W W X Y Z ` S S S S ` Z  ...+.X W W W T S S R . ",
". @.#.#.R $.%.&.&.&.*.=.-.;.>.#.#.>.;.,.'.).=.*.&.&.&.R #.#.@.. ",
". !.~.~.{.].^././././.(._.:.<.[.[.<.}.|.1._.(././././.{.~.~.!.. ",
". 2.3.3.4.5.6.7.7.7.7.7.8.9.0.2.2.a.b.c.9.8.7.7.7.7.7.4.3.3.2.. ",
". d.e.e.f.g.h.i.i.i.i.i.i.j.k.l.m.n.o.k.j.i.i.i.i.i.i.f.e.e.d.. ",
". p.q.q.r.s.t.u.u.u.u.u.u.u.v.w.x.x.w.v.u.u.u.u.u.u.u.r.q.q.p.. ",
". y.z.z.A.B.C.D.D.D.D.D.D.D.D.E.F.F.E.D.D.D.D.D.D.D.D.A.z.z.y.. ",
". G.H.H.y.I.J.K.K.K.K.K.K.K.K.K.K.K.K.K.K.K.K.K.K.K.K.y.H.H.G.. ",
". L.$ $ M.N.O.P.P.Q.R.M.M.M.M.M.S.T.U.V.U.W.X.Y.Z.P.P.M.$ $ L.. ",
". `. + +.+++@+#+#+$+%+ + + + + +&+*+=+-+;+>+T.,+'+#+#+.+ + +`.. ",
". )+!+!+~+{+]+^+^+~+!+!+!+!+!+!+/+(+_+:+]+:+<+[+}+^+^+~+!+!+)+. ",
". |+1+1+2+3+4+5+5+2+1+1+1+1+1+1+2+6+7+8+5+8+9+0+4+5+5+2+1+1+|+. ",
". a+b+b+c+d+e+f+f+c+b+b+b+b+b+b+c+d+e+f+f+f+g+h+e+f+f+c+b+b+a+. ",
". i+j+j+k+l+m+n+n+o+j+j+j+j+j+j+o+l+m+n+n+n+p+q+m+n+n+k+j+j+i+. ",
". r+s+s+t+u+v+w+x+y+s+s+s+s+s+s+z+A+B+x+x+x+C+D+B+x+E+t+s+s+r+. ",
". F+G+G+H+I+J+K+L+M+G+G+G+G+G+G+N+O+P+Q+R+S+T+U+V+W+X+H+G+G+F+. ",
". M+Y+Y+Z+`+ @.@+@@@Y+Y+Y+Y+Y+Y+#@$@%@&@%@$@*@+@.@ @`+Z+Y+Y+M+. ",
". =@-@;@;@;@;@;@;@;@;@;@;@;@;@;@;@;@;@;@;@;@;@;@;@;@;@;@;@-@$@. ",
". >@$@,@'@'@'@'@'@'@'@'@'@'@'@'@'@'@'@'@'@'@'@'@'@'@'@'@,@$@>@. ",
"  . )@!@=@=@=@=@=@=@=@=@=@=@=@=@=@=@=@=@=@=@=@=@=@=@=@=@!@)@.   ",
"    . . . . . . . . . . . . . . . . . . . . . . . . . . . .     "};
