/* XPM */
static char * ico_image_16x16_xpm[] = {
"16 16 100 2",
"  	c None",
". 	c #AEB7C5",
"+ 	c #DAE1EA",
"@ 	c #F1F6FD",
"# 	c #EEF5FC",
"$ 	c #EAF2FB",
"% 	c #ECF2F9",
"& 	c #E7EFF8",
"* 	c #E8F0F8",
"= 	c #E8EFF8",
"- 	c #E9F0F6",
"; 	c #E4ECF5",
"> 	c #E6EDF5",
", 	c #BFD1DF",
"' 	c #93B2C8",
") 	c #E8EFF6",
"! 	c #E6EDF4",
"~ 	c #E0E8F2",
"{ 	c #E1E9F2",
"] 	c #E7EDF4",
"^ 	c #3C729C",
"/ 	c #004E88",
"( 	c #B1C9DB",
"_ 	c #E3EAF3",
": 	c #E3E9F1",
"< 	c #DCE4EF",
"[ 	c #E0E7F0",
"} 	c #94B2C8",
"| 	c #06518B",
"1 	c #075FA3",
"2 	c #2475B3",
"3 	c #D8E2EC",
"4 	c #DFE6F0",
"5 	c #E0E7F1",
"6 	c #DEE5F0",
"7 	c #DFE6EE",
"8 	c #D8E1EB",
"9 	c #E1E8EF",
"0 	c #296696",
"a 	c #0F60A0",
"b 	c #1270BB",
"c 	c #1275C2",
"d 	c #71A5CD",
"e 	c #E3E9F0",
"f 	c #7A9FBC",
"g 	c #447AA3",
"h 	c #DCE3EB",
"i 	c #D9E1E9",
"j 	c #7EA1BD",
"k 	c #18609B",
"l 	c #1C73B9",
"m 	c #1F7FCD",
"n 	c #2081D0",
"o 	c #1E7CC7",
"p 	c #A8C6DC",
"q 	c #18629E",
"r 	c #1A68A7",
"s 	c #A6C3D9",
"t 	c #D7E0E9",
"u 	c #DAE1E9",
"v 	c #D1DAE4",
"w 	c #2C6B9F",
"x 	c #2673B5",
"y 	c #2C85D1",
"z 	c #2E8BDB",
"A 	c #2E8CDC",
"B 	c #4496DC",
"C 	c #3688CD",
"D 	c #287AC0",
"E 	c #2A80CA",
"F 	c #428ECF",
"G 	c #D0DBE5",
"H 	c #DAE0E9",
"I 	c #DBE1E8",
"J 	c #6F96B8",
"K 	c #2D72AE",
"L 	c #3587CF",
"M 	c #3A94E3",
"N 	c #3B96E6",
"O 	c #3B95E5",
"P 	c #3992E0",
"Q 	c #3990DD",
"R 	c #3A93E1",
"S 	c #8CB7DB",
"T 	c #DAE1E7",
"U 	c #D9DFE6",
"V 	c #316FA7",
"W 	c #3A84C7",
"X 	c #4398E5",
"Y 	c #469EEE",
"Z 	c #469DED",
"` 	c #459DEC",
" .	c #4397E3",
"..	c #D8DFE5",
"+.	c #D1D9E1",
"@.	c #CDD6DF",
"#.	c #CCD3DD",
"$.	c #BFC8D7",
"%.	c #C1C9D4",
"&.	c #C9D1DA",
"  . . . . . . . . . . . . . .   ",
". + @ @ @ @ @ @ @ @ @ @ @ @ + . ",
". # $ $ $ $ $ $ $ $ $ $ $ $ # . ",
". % & & & * * = & & & & & & % . ",
". - ; ; > , ' ) ; ; ; ; ; ; - . ",
". ! ~ { ] ^ / ( _ ~ ~ ~ ~ ~ ! . ",
". : < [ } | 1 2 3 4 [ 5 6 < : . ",
". 7 8 9 0 a b c d e f g 7 8 7 . ",
". h i j k l m n o p q r s t h . ",
". u v w x y z A B C D E F G H . ",
". I J K L M N N O P Q R R S T . ",
". U V W X Y Y Y Z ` Z Y Z  .... ",
". +.@.+.+.+.+.+.+.+.+.+.+.@.+.. ",
". #.$.$.$.$.$.$.$.$.$.$.$.$.#.. ",
". %.&.&.&.&.&.&.&.&.&.&.&.&.%.. ",
"  . . . . . . . . . . . . . .   "};
