/* XPM */
static char * ico_zoom_out_16x16_xpm[] = {
"16 16 140 2",
"  	c None",
". 	c #AEB7C5",
"+ 	c #DAE1EA",
"@ 	c #F1F6FD",
"# 	c #F2F7FD",
"$ 	c #F4F8FD",
"% 	c #EEF5FC",
"& 	c #EBF3FB",
"* 	c #EBF3FA",
"= 	c #85A8C2",
"- 	c #316C98",
"; 	c #034E86",
"> 	c #3371A0",
", 	c #88ACC8",
"' 	c #EBF2FB",
") 	c #EAF2FB",
"! 	c #EDF2F9",
"~ 	c #E7EEF6",
"{ 	c #38709A",
"] 	c #5789B0",
"^ 	c #CDDDEB",
"/ 	c #EDF3F9",
"( 	c #CDDEEC",
"_ 	c #578FB9",
": 	c #417EAC",
"< 	c #E9F0F8",
"[ 	c #E8F0F8",
"} 	c #E7EFF8",
"| 	c #ECF2F9",
"1 	c #ECF2F7",
"2 	c #7CA0BD",
"3 	c #5689B0",
"4 	c #EAF0F7",
"5 	c #E6EDF5",
"6 	c #E5ECF5",
"7 	c #548DB9",
"8 	c #89B0CE",
"9 	c #E4ECF5",
"0 	c #E9F0F6",
"a 	c #EBF1F6",
"b 	c #246395",
"c 	c #D1DEEA",
"d 	c #E7EDF5",
"e 	c #E8EEF5",
"f 	c #D0DDE9",
"g 	c #387BAF",
"h 	c #E6ECF4",
"i 	c #E0E8F2",
"j 	c #E6EDF4",
"k 	c #E7ECF2",
"l 	c #165C95",
"m 	c #E8EEF3",
"n 	c #14568C",
"o 	c #155C95",
"p 	c #155E99",
"q 	c #2369A1",
"r 	c #E4EAF2",
"s 	c #DCE4EF",
"t 	c #E3E9F1",
"u 	c #E6EBF1",
"v 	c #3070A4",
"w 	c #CDDCE8",
"x 	c #E0E7EF",
"y 	c #E1E8EF",
"z 	c #CCDAE4",
"A 	c #417CAC",
"B 	c #D7E0EB",
"C 	c #DFE6EE",
"D 	c #E0E6ED",
"E 	c #83A7C6",
"F 	c #639AC6",
"G 	c #DDE4EB",
"H 	c #D6DEE8",
"I 	c #D4DDE7",
"J 	c #DEE5EB",
"K 	c #6A94B5",
"L 	c #2F73AC",
"M 	c #C1D3E3",
"N 	c #D8E0E9",
"O 	c #D4DCE7",
"P 	c #DCE3EB",
"Q 	c #D9E0E9",
"R 	c #D4DCE6",
"S 	c #538CBE",
"T 	c #659AC6",
"U 	c #BECEDE",
"V 	c #DBE2E9",
"W 	c #BDCDDB",
"X 	c #618EB3",
"Y 	c #266BA5",
"Z 	c #2C7BBF",
"` 	c #3B88CA",
" .	c #BED0E0",
"..	c #D3DBE6",
"+.	c #D8DFE8",
"@.	c #D5DCE5",
"#.	c #CDD5E1",
"$.	c #D3DBE4",
"%.	c #90B4D3",
"&.	c #528EC3",
"*.	c #2E73B1",
"=.	c #538AB9",
"-.	c #88ADCE",
";.	c #4187C5",
">.	c #388DD8",
",.	c #3A92DF",
"'.	c #428FD1",
").	c #BBCDDE",
"!.	c #D8DFE6",
"~.	c #D1D9E2",
"{.	c #C6CFDD",
"].	c #C8D1DE",
"^.	c #CCD4E0",
"/.	c #D1D8E2",
"(.	c #D3DAE3",
"_.	c #4C94D8",
":.	c #4298E6",
"<.	c #589AD7",
"[.	c #D9DFE6",
"}.	c #CED6E0",
"|.	c #C2CCDA",
"1.	c #C3CDDA",
"2.	c #C8D1DD",
"3.	c #BCCDDD",
"4.	c #4F97D8",
"5.	c #489DEA",
"6.	c #5FA7E9",
"7.	c #D6DDE4",
"8.	c #CCD3DD",
"9.	c #BFC8D7",
"0.	c #C0C9D7",
"a.	c #C5CDDA",
"b.	c #C2CEDC",
"c.	c #9ABDDD",
"d.	c #C2CFDE",
"e.	c #CFD6DF",
"f.	c #C1C9D4",
"g.	c #C9D1DA",
"h.	c #CBD3DB",
"i.	c #CCD4DC",
"  . . . . . . . . . . . . . .   ",
". + @ @ # $ $ $ # @ @ @ @ @ + . ",
". % & * = - ; > , ' & ) ) ) % . ",
". ! ~ { ] ^ / ( _ : < [ } } | . ",
". 1 2 3 4 5 6 5 4 7 8 ~ 9 9 0 . ",
". a b c d e e e d f g h i i j . ",
". k l m n o p p p m q r s s t . ",
". u v w x y y y x z A y B B C . ",
". D E F G H I H J K L M N O P . ",
". Q R S T U V W X Y Z `  ...+.. ",
". @.#.$.%.&.*.=.-.;.>.,.'.).!.. ",
". ~.{.].^./.(././. ._.:.:.<.[.. ",
". }.|.|.|.|.|.|.1.2.3.4.5.6.7.. ",
". 8.9.9.9.9.9.9.9.0.a.b.c.d.e.. ",
". f.g.g.g.g.g.g.g.g.g.h.i.h.f.. ",
"  . . . . . . . . . . . . . .   "};
