/* XPM */
static char * ico_zoom_in_32x32_xpm[] = {
"32 32 422 2",
"  	c None",
". 	c #8AA0C3",
"+ 	c #BFCDE2",
"@ 	c #E6EEF8",
"# 	c #F1F7FE",
"$ 	c #C4D1E4",
"% 	c #F0F6FD",
"& 	c #EDF4FD",
"* 	c #ECF4FD",
"= 	c #C5D2E4",
"- 	c #E9F0F9",
"; 	c #ECF3FC",
"> 	c #EBF3FC",
", 	c #ECF4FC",
"' 	c #EDF4FC",
") 	c #EFF5FC",
"! 	c #F0F6FC",
"~ 	c #EAF1F9",
"{ 	c #E9F1FB",
"] 	c #EAF2FB",
"^ 	c #ECF3FB",
"/ 	c #CBDBE8",
"( 	c #799FBC",
"_ 	c #37719D",
": 	c #0C558B",
"< 	c #014E88",
"[ 	c #0F5990",
"} 	c #3A76A4",
"| 	c #7CA3C1",
"1 	c #D1DFEC",
"2 	c #E7F0FA",
"3 	c #E9F1FA",
"4 	c #E5EEF6",
"5 	c #6993B3",
"6 	c #064F86",
"7 	c #035390",
"8 	c #035A9B",
"9 	c #035FA4",
"0 	c #0462A9",
"a 	c #0463AB",
"b 	c #035EA3",
"c 	c #095D9C",
"d 	c #6E9DC0",
"e 	c #E5EEF7",
"f 	c #EAF1FA",
"g 	c #E5EEF9",
"h 	c #E7EFF9",
"i 	c #D4E1ED",
"j 	c #326B97",
"k 	c #05528C",
"l 	c #065C9E",
"m 	c #0665AD",
"n 	c #076AB5",
"o 	c #076CBA",
"p 	c #076EBD",
"q 	c #076FBD",
"r 	c #0665AC",
"s 	c #387DB1",
"t 	c #D9E6F1",
"u 	c #E9F0F8",
"v 	c #E3ECF7",
"w 	c #E4EDF7",
"x 	c #E2EBF5",
"y 	c #326C99",
"z 	c #075691",
"A 	c #0862A6",
"B 	c #096CB7",
"C 	c #3288C9",
"D 	c #A6C9E6",
"E 	c #DFEAF5",
"F 	c #E3EDF6",
"G 	c #A8C9E4",
"H 	c #428DC6",
"I 	c #096EBB",
"J 	c #096FBD",
"K 	c #096BB6",
"L 	c #3981B8",
"M 	c #E5EDF6",
"N 	c #E7EEF7",
"O 	c #E1EAF6",
"P 	c #E6EDF7",
"Q 	c #6892B3",
"R 	c #09558F",
"S 	c #0A64A8",
"T 	c #0F71BC",
"U 	c #7DB2DC",
"V 	c #E4ECF6",
"W 	c #E7EFF7",
"X 	c #E8EFF8",
"Y 	c #89B4D5",
"Z 	c #1371B9",
"` 	c #0C71BE",
" .	c #0C6EBA",
"..	c #76A8CE",
"+.	c #E5EDF7",
"@.	c #DEE8F5",
"#.	c #E0E9F5",
"$.	c #CBDAE8",
"%.	c #10578E",
"&.	c #0D62A4",
"*.	c #0F70BC",
"=.	c #90BDE1",
"-.	c #DFE9F5",
";.	c #00477D",
">.	c #004C85",
",.	c #0E588F",
"'.	c #E3ECF6",
").	c #A3C3DB",
"!.	c #0F6DB6",
"~.	c #1074C1",
"{.	c #1473BC",
"].	c #CEDEED",
"^.	c #E3EBF5",
"/.	c #DCE6F3",
"(.	c #E0E9F4",
"_.	c #7EA2BF",
":.	c #0E5B98",
"<.	c #116DB6",
"[.	c #4492D0",
"}.	c #E4ECF5",
"|.	c #DDE7F3",
"1.	c #E5ECF5",
"2.	c #055088",
"3.	c #065EA1",
"4.	c #146DB1",
"5.	c #DDE6F3",
"6.	c #568FBD",
"7.	c #1270BB",
"8.	c #1376C4",
"9.	c #7EAFD6",
"0.	c #E1E9F3",
"a.	c #D9E4F1",
"b.	c #E0E9F3",
"c.	c #3C74A1",
"d.	c #1365A6",
"e.	c #1675C0",
"f.	c #9FC6E4",
"g.	c #DFE9F3",
"h.	c #E3EBF4",
"i.	c #EAF0F5",
"j.	c #0C5791",
"k.	c #0F6CB4",
"l.	c #1D7DC7",
"m.	c #E9F0F5",
"n.	c #E2EBF3",
"o.	c #DEE7F3",
"p.	c #B0C8DB",
"q.	c #146AAD",
"r.	c #1677C4",
"s.	c #4892CD",
"t.	c #DFE7F2",
"u.	c #D7E1F0",
"v.	c #E0E8F3",
"w.	c #22659A",
"x.	c #186EB2",
"y.	c #1A7BC8",
"z.	c #CFDFEF",
"A.	c #12558A",
"B.	c #135A93",
"C.	c #145D97",
"D.	c #1665A5",
"E.	c #1976BF",
"F.	c #1B7ECC",
"G.	c #1975BF",
"H.	c #1665A4",
"I.	c #21669D",
"J.	c #DDE6F1",
"K.	c #1564A2",
"L.	c #1977C1",
"M.	c #2E86CC",
"N.	c #E0E8F2",
"O.	c #DDE5F1",
"P.	c #D4DFEE",
"Q.	c #DCE5F0",
"R.	c #175F99",
"S.	c #1C74BB",
"T.	c #1F80CE",
"U.	c #E0E7F1",
"V.	c #1C619A",
"W.	c #2172B5",
"X.	c #247BC4",
"Y.	c #247EC8",
"Z.	c #2684D1",
"`.	c #2787D6",
" +	c #2F82C6",
".+	c #DEE7F1",
"++	c #266BA2",
"@+	c #1C76BF",
"#+	c #2482CF",
"$+	c #DAE4EF",
"%+	c #D1DDEC",
"&+	c #DCE5EF",
"*+	c #296BA2",
"=+	c #2078BF",
"-+	c #2383D2",
";+	c #CFDFEC",
">+	c #266AA5",
",+	c #2F84CD",
"'+	c #3390E0",
")+	c #3E95E0",
"!+	c #DAE4EE",
"~+	c #DCE4EF",
"{+	c #1C639D",
"]+	c #368DD4",
"^+	c #DBE4EF",
"/+	c #D9E1EE",
"(+	c #CFDAEB",
"_+	c #D8E1EE",
":+	c #457FAE",
"<+	c #2379C0",
"[+	c #2786D4",
"}+	c #A0C3E2",
"|+	c #D7E0ED",
"1+	c #DBE3EF",
"2+	c #E4EAF2",
"3+	c #3A8ED9",
"4+	c #3D94E3",
"5+	c #489DE9",
"6+	c #E4EAF1",
"7+	c #D5DFED",
"8+	c #B3C6D9",
"9+	c #1D659F",
"0+	c #569FDB",
"a+	c #D6E0EC",
"b+	c #CCD8E9",
"c+	c #D2DDEB",
"d+	c #7CA3C4",
"e+	c #2578BE",
"f+	c #2A87D6",
"g+	c #5A9DD7",
"h+	c #D7E1ED",
"i+	c #CDD9E9",
"j+	c #D9E2ED",
"k+	c #3980C0",
"l+	c #4294DF",
"m+	c #50A3EE",
"n+	c #D8E1ED",
"o+	c #648FB4",
"p+	c #226DAC",
"q+	c #2881CC",
"r+	c #8EBCE4",
"s+	c #D4DEEC",
"t+	c #D4DEEB",
"u+	c #C9D6E7",
"v+	c #CCD8E8",
"w+	c #C2D2E2",
"x+	c #2975B7",
"y+	c #2D87D3",
"z+	c #2E89D7",
"A+	c #9DC0DE",
"B+	c #D1DCEA",
"C+	c #CAD7E7",
"D+	c #D3DEEA",
"E+	c #3A79B4",
"F+	c #4796DF",
"G+	c #57A7F3",
"H+	c #D3DDEA",
"I+	c #D0DBE9",
"J+	c #A8BFD4",
"K+	c #22659F",
"L+	c #2879BD",
"M+	c #2E89D6",
"N+	c #5FA3DC",
"O+	c #D2DEEA",
"P+	c #C6D3E6",
"Q+	c #CFDAE9",
"R+	c #74A1C7",
"S+	c #2E83CC",
"T+	c #328EDC",
"U+	c #348AD4",
"V+	c #9CBDDA",
"W+	c #CEDAE9",
"X+	c #D2DCEA",
"Y+	c #D1DCE9",
"Z+	c #CDD8E8",
"`+	c #A9C0D4",
" @	c #2D6BA0",
".@	c #2974B4",
"+@	c #3086D1",
"@@	c #338FDE",
"#@	c #328DDB",
"$@	c #5E9CD1",
"%@	c #C9D5E7",
"&@	c #D0DAE8",
"*@	c #C7D3E5",
"=@	c #CBD7E6",
"-@	c #4E8DC6",
";@	c #348CD8",
">@	c #3690DF",
",@	c #3387D1",
"'@	c #6098C8",
")@	c #A8C0D7",
"!@	c #D1DCE8",
"~@	c #D3DDE9",
"{@	c #6591B7",
"]@	c #2769A3",
"^@	c #2C76B6",
"/@	c #3286CF",
"(@	c #3793E3",
"_@	c #3792E2",
":@	c #5F9BCF",
"<@	c #CDD9E7",
"[@	c #C7D4E5",
"}@	c #CDD9E6",
"|@	c #C1CFE2",
"1@	c #C2D1E2",
"2@	c #5295CE",
"3@	c #3991DD",
"4@	c #3A93E1",
"5@	c #378DD7",
"6@	c #3382C6",
"7@	c #2F77B6",
"8@	c #2C71AC",
"9@	c #2C6FAA",
"0@	c #2C70AC",
"a@	c #2F77B5",
"b@	c #3381C5",
"c@	c #378CD6",
"d@	c #3B96E5",
"e@	c #3B95E4",
"f@	c #388FDA",
"g@	c #649ED0",
"h@	c #C4D2E3",
"i@	c #CBD6E5",
"j@	c #BECCE1",
"k@	c #BFCCE1",
"l@	c #C3D0E3",
"m@	c #C7D4E4",
"n@	c #7CACD8",
"o@	c #3D92DD",
"p@	c #3D96E4",
"q@	c #3C94E2",
"r@	c #3A8FDA",
"s@	c #398CD6",
"t@	c #398BD4",
"u@	c #398BD5",
"v@	c #4095E1",
"w@	c #5BA5E6",
"x@	c #3E97E6",
"y@	c #3E97E7",
"z@	c #3E98E8",
"A@	c #3B91DD",
"B@	c #659FD1",
"C@	c #C9D6E5",
"D@	c #C1CEE2",
"E@	c #C9D5E4",
"F@	c #BCCADF",
"G@	c #BFCCE0",
"H@	c #C7D3E3",
"I@	c #B8CCE1",
"J@	c #8AB7E1",
"K@	c #61A5E3",
"L@	c #459AE6",
"M@	c #429AEA",
"N@	c #489EEB",
"O@	c #64ABE9",
"P@	c #8EBDE8",
"Q@	c #BDD2E6",
"R@	c #D0DAE7",
"S@	c #73ACDE",
"T@	c #3F94E0",
"U@	c #419AE9",
"V@	c #429BEB",
"W@	c #80AED8",
"X@	c #C5D1E2",
"Y@	c #C7D3E2",
"Z@	c #B9C8DD",
"`@	c #BAC9DD",
" #	c #BDCBDE",
".#	c #C2CFE0",
"+#	c #C6D3E2",
"@#	c #C9D5E3",
"##	c #CAD6E3",
"$#	c #C6D2E2",
"%#	c #C7D4E2",
"&#	c #70A5D5",
"*#	c #4195E1",
"=#	c #449CEB",
"-#	c #459DED",
";#	c #509CE1",
">#	c #C5D1E1",
",#	c #B7C6DC",
"'#	c #C6D2E1",
")#	c #70A5D4",
"!#	c #4397E3",
"~#	c #469EED",
"{#	c #479FEF",
"]#	c #54A4EB",
"^#	c #C4D0E0",
"/#	c #B5C4DB",
"(#	c #B8C7DC",
"_#	c #C4D1E0",
":#	c #72A6D6",
"<#	c #4699E5",
"[#	c #49A0EF",
"}#	c #4AA1F1",
"|#	c #88BBEB",
"1#	c #BFCCDE",
"2#	c #C2CEDF",
"3#	c #B3C2D9",
"4#	c #B7C5DA",
"5#	c #BFCDDD",
"6#	c #82AFD9",
"7#	c #57A2E6",
"8#	c #5AA7EE",
"9#	c #87BBEC",
"0#	c #BFCDDF",
"a#	c #B6C4DA",
"b#	c #C1CDDE",
"c#	c #B1C0D8",
"d#	c #B4C2D9",
"e#	c #BBC8DC",
"f#	c #B4C3D9",
"g#	c #BCC9DB",
"h#	c #B2C1D8",
"i#	c #AFBFD7",
"j#	c #BDCADC",
"k#	c #A7B8D1",
"l#	c #B1C0D7",
"m#	c #ADBDD6",
"n#	c #A4B5CF",
"o#	c #B7C5D9",
"    . . . . . . . . . . . . . . . . . . . . . . . . . . . .     ",
"  . + @ # # # # # # # # # # # # # # # # # # # # # # # # @ + .   ",
". $ % & * * * * * * * * * * * * * * * * * * * * * * * * & % = . ",
". - ; > > > > > > , ' ) ! ! ! ) ' , > > > > > > > > > > > ; ~ . ",
". ' { { { { { ] ^ / ( _ : < [ } | 1 ^ ] { { { { { { { { { { ' . ",
". ^ 2 2 2 2 3 4 5 6 7 8 9 0 a 0 b c d e 3 2 2 2 2 2 2 2 2 2 ^ . ",
". f g g g h i j k l m n o p q p o n r s t h g g g g g g g g f . ",
". u v v w x y z A B C D E ~ F G H I J K L M w v v v v v v v u . ",
". N O O P Q R S T U V P W X N P X Y Z `  ...+.O O O O O O O N . ",
". M @.#.$.%.&.*.=.V -.V ;.>.,.V -.'.).!.~.{.].#.@.@.@.@.@.@.M . ",
". ^./.(._.:.<.[.}.|./.1.2.3.4.}./.5.^.6.7.8.9.(././././././.^.. ",
". 0.a.b.c.d.e.f.g.b.h.i.j.k.l.m.n.b.o.p.q.r.s.b.a.a.a.a.a.a.0.. ",
". t.u.v.w.x.y.z.t.A.B.C.D.E.F.G.H.I.t.J.K.L.M.N.u.u.u.u.u.u.t.. ",
". O.P.Q.R.S.T.N.U.V.W.X.Y.Z.`.Z.Y. +.+.+++@+#+.+P.P.P.P.P.P.O.. ",
". $+%+&+*+=+-+;+$+>+,+'+'+'+'+'+'+)+!+~+{+=+]+^+%+%+%+%+%+%+$+. ",
". /+(+_+:+<+[+}+|+_+1+2+3+4+5+6+1+_+7+8+9+X.0+_+(+(+(+(+(+(+/+. ",
". a+b+c+d+e+f+g+h+i+b+j+k+l+m+n+b+i+a+o+p+q+r+s+b+b+b+b+b+b+a+. ",
". t+u+v+w+x+y+z+A+B+C+D+E+F+G+H+C+I+J+K+L+M+N+O+v+u+u+u+u+u+t+. ",
". B+P+P+Q+R+S+T+U+V+H+W+X+t+Y+Z+B+`+ @.@+@@@#@$@Q+%@P+P+P+P+B+. ",
". &@$ $ *@=@-@;@>@,@'@)@!@~@~@J+{@]@^@/@>@(@_@;@:@<@[@$ $ $ &@. ",
". }@|@|@|@= 1@2@3@4@5@6@7@8@9@0@a@b@c@4@d@d@d@e@f@g@=@h@|@|@}@. ",
". i@j@j@j@k@l@m@n@o@p@q@r@s@t@u@r@v@w@x@y@z@z@z@y@A@B@C@D@j@i@. ",
". E@F@F@F@F@F@G@H@I@J@K@L@M@N@O@P@Q@R@S@T@U@V@V@V@U@T@W@X@F@E@. ",
". Y@Z@Z@Z@Z@Z@Z@`@ #.#+#@###@#$#.# # #%#&#*#=#-#-#-#=#;#Y@Z@Y@. ",
". >#,#,#,#,#,#,#,#,#,#,#,#,#,#,#,#,#,#`@'#)#!#~#{#{#{#]#'#,#>#. ",
". ^#/#/#/#/#/#/#/#/#/#/#/#/#/#/#/#/#/#/#(#_#:#<#[#}#}#|#1#/#^#. ",
". 2#3#3#3#3#3#3#3#3#3#3#3#3#3#3#3#3#3#3#3#4#5#6#7#8#9#0#a#3#2#. ",
". b#c#c#c#c#c#c#c#c#c#c#c#c#c#c#c#c#c#c#c#c#d#e#b#b#e#f#c#c#b#. ",
". g#h#i#i#i#i#i#i#i#i#i#i#i#i#i#i#i#i#i#i#i#i#i#i#i#i#i#i#h#j#. ",
". k#j#l#m#m#m#m#m#m#m#m#m#m#m#m#m#m#m#m#m#m#m#m#m#m#m#m#l#j#k#. ",
"  . n#o#g#g#g#g#g#g#g#g#g#g#g#g#g#g#g#g#g#g#g#g#g#g#g#g#o#n#.   ",
"    . . . . . . . . . . . . . . . . . . . . . . . . . . . .     "};
