/* XPM */
static char * ico_nine_xpm[] = {
"16 16 108 2",
"  	c None",
". 	c #3A6492",
"+ 	c #316092",
"@ 	c #336396",
"# 	c #336497",
"$ 	c #32669F",
"% 	c #8AA0C3",
"& 	c #2F5F96",
"* 	c #326193",
"= 	c #3E6B9B",
"- 	c #34608F",
"; 	c #4E7EAB",
"> 	c #6799C8",
", 	c #6CA1D2",
"' 	c #6EA3D5",
") 	c #5B91CB",
"! 	c #F0F6FD",
"~ 	c #4A79AB",
"{ 	c #6697C5",
"] 	c #5C94C9",
"^ 	c #3F76B1",
"/ 	c #6699CA",
"( 	c #70AAE1",
"_ 	c #74AFE7",
": 	c #74B0E8",
"< 	c #5F9BD8",
"[ 	c #E9F1FB",
"} 	c #4A7AAD",
"| 	c #6AA1D4",
"1 	c #76B0E8",
"2 	c #4383C7",
"3 	c #6AA0D3",
"4 	c #72ADE6",
"5 	c #72AEE7",
"6 	c #5E99D7",
"7 	c #E5EEF9",
"8 	c #4979AD",
"9 	c #689FD3",
"0 	c #75B0E8",
"a 	c #4586CC",
"b 	c #699FD2",
"c 	c #70ACE6",
"d 	c #5C98D7",
"e 	c #E1EAF6",
"f 	c #4878AD",
"g 	c #669DD2",
"h 	c #73AEE6",
"i 	c #4587CD",
"j 	c #568EC8",
"k 	c #5B96D5",
"l 	c #A8C0E0",
"m 	c #4777AB",
"n 	c #558CC7",
"o 	c #5D98D6",
"p 	c #3E7EC5",
"q 	c #DFE7F2",
"r 	c #D7E1F0",
"s 	c #A4BDDE",
"t 	c #DAE4EF",
"u 	c #D1DDEC",
"v 	c #A0BADB",
"w 	c #D6E0EC",
"x 	c #CCD8E9",
"y 	c #9DB6D9",
"z 	c #D1DCEA",
"A 	c #C6D3E6",
"B 	c #98B3D7",
"C 	c #4172A5",
"D 	c #4071A7",
"E 	c #95B0D4",
"F 	c #3C6A9D",
"G 	c #3E6FA4",
"H 	c #4374A9",
"I 	c #5589BB",
"J 	c #568FC7",
"K 	c #4A84C1",
"L 	c #BCCADF",
"M 	c #3D6EA3",
"N 	c #5084B9",
"O 	c #5B94CA",
"P 	c #3F7BBB",
"Q 	c #5A92C8",
"R 	c #5B9AD9",
"S 	c #4E8BCE",
"T 	c #B7C6DC",
"U 	c #3D6FA6",
"V 	c #538DC6",
"W 	c #62A0DB",
"X 	c #5990C7",
"Y 	c #5998D7",
"Z 	c #4C8ACC",
"` 	c #B3C2D9",
" .	c #3C6EA5",
"..	c #518BC4",
"+.	c #619EDA",
"@.	c #38689A",
"#.	c #4F89C3",
"$.	c #5F9CD8",
"%.	c #5F9DD9",
"&.	c #518DCE",
"*.	c #BFCCDD",
"=.	c #3F71A6",
"-.	c #578FC6",
";.	c #5797D6",
">.	c #4888CB",
",.	c #4078B3",
"'.	c #4384C8",
").	c #4887CB",
"  . + @ # $ % % % % & * # # =   ",
"- ; > , ' ) ! ! ! ! ~ { ' ' ] ^ ",
"* / ( _ : < [ [ [ [ } | : : 1 2 ",
"# 3 4 5 5 6 7 7 7 7 8 9 5 5 0 a ",
"# b c c c d e e e e f g c c h i ",
"$ j k k k k l l l l m n k k o p ",
"% q r r r s r r r r s r r r q % ",
"% t u u u v u u u u v u u u t % ",
"% w x x x y x x x x y x x x w % ",
"% z A A A B A A A A B A A A z % ",
"& C D D D D E E E E F G D D H $ ",
"* I J J J K L L L L M N J J O P ",
"# Q R R R S T T T T U V R R W i ",
"# X Y Y Y Z ` ` ` `  ...Y Y +.i ",
"@.#.$.%.%.&.*.*.*.*.=.-.%.%.;.>.",
"  ,.'.a i p % % % % $ P i i ).  "};
