/* XPM */
static char * ico_slice_16x16_xpm[] = {
"16 16 138 2",
"  	c None",
". 	c #AEB7C5",
"+ 	c #DAE1EA",
"@ 	c #F1F6FD",
"# 	c #F2F6FD",
"$ 	c #F2F7FD",
"% 	c #DBE2EA",
"& 	c #EEF5FC",
"* 	c #EAF2FB",
"= 	c #ECF3FB",
"- 	c #D4E1ED",
"; 	c #618EAF",
"> 	c #B0C7DA",
", 	c #F0F6FC",
"' 	c #ECF2F9",
") 	c #E7EFF8",
"! 	c #E9F0F8",
"~ 	c #D3E0EB",
"{ 	c #1F5E8E",
"] 	c #03528D",
"^ 	c #0E5F9C",
"/ 	c #E5EDF5",
"( 	c #AFB8C6",
"_ 	c #E9F0F6",
": 	c #E4ECF5",
"< 	c #E7EEF6",
"[ 	c #D2DEE9",
"} 	c #236292",
"| 	c #085794",
"1 	c #0964AA",
"2 	c #0C6DB7",
"3 	c #D0E1EE",
"4 	c #B0B8C6",
"5 	c #E6EDF4",
"6 	c #E0E8F2",
"7 	c #E2E9F3",
"8 	c #83A5C0",
"9 	c #5B8AAF",
"0 	c #D1DEE9",
"a 	c #276696",
"b 	c #0E5B97",
"c 	c #1069AF",
"d 	c #1475C1",
"e 	c #A2C7E4",
"f 	c #E9EFF5",
"g 	c #AFB8C5",
"h 	c #E3E9F1",
"i 	c #DCE4EF",
"j 	c #DEE5F0",
"k 	c #D1DDE8",
"l 	c #3474A6",
"m 	c #1D68A5",
"n 	c #1566A7",
"o 	c #176FB6",
"p 	c #1C7AC8",
"q 	c #A3C8E5",
"r 	c #E1E8F1",
"s 	c #E4EAF1",
"t 	c #DFE6EE",
"u 	c #D7E0EB",
"v 	c #D9E1EC",
"w 	c #E2E9EF",
"x 	c #6494BB",
"y 	c #1E72B6",
"z 	c #217BC5",
"A 	c #2481CD",
"B 	c #A3C8E6",
"C 	c #DDE5ED",
"D 	c #D8E1EB",
"E 	c #DCE3EB",
"F 	c #D3DCE7",
"G 	c #D5DDE8",
"H 	c #DDE4EB",
"I 	c #6A93B5",
"J 	c #2067A3",
"K 	c #5294CC",
"L 	c #4796D7",
"M 	c #579FDC",
"N 	c #E0E7ED",
"O 	c #D6DEE8",
"P 	c #D8DFE8",
"Q 	c #CED7E4",
"R 	c #D0D9E5",
"S 	c #D9E0E8",
"T 	c #6C94B6",
"U 	c #266AA3",
"V 	c #2C7ABD",
"W 	c #4693D4",
"X 	c #D6E2EB",
"Y 	c #4C95D3",
"Z 	c #6FA5D3",
"` 	c #D3DBE6",
" .	c #D5DCE5",
"..	c #CCD5E1",
"+.	c #D6DDE5",
"@.	c #6F96B8",
"#.	c #2C6EA8",
"$.	c #337FC3",
"%.	c #398FDA",
"&.	c #3B94E2",
"*.	c #CCD9E5",
"=.	c #C7D4E2",
"-.	c #A4BFD9",
";.	c #CED6E2",
">.	c #CAD3E0",
",.	c #D3DAE3",
"'.	c #D2D9E2",
").	c #7197B9",
"!.	c #3272AC",
"~.	c #3984C7",
"{.	c #579FE0",
"].	c #92BFE8",
"^.	c #BED1E4",
"/.	c #CCD4DF",
"(.	c #C8D1DE",
"_.	c #C7D0DD",
":.	c #C6CFDD",
"<.	c #D1D9E2",
"[.	c #759ABC",
"}.	c #4981B5",
"|.	c #8CB3D6",
"1.	c #BCD0E2",
"2.	c #D0D7E0",
"3.	c #CAD3DE",
"4.	c #C5CFDC",
"5.	c #C3CDDA",
"6.	c #C2CCDA",
"7.	c #CED6E0",
"8.	c #CFD5DE",
"9.	c #B6C4D5",
"0.	c #CCD3DD",
"a.	c #C8CFDB",
"b.	c #C3CBD9",
"c.	c #C0C9D7",
"d.	c #BFC8D7",
"e.	c #C1C9D4",
"f.	c #CAD2DA",
"g.	c #C9D1DA",
"  . . . . . . . . . . . . . .   ",
". + @ @ @ @ @ @ @ @ @ # $ $ % . ",
". & * * * * * * * * = - ; > , . ",
". ' ) ) ) ) ) ) ) ! ~ { ] ^ / ( ",
". _ : : : / < < < [ } | 1 2 3 4 ",
". 5 6 6 6 7 8 9 0 a b c d e f g ",
". h i i i j k l m n o p q r s . ",
". t u u u v w x y z A B C D t . ",
". E F F G H I J K L M N O F E . ",
". P Q R S T U V W X Y Z ` Q P . ",
".  ...+.@.#.$.%.&.*.=.-.;.>. .. ",
". ,.'.).!.~.{.].^./.(.(._.:.<.. ",
". '.[.}.|.1.2.3.4.5.6.6.6.6.7.. ",
". 8.9.0.a.b.c.d.d.d.d.d.d.d.0.. ",
". e.f.g.g.g.g.g.g.g.g.g.g.g.e.. ",
"  . . . . . . . . . . . . . .   "};
