/* XPM */
static char * ico_color_xpm[] = {
"16 16 48 1",
" 	c None",
".	c #8AA0C3",
"+	c #CDD9E9",
"@	c #F0F6FD",
"#	c #EDF4FC",
"$	c #A6A6A6",
"%	c #E9F1FB",
"&	c #828283",
"*	c #212121",
"=	c #EAF1FA",
"-	c #FFFFFF",
";	c #E5EEF9",
">	c #C7C8CA",
",	c #333333",
"'	c #E7EEF7",
")	c #E1EAF6",
"!	c #E3EBF5",
"~	c #DCE6F3",
"{	c #DFE7F2",
"]	c #6D090C",
"^	c #D7E1F0",
"/	c #9C3317",
"(	c #A68B00",
"_	c #DAE4EF",
":	c #A70E13",
"<	c #D1DDEC",
"[	c #F04E23",
"}	c #FFD500",
"|	c #D6E0EC",
"1	c #CCD8E9",
"2	c #D1DCEA",
"3	c #C6D3E6",
"4	c #CDD9E6",
"5	c #537F2B",
"6	c #C1CFE2",
"7	c #0B5A85",
"8	c #1E205F",
"9	c #C9D5E4",
"0	c #80C342",
"a	c #BCCADF",
"b	c #118ACC",
"c	c #2E3192",
"d	c #C5D1E1",
"e	c #B7C6DC",
"f	c #C2CEDF",
"g	c #B3C2D9",
"h	c #AFBFD5",
"i	c #BFCCDD",
" .............. ",
".+@@@@@@@@@@@@+.",
".#$$$%&&&%***%#.",
".=$--;&>>;*,,;=.",
".'$--)&>>)*,,)'.",
".!~~~~~~~~~~~~!.",
".{]]]^///^(((^{.",
"._]::</[[<(}}<_.",
".|]::1/[[1(}}1|.",
".23333333333332.",
".45556777688864.",
".9500a7bba8cca9.",
".d500e7bbe8cced.",
".fggggggggggggf.",
".hiiiiiiiiiiiih.",
" .............. "};
