/* XPM */
static char * icon_xpm[] = {
"16 16 17 1",
" 	c None",
".	c #F8981F",
"+	c #999999",
"@	c #F7901F",
"#	c #F68320",
"$	c #F47521",
"%	c #F26722",
"&	c #F15A23",
"*	c #94FF3D",
"=	c #8BF83B",
"-	c #7FEE37",
";	c #71E334",
">	c #61D62F",
",	c #50C82B",
"'	c #40BB27",
")	c #32B023",
"!	c #26A620",
"...... ++++++   ",
"@@@@@@ ++++++   ",
"###### ++++++   ",
"$$$$$$ ++++++   ",
"%%%%%% ++++++   ",
"&&&&&& ++++++   ",
"                ",
"++++++ *********",
"++++++ =========",
"++++++ ---------",
"++++++ ;;;;;;;;;",
"++++++ >>>>>>>>>",
"++++++ ,,,,,,,,,",
"       '''''''''",
"       )))))))))",
"       !!!!!!!!!"};
