/* XPM */
static char * folder_horizontal_open_xpm[] = {
"16 16 50 1",
" 	c None",
".	c #FDFEFE",
"+	c #EEF5F5",
"@	c #DDEBEB",
"#	c #41C9FE",
"$	c #2EB6F4",
"%	c #D68F02",
"&	c #FFF3AE",
"*	c #FEF0AB",
"=	c #D28D02",
"-	c #FDEDA8",
";	c #FBE7A2",
">	c #CF8A02",
",	c #FBE9A3",
"'	c #F9E39D",
")	c #CB8802",
"!	c #F9E59F",
"~	c #F6DF98",
"{	c #C78502",
"]	c #F6E099",
"^	c #F3DA92",
"/	c #C28202",
"(	c #F4D98F",
"_	c #E6B54B",
":	c #E8B84F",
"<	c #D18B02",
"[	c #BE7F02",
"}	c #ECC872",
"|	c #EBC76A",
"1	c #FEF1AD",
"2	c #EECE6F",
"3	c #B97C02",
"4	c #DFB14E",
"5	c #F2D88A",
"6	c #F8E29C",
"7	c #FAE6A0",
"8	c #D49D28",
"9	c #B47803",
"0	c #D8AB49",
"a	c #F3D992",
"b	c #F0D58D",
"c	c #E9C877",
"d	c #BD7E02",
"e	c #A46E03",
"f	c #DEB866",
"g	c #EFD187",
"h	c #EFD087",
"i	c #C39638",
"j	c #966503",
"k	c #946403",
"                ",
"                ",
"       .+@#$    ",
"%&**********&%  ",
"=-;;;;;;;;;;-=  ",
">,'''''''''',>  ",
")!~~~~~~~~~~!)  ",
"{]^^^^^^^^^^]{  ",
"/(__________:<  ",
"[}|111111111112 ",
"345666666666678 ",
"90abbbbbbbbbbcd ",
"efghhhhhhhhhgi  ",
"jkkkkkkkkkkkkj  ",
"                ",
"                "};
