/* XPM */
static char * ico_zoom_fix_16x16_xpm[] = {
"16 16 137 2",
"  	c None",
". 	c #AEB7C5",
"+ 	c #DAE1EA",
"@ 	c #F1F6FD",
"# 	c #F2F7FD",
"$ 	c #F4F8FD",
"% 	c #EEF5FC",
"& 	c #EBF3FB",
"* 	c #EBF3FA",
"= 	c #85A8C2",
"- 	c #316C98",
"; 	c #034E86",
"> 	c #3371A0",
", 	c #88ACC8",
"' 	c #EBF2FB",
") 	c #EAF2FB",
"! 	c #EDF2F9",
"~ 	c #E7EEF6",
"{ 	c #38709A",
"] 	c #5789B0",
"^ 	c #CDDDEB",
"/ 	c #EDF3F9",
"( 	c #CDDEEC",
"_ 	c #578FB9",
": 	c #417EAC",
"< 	c #E9F0F8",
"[ 	c #E8F0F8",
"} 	c #E7EFF8",
"| 	c #ECF2F9",
"1 	c #ECF2F7",
"2 	c #7CA0BD",
"3 	c #5689B0",
"4 	c #EAF0F7",
"5 	c #E6EDF5",
"6 	c #E5ECF5",
"7 	c #548DB9",
"8 	c #89B0CE",
"9 	c #E4ECF5",
"0 	c #E9F0F6",
"a 	c #EBF1F6",
"b 	c #246395",
"c 	c #CEDCE9",
"d 	c #E2E9F3",
"e 	c #E0E8F2",
"f 	c #CDDBE8",
"g 	c #387BAF",
"h 	c #E6ECF4",
"i 	c #E6EDF4",
"j 	c #E7ECF2",
"k 	c #165C95",
"l 	c #E5EBF2",
"m 	c #DDE4EF",
"n 	c #DCE4EF",
"o 	c #2369A1",
"p 	c #E4EAF2",
"q 	c #E3E9F1",
"r 	c #E6EBF1",
"s 	c #3070A4",
"t 	c #CADAE7",
"u 	c #D9E2EC",
"v 	c #D7E0EB",
"w 	c #C9D7E3",
"x 	c #417CAC",
"y 	c #E1E8EF",
"z 	c #DFE6EE",
"A 	c #E0E6ED",
"B 	c #83A7C6",
"C 	c #639AC6",
"D 	c #DDE4EB",
"E 	c #D6DEE8",
"F 	c #D4DDE7",
"G 	c #DEE5EB",
"H 	c #6A94B5",
"I 	c #2F73AC",
"J 	c #C1D3E3",
"K 	c #D8E0E9",
"L 	c #D4DCE7",
"M 	c #DCE3EB",
"N 	c #D9E0E9",
"O 	c #D4DCE6",
"P 	c #538CBE",
"Q 	c #659AC6",
"R 	c #BECEDE",
"S 	c #DBE2E9",
"T 	c #BDCDDB",
"U 	c #618EB3",
"V 	c #266BA5",
"W 	c #2C7BBF",
"X 	c #3B88CA",
"Y 	c #BED0E0",
"Z 	c #D3DBE6",
"` 	c #D8DFE8",
" .	c #D5DCE5",
"..	c #CDD5E1",
"+.	c #D3DBE4",
"@.	c #90B4D3",
"#.	c #528EC3",
"$.	c #2E73B1",
"%.	c #538AB9",
"&.	c #88ADCE",
"*.	c #4187C5",
"=.	c #388DD8",
"-.	c #3A92DF",
";.	c #428FD1",
">.	c #BBCDDE",
",.	c #D8DFE6",
"'.	c #D1D9E2",
").	c #C6CFDD",
"!.	c #C8D1DE",
"~.	c #CCD4E0",
"{.	c #D1D8E2",
"].	c #D3DAE3",
"^.	c #4C94D8",
"/.	c #4298E6",
"(.	c #589AD7",
"_.	c #D9DFE6",
":.	c #CED6E0",
"<.	c #C2CCDA",
"[.	c #C3CDDA",
"}.	c #C8D1DD",
"|.	c #BCCDDD",
"1.	c #4F97D8",
"2.	c #489DEA",
"3.	c #5FA7E9",
"4.	c #D6DDE4",
"5.	c #CCD3DD",
"6.	c #BFC8D7",
"7.	c #C0C9D7",
"8.	c #C5CDDA",
"9.	c #C2CEDC",
"0.	c #9ABDDD",
"a.	c #C2CFDE",
"b.	c #CFD6DF",
"c.	c #C1C9D4",
"d.	c #C9D1DA",
"e.	c #CBD3DB",
"f.	c #CCD4DC",
"  . . . . . . . . . . . . . .   ",
". + @ @ # $ $ $ # @ @ @ @ @ + . ",
". % & * = - ; > , ' & ) ) ) % . ",
". ! ~ { ] ^ / ( _ : < [ } } | . ",
". 1 2 3 4 5 6 5 4 7 8 ~ 9 9 0 . ",
". a b c d e e e d f g h e e i . ",
". j k l m n n n m l o p n n q . ",
". r s t u v v v u w x y v v z . ",
". A B C D E F E G H I J K L M . ",
". N O P Q R S T U V W X Y Z ` . ",
".  ...+.@.#.$.%.&.*.=.-.;.>.,.. ",
". '.).!.~.{.].{.{.Y ^././.(._.. ",
". :.<.<.<.<.<.<.[.}.|.1.2.3.4.. ",
". 5.6.6.6.6.6.6.6.7.8.9.0.a.b.. ",
". c.d.d.d.d.d.d.d.d.d.e.f.e.c.. ",
"  . . . . . . . . . . . . . .   "};
