/* XPM */
static char * ico_slice_32x32_xpm[] = {
"32 32 346 2",
"  	c None",
". 	c #8AA0C3",
"+ 	c #BFCDE2",
"@ 	c #E6EEF8",
"# 	c #F1F7FE",
"$ 	c #C4D1E4",
"% 	c #F0F6FD",
"& 	c #EDF4FD",
"* 	c #ECF4FD",
"= 	c #C5D2E4",
"- 	c #E9F0F9",
"; 	c #ECF3FC",
"> 	c #EBF3FC",
", 	c #ECF4FC",
"' 	c #EAF1F9",
") 	c #EDF4FC",
"! 	c #E9F1FB",
"~ 	c #EAF1FB",
"{ 	c #EDF3FB",
"] 	c #A4BED3",
"^ 	c #B8CDDE",
"/ 	c #E6EEF7",
"( 	c #EBF2FB",
"_ 	c #ECF3FB",
": 	c #E7F0FA",
"< 	c #E8F0FA",
"[ 	c #EBF3FB",
"} 	c #7EA2BE",
"| 	c #014C83",
"1 	c #02528E",
"2 	c #276CA1",
"3 	c #C2D6E5",
"4 	c #E9F1FA",
"5 	c #EAF1FA",
"6 	c #E5EEF9",
"7 	c #E6EFF9",
"8 	c #7FA2BE",
"9 	c #034E86",
"0 	c #03599A",
"a 	c #0463AB",
"b 	c #0464AD",
"c 	c #2574AF",
"d 	c #E6EEF9",
"e 	c #E9F0F8",
"f 	c #E3ECF7",
"g 	c #E4EDF7",
"h 	c #E8F0F8",
"i 	c #7FA3BE",
"j 	c #054F88",
"k 	c #065B9C",
"l 	c #0768B1",
"m 	c #076EBC",
"n 	c #076FBD",
"o 	c #076CB8",
"p 	c #AECBE2",
"q 	c #E5EDF7",
"r 	c #E7EEF7",
"s 	c #E1EAF6",
"t 	c #E2EBF6",
"u 	c #80A2BE",
"v 	c #075189",
"w 	c #085D9E",
"x 	c #0969B3",
"y 	c #0A70BE",
"z 	c #0A71C0",
"A 	c #0A71BF",
"B 	c #9DC2E0",
"C 	c #E5EDF6",
"D 	c #DEE8F5",
"E 	c #DFE9F5",
"F 	c #D9E4F0",
"G 	c #E0E9F5",
"H 	c #E4ECF6",
"I 	c #82A4C0",
"J 	c #09538B",
"K 	c #0B60A1",
"L 	c #0C6CB6",
"M 	c #0D73C1",
"N 	c #0D74C3",
"O 	c #1A7CC6",
"P 	c #C0D7EC",
"Q 	c #E3EBF5",
"R 	c #DCE6F3",
"S 	c #DDE6F3",
"T 	c #E2EAF4",
"U 	c #6891B3",
"V 	c #3C74A1",
"W 	c #DFE8F4",
"X 	c #E2EBF5",
"Y 	c #83A5C0",
"Z 	c #0C548D",
"` 	c #0E61A3",
" .	c #106EB9",
"..	c #1175C4",
"+.	c #1176C6",
"@.	c #1E7DC9",
"#.	c #B9D3EA",
"$.	c #E0E9F4",
"%.	c #E1E9F3",
"&.	c #D9E4F1",
"*.	c #DAE5F1",
"=.	c #B3C7DA",
"-.	c #125890",
";.	c #1162A2",
">.	c #3F83B8",
",.	c #DCE6EF",
"'.	c #84A7C3",
").	c #0F568F",
"!.	c #1164A6",
"~.	c #1471BC",
"{.	c #1578C7",
"].	c #1579C9",
"^.	c #2280CC",
"/.	c #B8D3EA",
"(.	c #DDE7F2",
"_.	c #DAE4F1",
":.	c #DFE7F2",
"<.	c #D7E1F0",
"[.	c #D8E1F0",
"}.	c #DCE5F2",
"|.	c #9AB8D2",
"1.	c #186EB2",
"2.	c #1674BE",
"3.	c #2C7AB8",
"4.	c #1363A2",
"5.	c #1467A9",
"6.	c #1674BD",
"7.	c #187BC9",
"8.	c #187CCB",
"9.	c #2483CE",
"0.	c #B8D2EA",
"a.	c #DCE4F1",
"b.	c #DDE5F1",
"c.	c #D4DFEE",
"d.	c #D5E0EE",
"e.	c #DBE4F0",
"f.	c #9CBCD8",
"g.	c #1D76BF",
"h.	c #1C79C4",
"i.	c #1B77C1",
"j.	c #1C79C5",
"k.	c #1D7ECD",
"l.	c #1D7FCF",
"m.	c #2986D1",
"n.	c #B7D2EA",
"o.	c #D9E3EF",
"p.	c #DAE4EF",
"q.	c #D1DDEC",
"r.	c #D5E0ED",
"s.	c #DBE5EE",
"t.	c #4485BA",
"u.	c #1F7AC5",
"v.	c #2181D0",
"w.	c #2181D1",
"x.	c #2182D2",
"y.	c #2D88D4",
"z.	c #B7D2E9",
"A.	c #D6E1EE",
"B.	c #D2DEEC",
"C.	c #D9E1EE",
"D.	c #CFDAEB",
"E.	c #D2DCEC",
"F.	c #D4DEEB",
"G.	c #5384AD",
"H.	c #1D68A6",
"I.	c #227AC3",
"J.	c #2584D3",
"K.	c #2585D5",
"L.	c #308BD7",
"M.	c #B7D1EA",
"N.	c #D4DEED",
"O.	c #D0DBEB",
"P.	c #D6E0EC",
"Q.	c #CCD8E9",
"R.	c #CFDAEA",
"S.	c #D2DDEA",
"T.	c #5485AC",
"U.	c #1E66A0",
"V.	c #2376BA",
"W.	c #2783CF",
"X.	c #69A9DF",
"Y.	c #2A88D5",
"Z.	c #2988D6",
"`.	c #2989D8",
" +	c #B0CFE9",
".+	c #D5DFEC",
"++	c #CDD9E9",
"@+	c #C9D6E7",
"#+	c #CCD8E8",
"$+	c #D0DBE9",
"%+	c #5686AD",
"&+	c #2168A2",
"*+	c #2778BC",
"=+	c #2B85D1",
"-+	c #2D8BD9",
";+	c #89BAE3",
">+	c #A0C5E3",
",+	c #2D85CF",
"'+	c #2C8AD8",
")+	c #529CD9",
"!+	c #CEDCE9",
"~+	c #CCD9E8",
"{+	c #D1DCEA",
"]+	c #C6D3E6",
"^+	c #C9D5E7",
"/+	c #CFD9E8",
"(+	c #5887AF",
"_+	c #246AA5",
":+	c #2A7BBF",
"<+	c #2F88D4",
"[+	c #318EDC",
"}+	c #318FDE",
"|+	c #68A8DE",
"1+	c #D8E1EC",
"2+	c #9DBFDC",
"3+	c #2F85CD",
"4+	c #2F89D5",
"5+	c #5295CD",
"6+	c #CBD8E7",
"7+	c #D0DAE8",
"8+	c #C7D4E5",
"9+	c #CDD9E6",
"0+	c #5A88B0",
"a+	c #286CA8",
"b+	c #2E7DC2",
"c+	c #338BD7",
"d+	c #3691E0",
"e+	c #3692E2",
"f+	c #4D9BDF",
"g+	c #D2DCE9",
"h+	c #CDD8E7",
"i+	c #9DBDD9",
"j+	c #3487CF",
"k+	c #338AD6",
"l+	c #5E9BCF",
"m+	c #CAD6E6",
"n+	c #C1CFE2",
"o+	c #C4D2E3",
"p+	c #CBD7E5",
"q+	c #5B89B1",
"r+	c #2A6EA9",
"s+	c #3180C4",
"t+	c #368ED9",
"u+	c #3994E2",
"v+	c #3995E4",
"w+	c #3893E1",
"x+	c #CAD8E6",
"y+	c #C4D1E3",
"z+	c #CAD6E5",
"A+	c #408FD2",
"B+	c #B3CDE4",
"C+	c #C6D3E4",
"D+	c #CBD6E5",
"E+	c #BECCE1",
"F+	c #C2CFE2",
"G+	c #C9D5E4",
"H+	c #5C8AB2",
"I+	c #2D71AB",
"J+	c #3483C6",
"K+	c #3A91DC",
"L+	c #3D97E5",
"M+	c #3D98E7",
"N+	c #3D97E6",
"O+	c #ADC8E3",
"P+	c #C0CEE2",
"Q+	c #C0CDE2",
"R+	c #BECFE2",
"S+	c #BFCDE1",
"T+	c #BCCADF",
"U+	c #C0CDE0",
"V+	c #C7D4E2",
"W+	c #5E8BB3",
"X+	c #3072AD",
"Y+	c #3884C9",
"Z+	c #3E93DF",
"`+	c #4099E8",
" @	c #419AEA",
".@	c #5FA7E9",
"+@	c #91BFE8",
"@@	c #BED1E5",
"#@	c #C3D0E2",
"$@	c #BDCBDF",
"%@	c #BDCADF",
"&@	c #C7D3E2",
"*@	c #B9C8DD",
"=@	c #BDCBDE",
"-@	c #C5D2E0",
";@	c #5F8CB4",
">@	c #3274B0",
",@	c #3A87CC",
"'@	c #4196E2",
")@	c #439CEB",
"!@	c #449DED",
"~@	c #59A6EC",
"{@	c #8FBFE9",
"]@	c #B9D0E6",
"^@	c #C8D4E2",
"/@	c #C1CEE0",
"(@	c #BCCBDE",
"_@	c #BAC8DD",
":@	c #C5D1E1",
"<@	c #B7C6DC",
"[@	c #C4D0E0",
"}@	c #608DB5",
"|@	c #3576B1",
"1@	c #3D89CD",
"2@	c #4498E4",
"3@	c #56A5ED",
"4@	c #8ABDEA",
"5@	c #B5CDE5",
"6@	c #C0CDDF",
"7@	c #BBC9DD",
"8@	c #B8C7DC",
"9@	c #B5C4DB",
"0@	c #BDCADE",
"a@	c #6C94BA",
"b@	c #3777B2",
"c@	c #4C91D0",
"d@	c #83B6E5",
"e@	c #B1CBE5",
"f@	c #C7D2E1",
"g@	c #BFCCDF",
"h@	c #B9C7DD",
"i@	c #B6C5DB",
"j@	c #C2CEDF",
"k@	c #B3C2D9",
"l@	c #BAC7DB",
"m@	c #93AFCC",
"n@	c #A4BED8",
"o@	c #C6D1E0",
"p@	c #BECBDD",
"q@	c #B8C6DB",
"r@	c #B4C3D9",
"s@	c #C1CDDE",
"t@	c #B1C0D8",
"u@	c #B3C1D9",
"v@	c #B6C4DA",
"w@	c #BCC9DB",
"x@	c #B2C1D8",
"y@	c #AFBFD7",
"z@	c #BDCADC",
"A@	c #A7B8D1",
"B@	c #B1C0D7",
"C@	c #ADBDD6",
"D@	c #A4B5CF",
"E@	c #B7C5D9",
"    . . . . . . . . . . . . . . . . . . . . . . . . . . . .     ",
"  . + @ # # # # # # # # # # # # # # # # # # # # # # # # @ + .   ",
". $ % & * * * * * * * * * * * * * * * * * * * * * * * * & % = . ",
". - ; > > > > > > > > > > > > > > > > > > > > > , , > > > ; ' . ",
". ) ! ! ! ! ! ! ! ! ! ! ! ! ! ! ! ! ! ! ! ! ~ { ] ^ / ( ! ! ) . ",
". _ : : : : : : : : : : : : : : : : : : : < [ } | 1 2 3 4 : _ . ",
". 5 6 6 6 6 6 6 6 6 6 6 6 6 6 6 6 6 6 6 7 5 8 9 0 a b c @ d 5 . ",
". e f f f f f f f f f f f f f f f f f g h i j k l m n o p q e . ",
". r s s s s s s s s s s s s s s s s t / u v w x y z z A B f r . ",
". C D D D D D D D D D D E t F G D E H I J K L M N N N O P E C . ",
". Q R R R R R R R R R S T U V F W X Y Z `  ...+.+.+.@.#.$.R Q . ",
". %.&.&.&.&.&.&.&.&.&.*.=.-.;.>.,.'.).!.~.{.].].].^./.(._.&.%.. ",
". :.<.<.<.<.<.<.<.<.<.[.}.|.1.2.3.4.5.6.7.8.8.8.9.0.a.[.<.<.:.. ",
". b.c.c.c.c.c.c.c.c.c.c.d.e.f.g.h.i.j.k.l.l.l.m.n.o.d.c.c.c.b.. ",
". p.q.q.q.q.q.q.q.q.q.q.q.r.s.t.u.v.w.x.x.x.y.z.A.B.q.q.q.q.p.. ",
". C.D.D.D.D.D.D.D.D.D.D.E.F.G.H.I.J.K.K.K.L.M.N.O.D.D.D.D.D.C.. ",
". P.Q.Q.Q.Q.Q.Q.Q.Q.Q.R.S.T.U.V.W.X.Y.Z.`. +.+++Q.Q.Q.Q.Q.Q.P.. ",
". F.@+@+@+@+@+@+@+@+#+$+%+&+*+=+-+;+>+,+'+)+!+~+@+@+@+@+@+@+F.. ",
". {+]+]+]+]+]+]+]+^+/+(+_+:+<+[+}+|+1+2+3+4+5+6+^+]+]+]+]+]+{+. ",
". 7+$ $ $ $ $ $ 8+9+0+a+b+c+d+e+e+f+g+h+i+j+k+l+m+$ $ $ $ $ 7+. ",
". 9+n+n+n+n+n+o+p+q+r+s+t+u+v+v+v+w+x+y+z+f.A+B+C+n+n+n+n+n+9+. ",
". D+E+E+E+E+F+G+H+I+J+K+L+M+M+M+M+N+O+P+Q+= R+y+S+E+E+E+E+E+D+. ",
". G+T+T+T+U+V+W+X+Y+Z+`+ @ @ @.@+@@@#@$@T+T+%@T+T+T+T+T+T+T+G+. ",
". &@*@*@=@-@;@>@,@'@)@!@~@{@]@^@/@(@_@*@*@*@*@*@*@*@*@*@*@*@&@. ",
". :@<@_@[@}@|@1@2@3@4@5@&@6@7@8@<@<@<@<@<@<@<@<@<@<@<@<@<@<@:@. ",
". [@9@0@a@b@c@d@e@f@g@h@i@9@9@9@9@9@9@9@9@9@9@9@9@9@9@9@9@9@[@. ",
". j@k@l@m@n@o@p@q@r@k@k@k@k@k@k@k@k@k@k@k@k@k@k@k@k@k@k@k@k@j@. ",
". s@t@u@v@v@u@t@t@t@t@t@t@t@t@t@t@t@t@t@t@t@t@t@t@t@t@t@t@t@s@. ",
". w@x@y@y@y@y@y@y@y@y@y@y@y@y@y@y@y@y@y@y@y@y@y@y@y@y@y@y@x@z@. ",
". A@z@B@C@C@C@C@C@C@C@C@C@C@C@C@C@C@C@C@C@C@C@C@C@C@C@C@B@z@A@. ",
"  . D@E@w@w@w@w@w@w@w@w@w@w@w@w@w@w@w@w@w@w@w@w@w@w@w@w@E@D@.   ",
"    . . . . . . . . . . . . . . . . . . . . . . . . . . . .     "};
