/* XPM */
static char * ico_save_16x16_xpm[] = {
"16 16 80 1",
" 	c None",
".	c #AEB7C5",
"+	c #DAE1EA",
"@	c #F1F6FD",
"#	c #EEF5FC",
"$	c #EBF3FB",
"%	c #EDF4FB",
"&	c #EFF5FC",
"*	c #ECF2F9",
"=	c #EBF2F9",
"-	c #3F8ECA",
";	c #006AB9",
">	c #E9F0F6",
",	c #EAF0F7",
"'	c #056EBD",
")	c #EFF4F8",
"!	c #EBF1F7",
"~	c #E6EDF4",
"{	c #E8EEF5",
"]	c #0C73C2",
"^	c #1F7EC6",
"/	c #67A7D7",
"(	c #E5ECF4",
"_	c #E0E8F2",
":	c #E3E9F1",
"<	c #E5EBF2",
"[	c #1479C8",
"}	c #82B6DF",
"|	c #E4EAF2",
"1	c #DEE6F0",
"2	c #85B8DF",
"3	c #DFE6EE",
"4	c #E1E8EF",
"5	c #1D80CF",
"6	c #88BAE2",
"7	c #E4EAF0",
"8	c #8ABBE2",
"9	c #DCE3EB",
"0	c #DEE5EC",
"a	c #2787D6",
"b	c #5BA3DD",
"c	c #D8DFE8",
"d	c #DAE1E9",
"e	c #318EDE",
"f	c #D9E4EC",
"g	c #DEE4EB",
"h	c #A2C8E8",
"i	c #9EC6E8",
"j	c #B4D1E9",
"k	c #D5DCE5",
"l	c #D7DEE6",
"m	c #3A95E5",
"n	c #D8DEE6",
"o	c #CAD3E0",
"p	c #8ABDE8",
"q	c #D1D9E2",
"r	c #D3DAE3",
"s	c #429BEB",
"t	c #D4DBE3",
"u	c #C6CFDD",
"v	c #8EBFEB",
"w	c #CED6E0",
"x	c #CBD4DE",
"y	c #74B3EE",
"z	c #49A0F0",
"A	c #CDD6DF",
"B	c #C2CCDA",
"C	c #CDD5DF",
"D	c #52A4F0",
"E	c #9DC7EC",
"F	c #CCD3DD",
"G	c #C2CBD8",
"H	c #C9D0DC",
"I	c #CAD1DC",
"J	c #C3CBD9",
"K	c #BFC8D7",
"L	c #CBD2DC",
"M	c #CDD4DD",
"N	c #C1C9D4",
"O	c #C9D1DA",
" .............. ",
".+@@@@@@@@@@@@+.",
".#$%&&&&&&&&%$#.",
".*=-;;;;;;;;-=*.",
".>,''')!)'''',>.",
".~{]^/(_(/^]]{~.",
".:<[[}|1|2[[[<:.",
".34555678555543.",
".90aaaabaaaaa09.",
".cdeefdghijeedc.",
".klmmnokmmpmmlk.",
".qrsstutssvssrq.",
".wxyzABCDzEzyxw.",
".FGHIJKJLMLFHGF.",
".NOOOOOOOOOOOON.",
" .............. "};
