/* XPM */
static char * ico_image_xpm[] = {
"16 16 100 2",
"  	c None",
". 	c #8AA0C3",
"+ 	c #CDD9E9",
"@ 	c #F0F6FD",
"# 	c #EDF4FC",
"$ 	c #E9F1FB",
"% 	c #EAF1FA",
"& 	c #E5EEF9",
"* 	c #E7EEF7",
"= 	c #E1EAF6",
"- 	c #E2EBF6",
"; 	c #E6EDF7",
"> 	c #E4ECF7",
", 	c #E3EBF5",
"' 	c #DCE6F3",
") 	c #DDE7F3",
"! 	c #3C7198",
"~ 	c #004578",
"{ 	c #AFC4D6",
"] 	c #DFE8F4",
"^ 	c #DFE7F2",
"/ 	c #D7E1F0",
"( 	c #DBE4F1",
"_ 	c #93B0C7",
": 	c #054B7F",
"< 	c #064F87",
"[ 	c #236497",
"} 	c #D4DFEC",
"| 	c #DAE3F1",
"1 	c #DCE5F1",
"2 	c #D9E2F1",
"3 	c #DAE4EF",
"4 	c #D2DEEC",
"5 	c #DDE6F0",
"6 	c #286391",
"7 	c #0E5790",
"8 	c #1064A5",
"9 	c #1068AC",
"0 	c #6E9DC2",
"a 	c #DFE7F0",
"b 	c #789DBA",
"c 	c #43769E",
"d 	c #D6E0EC",
"e 	c #D3DDEB",
"f 	c #7DA0BC",
"g 	c #16598F",
"h 	c #1A69A8",
"i 	c #1E7AC4",
"j 	c #1F7ECB",
"k 	c #1C73B8",
"l 	c #A5C0D6",
"m 	c #16588E",
"n 	c #165A90",
"o 	c #A2BCD2",
"p 	c #D1DCEB",
"q 	c #D3DEEB",
"r 	c #CBD8E6",
"s 	c #2A6698",
"t 	c #2268A3",
"u 	c #297CC3",
"v 	c #2D89D8",
"w 	c #2E8BDB",
"x 	c #4392D6",
"y 	c #327CBC",
"z 	c #236AA7",
"A 	c #2570B0",
"B 	c #3D81BB",
"C 	c #CAD7E6",
"D 	c #D4DFE9",
"E 	c #6C94B7",
"F 	c #2969A1",
"G 	c #317CBD",
"H 	c #388EDA",
"I 	c #3B95E5",
"J 	c #3B96E6",
"K 	c #3A94E3",
"L 	c #368AD4",
"M 	c #3383C8",
"N 	c #368AD3",
"O 	c #87AFD2",
"P 	c #D3DEE8",
"Q 	c #D2DCE7",
"R 	c #2F699F",
"S 	c #3578B4",
"T 	c #3F8FD7",
"U 	c #459CEB",
"V 	c #469EEE",
"W 	c #469DED",
"X 	c #449AE7",
"Y 	c #4398E5",
"Z 	c #459BE9",
"` 	c #3E8CD3",
" .	c #D1DCE7",
"..	c #C9D4E2",
"+.	c #C5D1E1",
"@.	c #C9D4E3",
"#.	c #C2CEDF",
"$.	c #B3C2D9",
"%.	c #AFBFD5",
"&.	c #BFCCDD",
"  . . . . . . . . . . . . . .   ",
". + @ @ @ @ @ @ @ @ @ @ @ @ + . ",
". # $ $ $ $ $ $ $ $ $ $ $ $ # . ",
". % & & & & & & & & & & & & % . ",
". * = = - ; * > = = = = = = * . ",
". , ' ) , ! ~ { ] ' ' ' ' ' , . ",
". ^ / ( _ : < [ } | ( 1 2 / ^ . ",
". 3 4 5 6 7 8 9 0 a b c 3 4 3 . ",
". d e f g h i j k l m n o p d . ",
". q r s t u v w x y z A B C e . ",
". D E F G H I J K L M N L O P . ",
". Q R S T U V V W X Y Z Z `  .. ",
". ..+.@.@.@.@.@.@.@.@.@.@.+.... ",
". #.$.$.$.$.$.$.$.$.$.$.$.$.#.. ",
". %.&.&.&.&.&.&.&.&.&.&.&.&.%.. ",
"  . . . . . . . . . . . . . .   "};
