/* XPM */
static char * ico_color_32x32_xpm[] = {
"32 32 88 1",
" 	c None",
".	c #8AA0C3",
"+	c #BFCDE2",
"@	c #E6EEF8",
"#	c #F1F7FE",
"$	c #C4D1E4",
"%	c #F0F6FD",
"&	c #EDF4FD",
"*	c #ECF4FD",
"=	c #C5D2E4",
"-	c #E9F0F9",
";	c #ECF3FC",
">	c #EBF3FC",
",	c #EAF1F9",
"'	c #EDF4FC",
")	c #E9F1FB",
"!	c #ECF3FB",
"~	c #E7F0FA",
"{	c #EAF1FA",
"]	c #E5EEF9",
"^	c #A6A6A6",
"/	c #828283",
"(	c #212121",
"_	c #E9F0F8",
":	c #E3ECF7",
"<	c #FFFFFF",
"[	c #C7C8CA",
"}	c #333333",
"|	c #E7EEF7",
"1	c #E1EAF6",
"2	c #E5EDF6",
"3	c #DEE8F5",
"4	c #E3EBF5",
"5	c #DCE6F3",
"6	c #E1E9F3",
"7	c #D9E4F1",
"8	c #DFE7F2",
"9	c #D7E1F0",
"0	c #DDE5F1",
"a	c #D4DFEE",
"b	c #6D090C",
"c	c #9C3317",
"d	c #A68B00",
"e	c #DAE4EF",
"f	c #D1DDEC",
"g	c #A70E13",
"h	c #F04E23",
"i	c #FFD500",
"j	c #D9E1EE",
"k	c #CFDAEB",
"l	c #D6E0EC",
"m	c #CCD8E9",
"n	c #D4DEEB",
"o	c #C9D6E7",
"p	c #D1DCEA",
"q	c #C6D3E6",
"r	c #D0DAE8",
"s	c #CDD9E6",
"t	c #C1CFE2",
"u	c #537F2B",
"v	c #0B5A85",
"w	c #1E205F",
"x	c #CBD6E5",
"y	c #BECCE1",
"z	c #80C342",
"A	c #118ACC",
"B	c #2E3192",
"C	c #C9D5E4",
"D	c #BCCADF",
"E	c #C7D3E2",
"F	c #B9C8DD",
"G	c #C5D1E1",
"H	c #B7C6DC",
"I	c #C4D0E0",
"J	c #B5C4DB",
"K	c #C2CEDF",
"L	c #B3C2D9",
"M	c #C1CDDE",
"N	c #B1C0D8",
"O	c #BCC9DB",
"P	c #B2C1D8",
"Q	c #AFBFD7",
"R	c #BDCADC",
"S	c #A7B8D1",
"T	c #B1C0D7",
"U	c #ADBDD6",
"V	c #A4B5CF",
"W	c #B7C5D9",
"  ............................  ",
" .+@########################@+. ",
".$%&************************&%=.",
".-;>>>>>>>>>>>>>>>>>>>>>>>>>>;,.",
".'))))))))))))))))))))))))))))'.",
".!~~~~~~~~~~~~~~~~~~~~~~~~~~~~!.",
".{]]]]^^^^^^]//////]((((((]]]]{.",
"._::::^<<<<<:/[[[[[:(}}}}}::::_.",
".|1111^<<<<<1/[[[[[1(}}}}}1111|.",
".23333^<<<<<3/[[[[[3(}}}}}33332.",
".45555^<<<<<5/[[[[[5(}}}}}55554.",
".67777^<<<<<7/[[[[[7(}}}}}77776.",
".899999999999999999999999999998.",
".0aaaabbbbbbaccccccaddddddaaaa0.",
".effffbgggggfchhhhhfdiiiiiffffe.",
".jkkkkbgggggkchhhhhkdiiiiikkkkj.",
".lmmmmbgggggmchhhhhmdiiiiimmmml.",
".noooobgggggochhhhhodiiiiioooon.",
".pqqqqbgggggqchhhhhqdiiiiiqqqqp.",
".r$$$$$$$$$$$$$$$$$$$$$$$$$$$$r.",
".sttttuuuuuutvvvvvvtwwwwwwtttts.",
".xyyyyuzzzzzyvAAAAAywBBBBByyyyx.",
".CDDDDuzzzzzDvAAAAADwBBBBBDDDDC.",
".EFFFFuzzzzzFvAAAAAFwBBBBBFFFFE.",
".GHHHHuzzzzzHvAAAAAHwBBBBBHHHHG.",
".IJJJJuzzzzzJvAAAAAJwBBBBBJJJJI.",
".KLLLLLLLLLLLLLLLLLLLLLLLLLLLLK.",
".MNNNNNNNNNNNNNNNNNNNNNNNNNNNNM.",
".OPQQQQQQQQQQQQQQQQQQQQQQQQQQPR.",
".SRTUUUUUUUUUUUUUUUUUUUUUUUUTRS.",
" .VWOOOOOOOOOOOOOOOOOOOOOOOOWV. ",
"  ............................  "};
