/* XPM */
static char * ico_zoom_fix_32x32_xpm[] = {
"32 32 375 2",
"  	c None",
". 	c #8AA0C3",
"+ 	c #BFCDE2",
"@ 	c #E6EEF8",
"# 	c #F1F7FE",
"$ 	c #C4D1E4",
"% 	c #F0F6FD",
"& 	c #EDF4FD",
"* 	c #ECF4FD",
"= 	c #C5D2E4",
"- 	c #E9F0F9",
"; 	c #ECF3FC",
"> 	c #EBF3FC",
", 	c #ECF4FC",
"' 	c #EDF4FC",
") 	c #EFF5FC",
"! 	c #F0F6FC",
"~ 	c #EAF1F9",
"{ 	c #E9F1FB",
"] 	c #EAF2FB",
"^ 	c #ECF3FB",
"/ 	c #CBDBE8",
"( 	c #799FBC",
"_ 	c #37719D",
": 	c #0C558B",
"< 	c #014E88",
"[ 	c #0F5990",
"} 	c #3A76A4",
"| 	c #7CA3C1",
"1 	c #D1DFEC",
"2 	c #E7F0FA",
"3 	c #E9F1FA",
"4 	c #E5EEF6",
"5 	c #6993B3",
"6 	c #064F86",
"7 	c #035390",
"8 	c #035A9B",
"9 	c #035FA4",
"0 	c #0462A9",
"a 	c #0463AB",
"b 	c #035EA3",
"c 	c #095D9C",
"d 	c #6E9DC0",
"e 	c #E5EEF7",
"f 	c #EAF1FA",
"g 	c #E5EEF9",
"h 	c #E7EFF9",
"i 	c #D4E1ED",
"j 	c #326B97",
"k 	c #05528C",
"l 	c #065C9E",
"m 	c #0665AD",
"n 	c #076AB5",
"o 	c #076CBA",
"p 	c #076EBD",
"q 	c #076FBD",
"r 	c #0665AC",
"s 	c #387DB1",
"t 	c #D9E6F1",
"u 	c #E9F0F8",
"v 	c #E3ECF7",
"w 	c #E4EDF7",
"x 	c #E2EBF5",
"y 	c #326C99",
"z 	c #075691",
"A 	c #0862A6",
"B 	c #096CB7",
"C 	c #3288C9",
"D 	c #A6C9E6",
"E 	c #DFEAF5",
"F 	c #E3EDF6",
"G 	c #A8C9E4",
"H 	c #428DC6",
"I 	c #096EBB",
"J 	c #096FBD",
"K 	c #096BB6",
"L 	c #3981B8",
"M 	c #E5EDF6",
"N 	c #E7EEF7",
"O 	c #E1EAF6",
"P 	c #E6EDF7",
"Q 	c #6892B3",
"R 	c #09558F",
"S 	c #0A64A8",
"T 	c #0F71BC",
"U 	c #7DB2DC",
"V 	c #E4ECF6",
"W 	c #E4ECF7",
"X 	c #E2EBF6",
"Y 	c #E2EAF6",
"Z 	c #E8EFF8",
"` 	c #89B4D5",
" .	c #1371B9",
"..	c #0C71BE",
"+.	c #0C6EBA",
"@.	c #76A8CE",
"#.	c #E5EDF7",
"$.	c #DEE8F5",
"%.	c #E0E9F5",
"&.	c #CBDAE8",
"*.	c #10578E",
"=.	c #0D62A4",
"-.	c #0F70BC",
";.	c #90BDE1",
">.	c #DFE9F5",
",.	c #E3ECF6",
"'.	c #A3C3DB",
").	c #0F6DB6",
"!.	c #1074C1",
"~.	c #1473BC",
"{.	c #CEDEED",
"].	c #E3EBF5",
"^.	c #DCE6F3",
"/.	c #E0E9F4",
"(.	c #7EA2BF",
"_.	c #0E5B98",
":.	c #116DB6",
"<.	c #4492D0",
"[.	c #E4ECF5",
"}.	c #DDE7F3",
"|.	c #DDE6F3",
"1.	c #568FBD",
"2.	c #1270BB",
"3.	c #1376C4",
"4.	c #7EAFD6",
"5.	c #E1E9F3",
"6.	c #D9E4F1",
"7.	c #E0E9F3",
"8.	c #3C74A1",
"9.	c #1365A6",
"0.	c #1675C0",
"a.	c #9FC6E4",
"b.	c #DDE7F2",
"c.	c #DCE6F2",
"d.	c #B0C8DB",
"e.	c #146AAD",
"f.	c #1677C4",
"g.	c #4892CD",
"h.	c #DFE7F2",
"i.	c #D7E1F0",
"j.	c #E0E8F3",
"k.	c #22659A",
"l.	c #186EB2",
"m.	c #1A7BC8",
"n.	c #CFDFEF",
"o.	c #D8E2F0",
"p.	c #DDE6F1",
"q.	c #1564A2",
"r.	c #1977C1",
"s.	c #2E86CC",
"t.	c #E0E8F2",
"u.	c #DDE5F1",
"v.	c #D4DFEE",
"w.	c #DCE5F0",
"x.	c #175F99",
"y.	c #1C74BB",
"z.	c #1F80CE",
"A.	c #D5DFEE",
"B.	c #DEE7F1",
"C.	c #266BA2",
"D.	c #1C76BF",
"E.	c #2482CF",
"F.	c #DAE4EF",
"G.	c #D1DDEC",
"H.	c #DCE5EF",
"I.	c #296BA2",
"J.	c #2078BF",
"K.	c #2383D2",
"L.	c #CFDFEC",
"M.	c #D2DEEC",
"N.	c #DCE4EF",
"O.	c #1C639D",
"P.	c #368DD4",
"Q.	c #DBE4EF",
"R.	c #D9E1EE",
"S.	c #CFDAEB",
"T.	c #D8E1EE",
"U.	c #457FAE",
"V.	c #2379C0",
"W.	c #2786D4",
"X.	c #A0C3E2",
"Y.	c #D4DEEC",
"Z.	c #D2DDEC",
"`.	c #B3C6D9",
" +	c #1D659F",
".+	c #247BC4",
"++	c #569FDB",
"@+	c #D6E0EC",
"#+	c #CCD8E9",
"$+	c #D2DDEB",
"%+	c #7CA3C4",
"&+	c #2578BE",
"*+	c #2A87D6",
"=+	c #5A9DD7",
"-+	c #D7E1ED",
";+	c #CDD9E9",
">+	c #648FB4",
",+	c #226DAC",
"'+	c #2881CC",
")+	c #8EBCE4",
"!+	c #D4DEEB",
"~+	c #C9D6E7",
"{+	c #CCD8E8",
"]+	c #C2D2E2",
"^+	c #2975B7",
"/+	c #2D87D3",
"(+	c #2E89D7",
"_+	c #9DC0DE",
":+	c #D1DCEA",
"<+	c #CAD7E7",
"[+	c #D0DBE9",
"}+	c #A8BFD4",
"|+	c #22659F",
"1+	c #2879BD",
"2+	c #2E89D6",
"3+	c #5FA3DC",
"4+	c #D2DEEA",
"5+	c #C6D3E6",
"6+	c #CFDAE9",
"7+	c #74A1C7",
"8+	c #2E83CC",
"9+	c #328EDC",
"0+	c #348AD4",
"a+	c #9CBDDA",
"b+	c #D3DDEA",
"c+	c #CBD7E8",
"d+	c #C7D4E6",
"e+	c #CAD6E7",
"f+	c #A9C0D4",
"g+	c #2D6BA0",
"h+	c #2974B4",
"i+	c #3086D1",
"j+	c #338FDE",
"k+	c #328DDB",
"l+	c #5E9CD1",
"m+	c #C9D5E7",
"n+	c #D0DAE8",
"o+	c #C7D3E5",
"p+	c #CBD7E6",
"q+	c #4E8DC6",
"r+	c #348CD8",
"s+	c #3690DF",
"t+	c #3387D1",
"u+	c #6098C8",
"v+	c #A8C0D7",
"w+	c #D1DCE8",
"x+	c #D3DDE9",
"y+	c #6591B7",
"z+	c #2769A3",
"A+	c #2C76B6",
"B+	c #3286CF",
"C+	c #3793E3",
"D+	c #3792E2",
"E+	c #5F9BCF",
"F+	c #CDD9E7",
"G+	c #C7D4E5",
"H+	c #CDD9E6",
"I+	c #C1CFE2",
"J+	c #C2D1E2",
"K+	c #5295CE",
"L+	c #3991DD",
"M+	c #3A93E1",
"N+	c #378DD7",
"O+	c #3382C6",
"P+	c #2F77B6",
"Q+	c #2C71AC",
"R+	c #2C6FAA",
"S+	c #2C70AC",
"T+	c #2F77B5",
"U+	c #3381C5",
"V+	c #378CD6",
"W+	c #3B96E5",
"X+	c #3B95E4",
"Y+	c #388FDA",
"Z+	c #649ED0",
"`+	c #C4D2E3",
" @	c #CBD6E5",
".@	c #BECCE1",
"+@	c #BFCCE1",
"@@	c #C3D0E3",
"#@	c #C7D4E4",
"$@	c #7CACD8",
"%@	c #3D92DD",
"&@	c #3D96E4",
"*@	c #3C94E2",
"=@	c #3A8FDA",
"-@	c #398CD6",
";@	c #398BD4",
">@	c #398BD5",
",@	c #4095E1",
"'@	c #5BA5E6",
")@	c #3E97E6",
"!@	c #3E97E7",
"~@	c #3E98E8",
"{@	c #3B91DD",
"]@	c #659FD1",
"^@	c #C9D6E5",
"/@	c #C1CEE2",
"(@	c #C9D5E4",
"_@	c #BCCADF",
":@	c #BFCCE0",
"<@	c #C7D3E3",
"[@	c #B8CCE1",
"}@	c #8AB7E1",
"|@	c #61A5E3",
"1@	c #459AE6",
"2@	c #429AEA",
"3@	c #489EEB",
"4@	c #64ABE9",
"5@	c #8EBDE8",
"6@	c #BDD2E6",
"7@	c #D0DAE7",
"8@	c #73ACDE",
"9@	c #3F94E0",
"0@	c #419AE9",
"a@	c #429BEB",
"b@	c #80AED8",
"c@	c #C5D1E2",
"d@	c #C7D3E2",
"e@	c #B9C8DD",
"f@	c #BAC9DD",
"g@	c #BDCBDE",
"h@	c #C2CFE0",
"i@	c #C6D3E2",
"j@	c #C9D5E3",
"k@	c #CAD6E3",
"l@	c #C6D2E2",
"m@	c #C7D4E2",
"n@	c #70A5D5",
"o@	c #4195E1",
"p@	c #449CEB",
"q@	c #459DED",
"r@	c #509CE1",
"s@	c #C5D1E1",
"t@	c #B7C6DC",
"u@	c #C6D2E1",
"v@	c #70A5D4",
"w@	c #4397E3",
"x@	c #469EED",
"y@	c #479FEF",
"z@	c #54A4EB",
"A@	c #C4D0E0",
"B@	c #B5C4DB",
"C@	c #B8C7DC",
"D@	c #C4D1E0",
"E@	c #72A6D6",
"F@	c #4699E5",
"G@	c #49A0EF",
"H@	c #4AA1F1",
"I@	c #88BBEB",
"J@	c #BFCCDE",
"K@	c #C2CEDF",
"L@	c #B3C2D9",
"M@	c #B7C5DA",
"N@	c #BFCDDD",
"O@	c #82AFD9",
"P@	c #57A2E6",
"Q@	c #5AA7EE",
"R@	c #87BBEC",
"S@	c #BFCDDF",
"T@	c #B6C4DA",
"U@	c #C1CDDE",
"V@	c #B1C0D8",
"W@	c #B4C2D9",
"X@	c #BBC8DC",
"Y@	c #B4C3D9",
"Z@	c #BCC9DB",
"`@	c #B2C1D8",
" #	c #AFBFD7",
".#	c #BDCADC",
"+#	c #A7B8D1",
"@#	c #B1C0D7",
"##	c #ADBDD6",
"$#	c #A4B5CF",
"%#	c #B7C5D9",
"    . . . . . . . . . . . . . . . . . . . . . . . . . . . .     ",
"  . + @ # # # # # # # # # # # # # # # # # # # # # # # # @ + .   ",
". $ % & * * * * * * * * * * * * * * * * * * * * * * * * & % = . ",
". - ; > > > > > > , ' ) ! ! ! ) ' , > > > > > > > > > > > ; ~ . ",
". ' { { { { { ] ^ / ( _ : < [ } | 1 ^ ] { { { { { { { { { { ' . ",
". ^ 2 2 2 2 3 4 5 6 7 8 9 0 a 0 b c d e 3 2 2 2 2 2 2 2 2 2 ^ . ",
". f g g g h i j k l m n o p q p o n r s t h g g g g g g g g f . ",
". u v v w x y z A B C D E ~ F G H I J K L M w v v v v v v v u . ",
". N O O P Q R S T U V W X O Y W Z `  ...+.@.#.O O O O O O O N . ",
". M $.%.&.*.=.-.;.V >.$.$.$.$.$.>.,.'.).!.~.{.%.$.$.$.$.$.$.M . ",
". ].^./.(._.:.<.[.}.^.^.^.^.^.^.^.|.].1.2.3.4./.^.^.^.^.^.^.].. ",
". 5.6.7.8.9.0.a.b.6.6.6.6.6.6.6.6.6.c.d.e.f.g.7.6.6.6.6.6.6.5.. ",
". h.i.j.k.l.m.n.o.i.i.i.i.i.i.i.i.i.o.p.q.r.s.t.i.i.i.i.i.i.h.. ",
". u.v.w.x.y.z.t.A.v.v.v.v.v.v.v.v.v.v.B.C.D.E.B.v.v.v.v.v.v.u.. ",
". F.G.H.I.J.K.L.M.G.G.G.G.G.G.G.G.G.M.N.O.J.P.Q.G.G.G.G.G.G.F.. ",
". R.S.T.U.V.W.X.Y.S.S.S.S.S.S.S.S.S.Z.`. +.+++T.S.S.S.S.S.S.R.. ",
". @+#+$+%+&+*+=+-+;+#+#+#+#+#+#+#+;+@+>+,+'+)+Y.#+#+#+#+#+#+@+. ",
". !+~+{+]+^+/+(+_+:+<+~+~+~+~+~+<+[+}+|+1+2+3+4+{+~+~+~+~+~+!+. ",
". :+5+5+6+7+8+9+0+a+b+c+d+5+d+e+:+f+g+h+i+j+k+l+6+m+5+5+5+5+:+. ",
". n+$ $ o+p+q+r+s+t+u+v+w+x+x+}+y+z+A+B+s+C+D+r+E+F+G+$ $ $ n+. ",
". H+I+I+I+= J+K+L+M+N+O+P+Q+R+S+T+U+V+M+W+W+W+X+Y+Z+p+`+I+I+H+. ",
".  @.@.@.@+@@@#@$@%@&@*@=@-@;@>@=@,@'@)@!@~@~@~@!@{@]@^@/@.@ @. ",
". (@_@_@_@_@_@:@<@[@}@|@1@2@3@4@5@6@7@8@9@0@a@a@a@0@9@b@c@_@(@. ",
". d@e@e@e@e@e@e@f@g@h@i@j@k@j@l@h@g@g@m@n@o@p@q@q@q@p@r@d@e@d@. ",
". s@t@t@t@t@t@t@t@t@t@t@t@t@t@t@t@t@t@f@u@v@w@x@y@y@y@z@u@t@s@. ",
". A@B@B@B@B@B@B@B@B@B@B@B@B@B@B@B@B@B@B@C@D@E@F@G@H@H@I@J@B@A@. ",
". K@L@L@L@L@L@L@L@L@L@L@L@L@L@L@L@L@L@L@L@M@N@O@P@Q@R@S@T@L@K@. ",
". U@V@V@V@V@V@V@V@V@V@V@V@V@V@V@V@V@V@V@V@V@W@X@U@U@X@Y@V@V@U@. ",
". Z@`@ # # # # # # # # # # # # # # # # # # # # # # # # # #`@.#. ",
". +#.#@#################################################@#.#+#. ",
"  . $#%#Z@Z@Z@Z@Z@Z@Z@Z@Z@Z@Z@Z@Z@Z@Z@Z@Z@Z@Z@Z@Z@Z@Z@Z@%#$#.   ",
"    . . . . . . . . . . . . . . . . . . . . . . . . . . . .     "};
