/* XPM */
static char * ico_replace_32x32_xpm[] = {
"32 32 319 2",
"  	c None",
". 	c #8AA0C3",
"+ 	c #BFCDE2",
"@ 	c #E6EEF8",
"# 	c #F1F7FE",
"$ 	c #C4D1E4",
"% 	c #F0F6FD",
"& 	c #EDF4FD",
"* 	c #ECF4FD",
"= 	c #C5D2E4",
"- 	c #E9F0F9",
"; 	c #ECF3FC",
"> 	c #EBF3FC",
", 	c #EAF1F9",
"' 	c #EDF4FC",
") 	c #E9F1FB",
"! 	c #ECF3FB",
"~ 	c #E7F0FA",
"{ 	c #EAF1FA",
"] 	c #E5EEF9",
"^ 	c #E6EEF9",
"/ 	c #E8F0F9",
"( 	c #EBF2FA",
"_ 	c #ECF2FA",
": 	c #E7EFF9",
"< 	c #E9F0F8",
"[ 	c #E3ECF7",
"} 	c #E4EDF7",
"| 	c #8AABC5",
"1 	c #004980",
"2 	c #004D86",
"3 	c #004E88",
"4 	c #E8F0F8",
"5 	c #E7EEF7",
"6 	c #E1EAF6",
"7 	c #E2EBF6",
"8 	c #E6EDF7",
"9 	c #8DB0CC",
"0 	c #035B9D",
"a 	c #0361A9",
"b 	c #0363AB",
"c 	c #E9EFF8",
"d 	c #E5EDF6",
"e 	c #DEE8F5",
"f 	c #DFE9F5",
"g 	c #E4EDF6",
"h 	c #8EB4D2",
"i 	c #0667B1",
"j 	c #066EBC",
"k 	c #066FBE",
"l 	c #E6EEF7",
"m 	c #E3EBF5",
"n 	c #DCE6F3",
"o 	c #DDE7F3",
"p 	c #739AB8",
"q 	c #83A6C2",
"r 	c #E2EAF5",
"s 	c #E8EFF6",
"t 	c #4484B5",
"u 	c #096BB6",
"v 	c #0A72C0",
"w 	c #0A72C1",
"x 	c #E5ECF5",
"y 	c #E1E9F3",
"z 	c #D9E4F1",
"A 	c #DAE5F1",
"B 	c #E0E9F3",
"C 	c #759CB8",
"D 	c #024E86",
"E 	c #407EAC",
"F 	c #E2EAF3",
"G 	c #6C96B6",
"H 	c #0C5A97",
"I 	c #0E6AB2",
"J 	c #0F74C2",
"K 	c #0F75C4",
"L 	c #E3EBF4",
"M 	c #DFE7F2",
"N 	c #D7E1F0",
"O 	c #D8E2F0",
"P 	c #769CB9",
"Q 	c #045088",
"R 	c #4283B3",
"S 	c #E0E9F1",
"T 	c #6E96B6",
"U 	c #0E5790",
"V 	c #1165A7",
"W 	c #1373BE",
"X 	c #1479C7",
"Y 	c #1479C8",
"Z 	c #DDE5F1",
"` 	c #D4DFEE",
" .	c #D5E0EE",
"..	c #DCE5F0",
"+.	c #779DB9",
"@.	c #07528B",
"#.	c #4484B4",
"$.	c #DEE8F1",
"%.	c #7097B7",
"&.	c #125A93",
"*.	c #1568AA",
"=.	c #1876C0",
"-.	c #197CCA",
";.	c #197DCC",
">.	c #DFE7F1",
",.	c #DAE4EF",
"'.	c #D1DDEC",
").	c #D2DEEC",
"!.	c #D3DEED",
"~.	c #DAE3EF",
"{.	c #779DBA",
"].	c #0B548D",
"^.	c #4785B6",
"/.	c #DCE6F0",
"(.	c #7198B8",
"_.	c #165D96",
":.	c #196CAE",
"<.	c #1C79C4",
"[.	c #1E80CE",
"}.	c #1E81D0",
"|.	c #DDE6F0",
"1.	c #D9E1EE",
"2.	c #CFDAEB",
"3.	c #D4DEED",
"4.	c #92AFC9",
"5.	c #D6E0ED",
"6.	c #D0DBEB",
"7.	c #D1DBEB",
"8.	c #D8E1EE",
"9.	c #789DBB",
"0.	c #4A87B9",
"a.	c #DBE5EF",
"b.	c #759BBB",
"c.	c #1A6099",
"d.	c #1E6FB0",
"e.	c #227DC8",
"f.	c #2484D2",
"g.	c #2485D4",
"h.	c #549EDB",
"i.	c #2483D2",
"j.	c #2484D3",
"k.	c #DBE3EF",
"l.	c #D6E0EC",
"m.	c #CCD8E9",
"n.	c #D7E0EC",
"o.	c #14588D",
"p.	c #99B7D0",
"q.	c #D4DEEB",
"r.	c #CFDAEA",
"s.	c #D6DFEC",
"t.	c #7A9EBB",
"u.	c #125A92",
"v.	c #4C8ABA",
"w.	c #DAE5ED",
"x.	c #779CBC",
"y.	c #1E639D",
"z.	c #2372B4",
"A.	c #2881CC",
"B.	c #2A88D7",
"C.	c #2A89D9",
"D.	c #7CB4E2",
"E.	c #DDE5EE",
"F.	c #96BEDF",
"G.	c #2A87D6",
"H.	c #D9E2ED",
"I.	c #C9D6E7",
"J.	c #1B6DAE",
"K.	c #9BBBD6",
"L.	c #DAE3ED",
"M.	c #7BA0BD",
"N.	c #165D95",
"O.	c #4F8CBC",
"P.	c #D9E3ED",
"Q.	c #799DBC",
"R.	c #23669F",
"S.	c #2875B8",
"T.	c #2D85D0",
"U.	c #308CDB",
"V.	c #308DDD",
"W.	c #80B6E4",
"X.	c #CCD9E8",
"Y.	c #D2DDEA",
"Z.	c #97BAD8",
"`.	c #2C82CD",
" +	c #D4DFEB",
".+	c #D1DCEA",
"++	c #C6D3E6",
"@+	c #1B629C",
"#+	c #2077BE",
"$+	c #237CC4",
"%+	c #5C94C2",
"&+	c #1B65A1",
"*+	c #4C8BBE",
"=+	c #D1DEEB",
"-+	c #779CBD",
";+	c #2669A2",
">+	c #2C79BB",
",+	c #3288D4",
"'+	c #3590DF",
")+	c #3591E1",
"!+	c #83B8E7",
"~+	c #C8D5E7",
"{+	c #C8D4E7",
"]+	c #CFDAE9",
"^+	c #90B4D6",
"/+	c #CCD8E8",
"(+	c #D0DAE8",
"_+	c #D3DDE9",
":+	c #1F65A0",
"<+	c #267DC6",
"[+	c #2987D6",
"}+	c #2780CB",
"|+	c #5093CD",
"1+	c #CCD8E7",
"2+	c #8BABC9",
"3+	c #2E77B6",
"4+	c #368AD5",
"5+	c #3A94E3",
"6+	c #3A95E5",
"7+	c #85BAE8",
"8+	c #C6D3E5",
"9+	c #C6D2E5",
"0+	c #C7D3E5",
"a+	c #CDD9E6",
"b+	c #C1CFE2",
"c+	c #D1DBE8",
"d+	c #2368A3",
"e+	c #2C81CA",
"f+	c #DCE4EC",
"g+	c #D0DAE7",
"h+	c #CBD7E6",
"i+	c #C4D2E3",
"j+	c #C3D0E3",
"k+	c #CCD7E6",
"l+	c #92B5D5",
"m+	c #3A8DD7",
"n+	c #3E97E6",
"o+	c #3F99E9",
"p+	c #89BCEA",
"q+	c #C3D1E3",
"r+	c #CBD6E5",
"s+	c #BECCE1",
"t+	c #CED9E7",
"u+	c #276BA6",
"v+	c #3084CE",
"w+	c #C0CDE2",
"x+	c #C9D5E5",
"y+	c #92B7D9",
"z+	c #3F91DB",
"A+	c #439AE9",
"B+	c #449CEC",
"C+	c #8BBDEB",
"D+	c #C0CEE2",
"E+	c #C9D5E4",
"F+	c #BCCADF",
"G+	c #CDD7E5",
"H+	c #2B6EA9",
"I+	c #3588D1",
"J+	c #BECCE0",
"K+	c #C9D4E3",
"L+	c #91B6D9",
"M+	c #4394DF",
"N+	c #479DEC",
"O+	c #8CBFEC",
"P+	c #C9D4E4",
"Q+	c #C7D3E2",
"R+	c #B9C8DD",
"S+	c #CBD6E3",
"T+	c #2E71AC",
"U+	c #3A8CD5",
"V+	c #BBCADE",
"W+	c #C6D2E2",
"X+	c #8DB4D7",
"Y+	c #88B7E3",
"Z+	c #C5D1E1",
"`+	c #B7C6DC",
" @	c #3273AE",
".@	c #3E8FD8",
"+@	c #D6DFE7",
"@@	c #C6D2E1",
"#@	c #C1CEE0",
"$@	c #C0CCDF",
"%@	c #BECCDF",
"&@	c #BAC8DD",
"*@	c #C4D0E0",
"=@	c #B5C4DB",
"-@	c #C8D3E2",
";@	c #3575B0",
">@	c #4291DA",
",@	c #3A80C0",
"'@	c #3776B1",
")@	c #9CB8D2",
"!@	c #C0CDDF",
"~@	c #B7C5DC",
"{@	c #C2CEDF",
"]@	c #B3C2D9",
"^@	c #C1CDDE",
"/@	c #3777B2",
"(@	c #4594DD",
"_@	c #499EEC",
":@	c #4697E2",
"<@	c #4490D6",
"[@	c #95B4D5",
"}@	c #B6C5DA",
"|@	c #B1C0D8",
"1@	c #B6C4DA",
"2@	c #C0CCDD",
"3@	c #C5D0DF",
"4@	c #B9C7DB",
"5@	c #B3C1D9",
"6@	c #BCC9DB",
"7@	c #B2C1D8",
"8@	c #AFBFD7",
"9@	c #BDCADC",
"0@	c #A7B8D1",
"a@	c #B1C0D7",
"b@	c #ADBDD6",
"c@	c #A4B5CF",
"d@	c #B7C5D9",
"    . . . . . . . . . . . . . . . . . . . . . . . . . . . .     ",
"  . + @ # # # # # # # # # # # # # # # # # # # # # # # # @ + .   ",
". $ % & * * * * * * * * * * * * * * * * * * * * * * * * & % = . ",
". - ; > > > > > > > > > > > > > > > > > > > > > > > > > > ; , . ",
". ' ) ) ) ) ) ) ) ) ) ) ) ) ) ) ) ) ) ) ) ) ) ) ) ) ) ) ) ) ' . ",
". ! ~ ~ ~ ~ ~ ~ ~ ~ ~ ~ ~ ~ ~ ~ ~ ~ ~ ~ ~ ~ ~ ~ ~ ~ ~ ~ ~ ~ ! . ",
". { ] ] ] ] ] ] ] ] ] ] ] ] ] ^ / ( _ _ _ _ _ _ _ _ _ { : ] { . ",
". < [ [ [ [ [ [ [ [ [ [ [ [ [ } | 1 2 3 3 3 3 3 3 3 3 3 4 [ < . ",
". 5 6 6 6 6 6 6 6 6 6 6 6 6 6 7 8 9 0 a b b b b b b b b c 6 5 . ",
". d e e e e e e e e e e e e f 6 7 g h i j k k k k k k k l e d . ",
". m n n n n n n n n n n n o m p q r s t u v w w w w w w x n m . ",
". y z z z z z z z z z z A B C D E F G H I J K K K K K K L z y . ",
". M N N N N N N N N N O M P Q R S T U V W X Y Y Y Y Y Y y N M . ",
". Z ` ` ` ` ` ` ` `  ...+.@.#.$.%.&.*.=.-.;.;.;.;.;.;.;.>.` Z . ",
". ,.'.).!.).'.'.'.).~.{.].^./.(._.:.<.[.}.}.}.}.}.}.}.}.|.'.,.. ",
". 1.2.3.4.5.6.2.7.8.9.U 0.a.b.c.d.e.f.g.g.g.g.g.h.i.j.g.k.2.1.. ",
". l.m.n.o.p.q.r.s.t.u.v.w.x.y.z.A.B.C.C.C.C.C.D.E.F.A.G.H.m.l.. ",
". q.I.n._.J.K.L.M.N.O.P.Q.R.S.T.U.V.V.V.V.V.W.q.X.Y.Z.`. +I.q.. ",
". .+++q.@+#+$+%+&+*+=+-+;+>+,+'+)+)+)+)+)+!+.+~+++{+]+^+/+++.+. ",
". (+$ _+:+<+[+}+|+1+1+2+3+4+5+6+6+6+6+6+7+(+8+$ $ $ 9+0+9+$ (+. ",
". a+b+c+d+e+f+g+h+i+j+k+l+m+n+o+o+o+o+p+a+q+b+b+b+b+b+b+b+b+a+. ",
". r+s+t+u+v+t+s+s+s+s+w+x+y+z+A+B+B+C+r+D+s+s+s+s+s+s+s+s+s+r+. ",
". E+F+G+H+I+G+F+F+F+F+F+J+K+L+M+N+O+P+J+F+F+F+F+F+F+F+F+F+F+E+. ",
". Q+R+S+T+U+S+R+R+R+R+R+R+V+W+X+Y+Q+V+R+R+R+R+R+R+R+R+R+R+R+Q+. ",
". Z+`+K+ @.@+@K+K+K+K+K+K+@@#@$@%@&@`+`+`+`+`+`+`+`+`+`+`+`+Z+. ",
". *@=@-@;@>@M+,@;@;@;@;@;@'@)@!@~@=@=@=@=@=@=@=@=@=@=@=@=@=@*@. ",
". {@]@^@/@(@_@:@(@(@(@(@(@(@<@[@}@]@]@]@]@]@]@]@]@]@]@]@]@]@{@. ",
". ^@|@1@2@3@3@3@3@3@3@3@3@3@^@4@5@|@|@|@|@|@|@|@|@|@|@|@|@|@^@. ",
". 6@7@8@8@8@8@8@8@8@8@8@8@8@8@8@8@8@8@8@8@8@8@8@8@8@8@8@8@7@9@. ",
". 0@9@a@b@b@b@b@b@b@b@b@b@b@b@b@b@b@b@b@b@b@b@b@b@b@b@b@a@9@0@. ",
"  . c@d@6@6@6@6@6@6@6@6@6@6@6@6@6@6@6@6@6@6@6@6@6@6@6@6@d@c@.   ",
"    . . . . . . . . . . . . . . . . . . . . . . . . . . . .     "};
