/* XPM */
static char * ico_zoom_out_32x32_xpm[] = {
"32 32 389 2",
"  	c None",
". 	c #8AA0C3",
"+ 	c #BFCDE2",
"@ 	c #E6EEF8",
"# 	c #F1F7FE",
"$ 	c #C4D1E4",
"% 	c #F0F6FD",
"& 	c #EDF4FD",
"* 	c #ECF4FD",
"= 	c #C5D2E4",
"- 	c #E9F0F9",
"; 	c #ECF3FC",
"> 	c #EBF3FC",
", 	c #ECF4FC",
"' 	c #EDF4FC",
") 	c #EFF5FC",
"! 	c #F0F6FC",
"~ 	c #EAF1F9",
"{ 	c #E9F1FB",
"] 	c #EAF2FB",
"^ 	c #ECF3FB",
"/ 	c #CBDBE8",
"( 	c #799FBC",
"_ 	c #37719D",
": 	c #0C558B",
"< 	c #014E88",
"[ 	c #0F5990",
"} 	c #3A76A4",
"| 	c #7CA3C1",
"1 	c #D1DFEC",
"2 	c #E7F0FA",
"3 	c #E9F1FA",
"4 	c #E5EEF6",
"5 	c #6993B3",
"6 	c #064F86",
"7 	c #035390",
"8 	c #035A9B",
"9 	c #035FA4",
"0 	c #0462A9",
"a 	c #0463AB",
"b 	c #035EA3",
"c 	c #095D9C",
"d 	c #6E9DC0",
"e 	c #E5EEF7",
"f 	c #EAF1FA",
"g 	c #E5EEF9",
"h 	c #E7EFF9",
"i 	c #D4E1ED",
"j 	c #326B97",
"k 	c #05528C",
"l 	c #065C9E",
"m 	c #0665AD",
"n 	c #076AB5",
"o 	c #076CBA",
"p 	c #076EBD",
"q 	c #076FBD",
"r 	c #0665AC",
"s 	c #387DB1",
"t 	c #D9E6F1",
"u 	c #E9F0F8",
"v 	c #E3ECF7",
"w 	c #E4EDF7",
"x 	c #E2EBF5",
"y 	c #326C99",
"z 	c #075691",
"A 	c #0862A6",
"B 	c #096CB7",
"C 	c #3288C9",
"D 	c #A6C9E6",
"E 	c #DFEAF5",
"F 	c #E3EDF6",
"G 	c #A8C9E4",
"H 	c #428DC6",
"I 	c #096EBB",
"J 	c #096FBD",
"K 	c #096BB6",
"L 	c #3981B8",
"M 	c #E5EDF6",
"N 	c #E7EEF7",
"O 	c #E1EAF6",
"P 	c #E6EDF7",
"Q 	c #6892B3",
"R 	c #09558F",
"S 	c #0A64A8",
"T 	c #0F71BC",
"U 	c #7DB2DC",
"V 	c #E4ECF6",
"W 	c #E4ECF7",
"X 	c #E2EBF6",
"Y 	c #E2EAF6",
"Z 	c #E8EFF8",
"` 	c #89B4D5",
" .	c #1371B9",
"..	c #0C71BE",
"+.	c #0C6EBA",
"@.	c #76A8CE",
"#.	c #E5EDF7",
"$.	c #DEE8F5",
"%.	c #E0E9F5",
"&.	c #CBDAE8",
"*.	c #10578E",
"=.	c #0D62A4",
"-.	c #0F70BC",
";.	c #90BDE1",
">.	c #DFE9F5",
",.	c #E3ECF6",
"'.	c #A3C3DB",
").	c #0F6DB6",
"!.	c #1074C1",
"~.	c #1473BC",
"{.	c #CEDEED",
"].	c #E3EBF5",
"^.	c #DCE6F3",
"/.	c #E0E9F4",
"(.	c #7EA2BF",
"_.	c #0E5B98",
":.	c #116DB6",
"<.	c #4492D0",
"[.	c #E4ECF5",
"}.	c #DDE7F3",
"|.	c #DDE6F3",
"1.	c #568FBD",
"2.	c #1270BB",
"3.	c #1376C4",
"4.	c #7EAFD6",
"5.	c #E1E9F3",
"6.	c #D9E4F1",
"7.	c #E0E9F3",
"8.	c #3C74A1",
"9.	c #1365A6",
"0.	c #1675C0",
"a.	c #9FC6E4",
"b.	c #DFE9F3",
"c.	c #E3EBF4",
"d.	c #E2EBF3",
"e.	c #DEE7F3",
"f.	c #B0C8DB",
"g.	c #146AAD",
"h.	c #1677C4",
"i.	c #4892CD",
"j.	c #DFE7F2",
"k.	c #D7E1F0",
"l.	c #E0E8F3",
"m.	c #22659A",
"n.	c #186EB2",
"o.	c #1A7BC8",
"p.	c #CFDFEF",
"q.	c #00477D",
"r.	c #004C85",
"s.	c #004E88",
"t.	c #0E588E",
"u.	c #DDE6F1",
"v.	c #1564A2",
"w.	c #1977C1",
"x.	c #2E86CC",
"y.	c #E0E8F2",
"z.	c #DDE5F1",
"A.	c #D4DFEE",
"B.	c #DCE5F0",
"C.	c #175F99",
"D.	c #1C74BB",
"E.	c #1F80CE",
"F.	c #E0E7F1",
"G.	c #1C619A",
"H.	c #2172B5",
"I.	c #247BC4",
"J.	c #2F82C6",
"K.	c #DEE7F1",
"L.	c #266BA2",
"M.	c #1C76BF",
"N.	c #2482CF",
"O.	c #DAE4EF",
"P.	c #D1DDEC",
"Q.	c #DCE5EF",
"R.	c #296BA2",
"S.	c #2078BF",
"T.	c #2383D2",
"U.	c #CFDFEC",
"V.	c #3A79B4",
"W.	c #4796DF",
"X.	c #4EA4F4",
"Y.	c #57A7F3",
"Z.	c #DAE4EE",
"`.	c #DCE4EF",
" +	c #1C639D",
".+	c #368DD4",
"++	c #DBE4EF",
"@+	c #D9E1EE",
"#+	c #CFDAEB",
"$+	c #D8E1EE",
"%+	c #457FAE",
"&+	c #2379C0",
"*+	c #2786D4",
"=+	c #A0C3E2",
"-+	c #D7E0ED",
";+	c #DBE3EF",
">+	c #D5DFED",
",+	c #B3C6D9",
"'+	c #1D659F",
")+	c #569FDB",
"!+	c #D6E0EC",
"~+	c #CCD8E9",
"{+	c #D2DDEB",
"]+	c #7CA3C4",
"^+	c #2578BE",
"/+	c #2A87D6",
"(+	c #5A9DD7",
"_+	c #D7E1ED",
":+	c #CDD9E9",
"<+	c #648FB4",
"[+	c #226DAC",
"}+	c #2881CC",
"|+	c #8EBCE4",
"1+	c #D4DEEC",
"2+	c #D4DEEB",
"3+	c #C9D6E7",
"4+	c #CCD8E8",
"5+	c #C2D2E2",
"6+	c #2975B7",
"7+	c #2D87D3",
"8+	c #2E89D7",
"9+	c #9DC0DE",
"0+	c #D1DCEA",
"a+	c #CAD7E7",
"b+	c #D0DBE9",
"c+	c #A8BFD4",
"d+	c #22659F",
"e+	c #2879BD",
"f+	c #2E89D6",
"g+	c #5FA3DC",
"h+	c #D2DEEA",
"i+	c #C6D3E6",
"j+	c #CFDAE9",
"k+	c #74A1C7",
"l+	c #2E83CC",
"m+	c #328EDC",
"n+	c #348AD4",
"o+	c #9CBDDA",
"p+	c #D3DDEA",
"q+	c #CBD7E8",
"r+	c #C7D4E6",
"s+	c #CAD6E7",
"t+	c #A9C0D4",
"u+	c #2D6BA0",
"v+	c #2974B4",
"w+	c #3086D1",
"x+	c #338FDE",
"y+	c #328DDB",
"z+	c #5E9CD1",
"A+	c #C9D5E7",
"B+	c #D0DAE8",
"C+	c #C7D3E5",
"D+	c #CBD7E6",
"E+	c #4E8DC6",
"F+	c #348CD8",
"G+	c #3690DF",
"H+	c #3387D1",
"I+	c #6098C8",
"J+	c #A8C0D7",
"K+	c #D1DCE8",
"L+	c #D3DDE9",
"M+	c #6591B7",
"N+	c #2769A3",
"O+	c #2C76B6",
"P+	c #3286CF",
"Q+	c #3793E3",
"R+	c #3792E2",
"S+	c #5F9BCF",
"T+	c #CDD9E7",
"U+	c #C7D4E5",
"V+	c #CDD9E6",
"W+	c #C1CFE2",
"X+	c #C2D1E2",
"Y+	c #5295CE",
"Z+	c #3991DD",
"`+	c #3A93E1",
" @	c #378DD7",
".@	c #3382C6",
"+@	c #2F77B6",
"@@	c #2C71AC",
"#@	c #2C6FAA",
"$@	c #2C70AC",
"%@	c #2F77B5",
"&@	c #3381C5",
"*@	c #378CD6",
"=@	c #3B96E5",
"-@	c #3B95E4",
";@	c #388FDA",
">@	c #649ED0",
",@	c #C4D2E3",
"'@	c #CBD6E5",
")@	c #BECCE1",
"!@	c #BFCCE1",
"~@	c #C3D0E3",
"{@	c #C7D4E4",
"]@	c #7CACD8",
"^@	c #3D92DD",
"/@	c #3D96E4",
"(@	c #3C94E2",
"_@	c #3A8FDA",
":@	c #398CD6",
"<@	c #398BD4",
"[@	c #398BD5",
"}@	c #4095E1",
"|@	c #5BA5E6",
"1@	c #3E97E6",
"2@	c #3E97E7",
"3@	c #3E98E8",
"4@	c #3B91DD",
"5@	c #659FD1",
"6@	c #C9D6E5",
"7@	c #C1CEE2",
"8@	c #C9D5E4",
"9@	c #BCCADF",
"0@	c #BFCCE0",
"a@	c #C7D3E3",
"b@	c #B8CCE1",
"c@	c #8AB7E1",
"d@	c #61A5E3",
"e@	c #459AE6",
"f@	c #429AEA",
"g@	c #489EEB",
"h@	c #64ABE9",
"i@	c #8EBDE8",
"j@	c #BDD2E6",
"k@	c #D0DAE7",
"l@	c #73ACDE",
"m@	c #3F94E0",
"n@	c #419AE9",
"o@	c #429BEB",
"p@	c #80AED8",
"q@	c #C5D1E2",
"r@	c #C7D3E2",
"s@	c #B9C8DD",
"t@	c #BAC9DD",
"u@	c #BDCBDE",
"v@	c #C2CFE0",
"w@	c #C6D3E2",
"x@	c #C9D5E3",
"y@	c #CAD6E3",
"z@	c #C6D2E2",
"A@	c #C7D4E2",
"B@	c #70A5D5",
"C@	c #4195E1",
"D@	c #449CEB",
"E@	c #459DED",
"F@	c #509CE1",
"G@	c #C5D1E1",
"H@	c #B7C6DC",
"I@	c #C6D2E1",
"J@	c #70A5D4",
"K@	c #4397E3",
"L@	c #469EED",
"M@	c #479FEF",
"N@	c #54A4EB",
"O@	c #C4D0E0",
"P@	c #B5C4DB",
"Q@	c #B8C7DC",
"R@	c #C4D1E0",
"S@	c #72A6D6",
"T@	c #4699E5",
"U@	c #49A0EF",
"V@	c #4AA1F1",
"W@	c #88BBEB",
"X@	c #BFCCDE",
"Y@	c #C2CEDF",
"Z@	c #B3C2D9",
"`@	c #B7C5DA",
" #	c #BFCDDD",
".#	c #82AFD9",
"+#	c #57A2E6",
"@#	c #5AA7EE",
"##	c #87BBEC",
"$#	c #BFCDDF",
"%#	c #B6C4DA",
"&#	c #C1CDDE",
"*#	c #B1C0D8",
"=#	c #B4C2D9",
"-#	c #BBC8DC",
";#	c #B4C3D9",
">#	c #BCC9DB",
",#	c #B2C1D8",
"'#	c #AFBFD7",
")#	c #BDCADC",
"!#	c #A7B8D1",
"~#	c #B1C0D7",
"{#	c #ADBDD6",
"]#	c #A4B5CF",
"^#	c #B7C5D9",
"    . . . . . . . . . . . . . . . . . . . . . . . . . . . .     ",
"  . + @ # # # # # # # # # # # # # # # # # # # # # # # # @ + .   ",
". $ % & * * * * * * * * * * * * * * * * * * * * * * * * & % = . ",
". - ; > > > > > > , ' ) ! ! ! ) ' , > > > > > > > > > > > ; ~ . ",
". ' { { { { { ] ^ / ( _ : < [ } | 1 ^ ] { { { { { { { { { { ' . ",
". ^ 2 2 2 2 3 4 5 6 7 8 9 0 a 0 b c d e 3 2 2 2 2 2 2 2 2 2 ^ . ",
". f g g g h i j k l m n o p q p o n r s t h g g g g g g g g f . ",
". u v v w x y z A B C D E ~ F G H I J K L M w v v v v v v v u . ",
". N O O P Q R S T U V W X O Y W Z `  ...+.@.#.O O O O O O O N . ",
". M $.%.&.*.=.-.;.V >.$.$.$.$.$.>.,.'.).!.~.{.%.$.$.$.$.$.$.M . ",
". ].^./.(._.:.<.[.}.^.^.^.^.^.^.^.|.].1.2.3.4./.^.^.^.^.^.^.].. ",
". 5.6.7.8.9.0.a.b.7.c.c.c.c.c.c.d.7.e.f.g.h.i.7.6.6.6.6.6.6.5.. ",
". j.k.l.m.n.o.p.j.q.r.s.s.s.s.s.s.t.j.u.v.w.x.y.k.k.k.k.k.k.j.. ",
". z.A.B.C.D.E.y.F.G.H.I.I.I.I.I.I.J.K.K.L.M.N.K.A.A.A.A.A.A.z.. ",
". O.P.Q.R.S.T.U.O.V.W.X.X.X.X.X.X.Y.Z.`. +S..+++P.P.P.P.P.P.O.. ",
". @+#+$+%+&+*+=+-+$+;+;+;+;+;+;+;+$+>+,+'+I.)+$+#+#+#+#+#+#+@+. ",
". !+~+{+]+^+/+(+_+:+~+~+~+~+~+~+~+:+!+<+[+}+|+1+~+~+~+~+~+~+!+. ",
". 2+3+4+5+6+7+8+9+0+a+3+3+3+3+3+a+b+c+d+e+f+g+h+4+3+3+3+3+3+2+. ",
". 0+i+i+j+k+l+m+n+o+p+q+r+i+r+s+0+t+u+v+w+x+y+z+j+A+i+i+i+i+0+. ",
". B+$ $ C+D+E+F+G+H+I+J+K+L+L+c+M+N+O+P+G+Q+R+F+S+T+U+$ $ $ B+. ",
". V+W+W+W+= X+Y+Z+`+ @.@+@@@#@$@%@&@*@`+=@=@=@-@;@>@D+,@W+W+V+. ",
". '@)@)@)@!@~@{@]@^@/@(@_@:@<@[@_@}@|@1@2@3@3@3@2@4@5@6@7@)@'@. ",
". 8@9@9@9@9@9@0@a@b@c@d@e@f@g@h@i@j@k@l@m@n@o@o@o@n@m@p@q@9@8@. ",
". r@s@s@s@s@s@s@t@u@v@w@x@y@x@z@v@u@u@A@B@C@D@E@E@E@D@F@r@s@r@. ",
". G@H@H@H@H@H@H@H@H@H@H@H@H@H@H@H@H@H@t@I@J@K@L@M@M@M@N@I@H@G@. ",
". O@P@P@P@P@P@P@P@P@P@P@P@P@P@P@P@P@P@P@Q@R@S@T@U@V@V@W@X@P@O@. ",
". Y@Z@Z@Z@Z@Z@Z@Z@Z@Z@Z@Z@Z@Z@Z@Z@Z@Z@Z@Z@`@ #.#+#@###$#%#Z@Y@. ",
". &#*#*#*#*#*#*#*#*#*#*#*#*#*#*#*#*#*#*#*#*#=#-#&#&#-#;#*#*#&#. ",
". >#,#'#'#'#'#'#'#'#'#'#'#'#'#'#'#'#'#'#'#'#'#'#'#'#'#'#'#,#)#. ",
". !#)#~#{#{#{#{#{#{#{#{#{#{#{#{#{#{#{#{#{#{#{#{#{#{#{#{#~#)#!#. ",
"  . ]#^#>#>#>#>#>#>#>#>#>#>#>#>#>#>#>#>#>#>#>#>#>#>#>#>#^#]#.   ",
"    . . . . . . . . . . . . . . . . . . . . . . . . . . . .     "};
