/* XPM */
static char * ico_clip_xpm[] = {
"16 16 113 2",
"  	c None",
". 	c #8AA0C3",
"+ 	c #CDD9E9",
"@ 	c #F0F6FD",
"# 	c #F1F7FD",
"$ 	c #F3F8FD",
"% 	c #F2F7FD",
"& 	c #D0DBEA",
"* 	c #EDF4FC",
"= 	c #E9F1FB",
"- 	c #004578",
"; 	c #EAF2FB",
"> 	c #EFF5FC",
", 	c #EBF2FA",
"' 	c #EAF1FA",
") 	c #F0F5FB",
"! 	c #034A7F",
"~ 	c #034E87",
"{ 	c #ECF2FA",
"] 	c #EDF3FA",
"^ 	c #03477A",
"/ 	c #ECF1F8",
"( 	c #064A7D",
"_ 	c #06518A",
": 	c #0860A3",
"< 	c #EAF1F8",
"[ 	c #E3EBF6",
"} 	c #E7EEF7",
"| 	c #E8EFF6",
"1 	c #0B5085",
"2 	c #0B558D",
"3 	c #0D5F9E",
"4 	c #0F6EB8",
"5 	c #0C5791",
"6 	c #E5ECF5",
"7 	c #DCE6F3",
"8 	c #E3EBF5",
"9 	c #E1E9F3",
"0 	c #DFE7F2",
"a 	c #E8EEF5",
"b 	c #1573BD",
"c 	c #1678C5",
"d 	c #E4EAF3",
"e 	c #EBF0F5",
"f 	c #1570B9",
"g 	c #D7E1F0",
"h 	c #DAE4EF",
"i 	c #D1DDEC",
"j 	c #DDE6F0",
"k 	c #1D78C2",
"l 	c #1E7ECB",
"m 	c #DFE8F0",
"n 	c #1C76BE",
"o 	c #E8EEF3",
"p 	c #1F81D0",
"q 	c #D6E0EC",
"r 	c #CCD8E9",
"s 	c #D9E2ED",
"t 	c #1F6DAC",
"u 	c #247EC8",
"v 	c #E5EBF1",
"w 	c #DCE4EE",
"x 	c #247BC4",
"y 	c #2684D1",
"z 	c #D1DCEA",
"A 	c #C6D3E6",
"B 	c #D4DEEB",
"C 	c #2368A3",
"D 	c #2B81CA",
"E 	c #E2E9EF",
"F 	c #D8E1EC",
"G 	c #DFE6EE",
"H 	c #2774B6",
"I 	c #2C84CE",
"J 	c #D1DBEA",
"K 	c #CDD9E6",
"L 	c #C1CFE2",
"M 	c #D1DBE8",
"N 	c #296CA7",
"O 	c #3286CF",
"P 	c #3389D4",
"Q 	c #2D79BB",
"R 	c #2B73B2",
"S 	c #2A70AD",
"T 	c #D6E0EA",
"U 	c #C9D5E4",
"V 	c #BCCADF",
"W 	c #C9D4E4",
"X 	c #2E70AB",
"Y 	c #398BD4",
"Z 	c #3D94E3",
"` 	c #337DBF",
" .	c #2F74B1",
"..	c #327ABB",
"+.	c #3A8ED9",
"@.	c #D3DDE8",
"#.	c #C5D1E1",
"$.	c #B7C6DC",
"%.	c #BCCADE",
"&.	c #C9D4E3",
"*.	c #D6DFE7",
"=.	c #4093DD",
"-.	c #4399E7",
";.	c #C9D4E2",
">.	c #C2CEDF",
",.	c #B3C2D9",
"'.	c #C1CDDE",
").	c #4596E1",
"!.	c #489DEB",
"~.	c #AFBFD5",
"{.	c #BFCCDD",
"].	c #C3CFDF",
"^.	c #CBD6E2",
"  . . . . . . . . . . . . . .   ",
". + @ # $ $ # @ @ @ @ @ # % & . ",
". * = * - - * = = = = ; > - > . ",
". , ' ) ! ~ ) { { { { ] ^ { , . ",
". / ( ( _ : : _ ( ( ( ( < [ } . ",
". | 1 2 3 4 4 3 5 5 5 5 6 7 8 . ",
". 9 0 a b c a d e f f f 9 g 0 . ",
". h i j k l m j n o l p j i h . ",
". q r s t u v t s w x y s r q . ",
". z A B C D D E F G H I G J B . ",
". K L M N O P Q R N S O O N T . ",
". U V W X Y Z Y `  ...+.+...@.. ",
". #.$.%.#.&.&.&.&.*.=.-.*.#.;.. ",
". >.,.,.,.,.,.,.,.'.).!.'.,.>.. ",
". ~.{.{.{.{.{.{.{.].^.^.].{.~.. ",
"  . . . . . . . . . . . . . .   "};
