/* XPM */
static char * ico_zoom_in_16x16_xpm[] = {
"16 16 144 2",
"  	c None",
". 	c #AEB7C5",
"+ 	c #DAE1EA",
"@ 	c #F1F6FD",
"# 	c #F2F7FD",
"$ 	c #F4F8FD",
"% 	c #EEF5FC",
"& 	c #EBF3FB",
"* 	c #EBF3FA",
"= 	c #85A8C2",
"- 	c #316C98",
"; 	c #034E86",
"> 	c #3371A0",
", 	c #88ACC8",
"' 	c #EBF2FB",
") 	c #EAF2FB",
"! 	c #EDF2F9",
"~ 	c #E7EEF6",
"{ 	c #38709A",
"] 	c #5789B0",
"^ 	c #D0DFEC",
"/ 	c #EFF5FA",
"( 	c #D0E0ED",
"_ 	c #578FB9",
": 	c #417EAC",
"< 	c #E9F0F8",
"[ 	c #E8F0F8",
"} 	c #E7EFF8",
"| 	c #ECF2F9",
"1 	c #ECF2F7",
"2 	c #7CA0BD",
"3 	c #5689B0",
"4 	c #EAF0F7",
"5 	c #EBF0F6",
"6 	c #00477D",
"7 	c #548DB9",
"8 	c #89B0CE",
"9 	c #E4ECF5",
"0 	c #E9F0F6",
"a 	c #EBF1F6",
"b 	c #246395",
"c 	c #D1DEEA",
"d 	c #E7EDF5",
"e 	c #EDF2F6",
"f 	c #09538B",
"g 	c #D0DDE9",
"h 	c #387BAF",
"i 	c #E6ECF4",
"j 	c #E0E8F2",
"k 	c #E6EDF4",
"l 	c #E7ECF2",
"m 	c #165C95",
"n 	c #E8EEF3",
"o 	c #14568C",
"p 	c #155C95",
"q 	c #1767A6",
"r 	c #196FB3",
"s 	c #2369A1",
"t 	c #E4EAF2",
"u 	c #DCE4EF",
"v 	c #E3E9F1",
"w 	c #E6EBF1",
"x 	c #3070A4",
"y 	c #CDDCE8",
"z 	c #E0E7EF",
"A 	c #E8EDF2",
"B 	c #2A7BC0",
"C 	c #CCDAE4",
"D 	c #417CAC",
"E 	c #E1E8EF",
"F 	c #D7E0EB",
"G 	c #DFE6EE",
"H 	c #E0E6ED",
"I 	c #83A7C6",
"J 	c #639AC6",
"K 	c #DDE4EB",
"L 	c #DEE4EB",
"M 	c #357DBD",
"N 	c #DEE5EB",
"O 	c #6A94B5",
"P 	c #2F73AC",
"Q 	c #C1D3E3",
"R 	c #D8E0E9",
"S 	c #D4DCE7",
"T 	c #DCE3EB",
"U 	c #D9E0E9",
"V 	c #D4DCE6",
"W 	c #538CBE",
"X 	c #659AC6",
"Y 	c #C2D1E0",
"Z 	c #E0E6EB",
"` 	c #C1D0DD",
" .	c #618EB3",
"..	c #266BA5",
"+.	c #2C7BBF",
"@.	c #3B88CA",
"#.	c #BED0E0",
"$.	c #D3DBE6",
"%.	c #D8DFE8",
"&.	c #D5DCE5",
"*.	c #CDD5E1",
"=.	c #D3DBE4",
"-.	c #90B4D3",
";.	c #528EC3",
">.	c #2E73B1",
",.	c #538AB9",
"'.	c #88ADCE",
").	c #4187C5",
"!.	c #388DD8",
"~.	c #3A92DF",
"{.	c #428FD1",
"].	c #BBCDDE",
"^.	c #D8DFE6",
"/.	c #D1D9E2",
"(.	c #C6CFDD",
"_.	c #C8D1DE",
":.	c #CCD4E0",
"<.	c #D1D8E2",
"[.	c #D3DAE3",
"}.	c #4C94D8",
"|.	c #4298E6",
"1.	c #589AD7",
"2.	c #D9DFE6",
"3.	c #CED6E0",
"4.	c #C2CCDA",
"5.	c #C3CDDA",
"6.	c #C8D1DD",
"7.	c #BCCDDD",
"8.	c #4F97D8",
"9.	c #489DEA",
"0.	c #5FA7E9",
"a.	c #D6DDE4",
"b.	c #CCD3DD",
"c.	c #BFC8D7",
"d.	c #C0C9D7",
"e.	c #C5CDDA",
"f.	c #C2CEDC",
"g.	c #9ABDDD",
"h.	c #C2CFDE",
"i.	c #CFD6DF",
"j.	c #C1C9D4",
"k.	c #C9D1DA",
"l.	c #CBD3DB",
"m.	c #CCD4DC",
"  . . . . . . . . . . . . . .   ",
". + @ @ # $ $ $ # @ @ @ @ @ + . ",
". % & * = - ; > , ' & ) ) ) % . ",
". ! ~ { ] ^ / ( _ : < [ } } | . ",
". 1 2 3 4 5 6 5 4 7 8 ~ 9 9 0 . ",
". a b c d e f e d g h i j j k . ",
". l m n o p q r q n s t u u v . ",
". w x y z A B A z C D E F F G . ",
". H I J K L M L N O P Q R S T . ",
". U V W X Y Z `  ...+.@.#.$.%.. ",
". &.*.=.-.;.>.,.'.).!.~.{.].^.. ",
". /.(._.:.<.[.<.<.#.}.|.|.1.2.. ",
". 3.4.4.4.4.4.4.5.6.7.8.9.0.a.. ",
". b.c.c.c.c.c.c.c.d.e.f.g.h.i.. ",
". j.k.k.k.k.k.k.k.k.k.l.m.l.j.. ",
"  . . . . . . . . . . . . . .   "};
