/* XPM */
static char * shape_aling_middle_xpm[] = {
"16 16 39 1",
" 	c None",
".	c #A1A1A1",
"+	c #9E9E9E",
"@	c #F9F9F9",
"#	c #F7F7F7",
"$	c #9B9B9B",
"%	c #ECECEC",
"&	c #E6E6E6",
"*	c #979797",
"=	c #F8F8F8",
"-	c #F6F6F6",
";	c #E3E3E3",
">	c #DADADA",
",	c #939393",
"'	c #E7E7E7",
")	c #E0E0E0",
"!	c #D5D5D5",
"~	c #8E8E8E",
"{	c #DBDBDB",
"]	c #CFCFCF",
"^	c #4C4C4C",
"/	c #898989",
"(	c #D7D7D7",
"_	c #CACACA",
":	c #848484",
"<	c #D3D3D3",
"[	c #C4C4C4",
"}	c #7F7F7F",
"|	c #CECECE",
"1	c #BEBEBE",
"2	c #7B7B7B",
"3	c #CBCBCB",
"4	c #B9B9B9",
"5	c #767676",
"6	c #C7C7C7",
"7	c #B4B4B4",
"8	c #737373",
"9	c #B0B0B0",
"0	c #6F6F6F",
"                ",
"                ",
"        .....   ",
"        +@#@+   ",
"  $$$$$ $%&%$   ",
"  *=-=* *;>;*   ",
"  ,')', ,)!),   ",
"  ~{]{~ ~{]{~   ",
" ^/(_(/^/(_(/^  ",
"  :<[<: :<[<:   ",
"  }|1|} }|1|}   ",
"  23432 23432   ",
"  55555 56765   ",
"        8[9[8   ",
"        00000   ",
"                "};
