/* XPM */
static char * size1_r_xpm[] = {
"32 32 3 1",
" 	c None",
".	c #FFFFFF",
"+	c #000000",
"                                ",
"                                ",
"                                ",
"                                ",
"                                ",
"                                ",
"                                ",
"                                ",
"                                ",
"                 .......        ",
"                 .+++++.        ",
"                  .++++.        ",
"                   .+++.        ",
"                  .+.++.        ",
"                 .+. .+.        ",
"                .+.   ..        ",
"               .+.              ",
"         ..   .+.               ",
"         .+. .+.                ",
"         .++.+.                 ",
"         .+++.                  ",
"         .++++.                 ",
"         .+++++.                ",
"         .......                ",
"                                ",
"                                ",
"                                ",
"                                ",
"                                ",
"                                ",
"                                ",
"                                "};
