/* XPM */
static char * zoom_xpm[] = {
"16 16 44 1",
" 	c None",
".	c #979797",
"+	c #787878",
"@	c #686868",
"#	c #717171",
"$	c #8A8A8A",
"%	c #909090",
"&	c #D6D6D6",
"*	c #EFEFEF",
"=	c #DEDEDE",
"-	c #A3A3A3",
";	c #6D6D6D",
">	c #9F9F9F",
",	c #AAAAAA",
"'	c #F8F8F8",
")	c #C4C4C4",
"!	c #929292",
"~	c #F5F5F5",
"{	c #F2F2F2",
"]	c #F6F6F6",
"^	c #8E8E8E",
"/	c #8F8F8F",
"(	c #D5D5D5",
"_	c #EBEBEB",
":	c #D0D0D0",
"<	c #707070",
"[	c #EDEDED",
"}	c #E4E4E4",
"|	c #DCDCDC",
"1	c #676767",
"2	c #D8D8D8",
"3	c #C0C0C0",
"4	c #777777",
"5	c #A1A1A1",
"6	c #828282",
"7	c #6B6B6B",
"8	c #B2B2B2",
"9	c #696969",
"0	c #949494",
"a	c #CACACA",
"b	c #BEBEBE",
"c	c #848484",
"d	c #747474",
"e	c #666666",
"                ",
"    .+@#$       ",
"   #%&*=-;>     ",
"  #,''''')@     ",
" .!~'~{{~]^/    ",
" +('~*__*~:<    ",
" @['{_}}_{|1    ",
" <2'{_}}_{34    ",
" /5'~*__*[6.    ",
"  78'~{{~,;     ",
"  >90a|bc#dee   ",
"    /#@+.  eee  ",
"            eee ",
"             ee ",
"                ",
"                "};
