/* XPM */
static char * disk_xpm[] = {
"16 16 67 1",
" 	c None",
".	c #620390",
"+	c #61038F",
"@	c #D9A6F2",
"#	c #FFFFFF",
"$	c #FEFFFF",
"%	c #60038D",
"&	c #D3A0EC",
"*	c #FBFEFE",
"=	c #F8FBFB",
"-	c #5F038C",
";	c #D19EEA",
">	c #F5FBFB",
",	c #F0F6F6",
"'	c #5E038A",
")	c #CD9AE6",
"!	c #EFF8F8",
"~	c #E7F1F1",
"{	c #5C0287",
"]	c #CA97E3",
"^	c #E9F6F6",
"/	c #DFECEC",
"(	c #5A0285",
"_	c #C794E0",
":	c #DEDDF0",
"<	c #E4F4F4",
"[	c #590283",
"}	c #C390DC",
"|	c #BA87D3",
"1	c #570280",
"2	c #C08DD9",
"3	c #8956A2",
"4	c #8855A1",
"5	c #C895E1",
"6	c #55027E",
"7	c #BC89D5",
"8	c #8C59A5",
"9	c #C7C7C8",
"0	c #C2C2C3",
"a	c #AA77C3",
"b	c #8F5CA8",
"c	c #C491DD",
"d	c #53027B",
"e	c #B986D2",
"f	c #905DA9",
"g	c #BBBBC0",
"h	c #7C4995",
"i	c #B2B2B7",
"j	c #9764B0",
"k	c #C18EDA",
"l	c #500277",
"m	c #BB88D4",
"n	c #9461AD",
"o	c #B1B1BA",
"p	c #A8A8B1",
"q	c #9F6CB8",
"r	c #BF8CD8",
"s	c #4A016E",
"t	c #80489B",
"u	c #ABABB9",
"v	c #9865B1",
"w	c #A7A7B5",
"x	c #A774C0",
"y	c #BD8AD6",
"z	c #430065",
"A	c #040404",
"B	c #440066",
"                ",
"  .          .  ",
" +@#$$$$$$$$#@+ ",
" %&*========*&% ",
" -;>,,,,,,,,>;- ",
" ')!~~~~~~~~!)' ",
" {]^////////^]{ ",
" (_:<<<<<<<<:_( ",
" [}||||||||||}[ ",
" 12344444433351 ",
" 6789000098abc6 ",
" defghhiigfajkd ",
" lmnonnpponaqrl ",
"  stuvvwwuvaxys ",
"   zAAAAAAzzzzB ",
"                "};
